SplineFontDB: 3.0
FontName: aerosolmenace
FullName: aerosol menace
FamilyName: aerosol menace
Weight: Normal
Copyright: (c) 1997-2015 - Terrence Curran http://grilledcheese.com
Version: 001.001
ItalicAngle: 0
UnderlinePosition: -113
UnderlineWidth: 20
Ascent: 800
Descent: 200
InvalidEm: 0
sfntRevision: 0x00010000
LayerCount: 2
Layer: 0 0 "Back" 1
Layer: 1 0 "Fore" 0
XUID: [1021 270 -1463357204 11132049]
UniqueID: 4029744
FSType: 4
OS2Version: 3
OS2_WeightWidthSlopeOnly: 0
OS2_UseTypoMetrics: 1
CreationTime: 1424494020
ModificationTime: 1424458711
PfmFamily: 17
TTFWeight: 400
TTFWidth: 5
LineGap: 0
VLineGap: 0
Panose: 2 0 0 0 0 0 0 0 0 0
OS2TypoAscent: 800
OS2TypoAOffset: 0
OS2TypoDescent: -200
OS2TypoDOffset: 0
OS2TypoLinegap: 0
OS2WinAscent: 1000
OS2WinAOffset: 0
OS2WinDescent: 0
OS2WinDOffset: 0
HheadAscent: 800
HheadAOffset: 0
HheadDescent: -200
HheadDOffset: 0
OS2SubXSize: 650
OS2SubYSize: 600
OS2SubXOff: 0
OS2SubYOff: 75
OS2SupXSize: 650
OS2SupYSize: 600
OS2SupXOff: 0
OS2SupYOff: 350
OS2StrikeYSize: 20
OS2StrikeYPos: 300
OS2CapHeight: 0
OS2XHeight: 0
OS2Vendor: 'pyrs'
OS2CodePages: 20000001.00000000
OS2UnicodeRanges: 00000003.00000000.00000000.00000000
Lookup: 258 0 0 "'kern' Horizontal Kerning in Latin lookup 0" { "'kern' Horizontal Kerning in Latin lookup 0 subtable"  } ['kern' ('latn' <'dflt' > ) ]
DEI: 91125
LangName: 1033 "+AKkA 1997-2015 - Terrence Curran http://grilledcheese.com" "" "Regular" "pyrs: aerosol menace: 2015" "aerosolmenace" "Version 1.000" "" "Please refer to the Copyright section for the font trademark attribution notices." "" "Terrence Curran" "" "http://www.grilledcheese.com" "http://www.grilledcheese.com" "" "" "" "aerosol menace" "Regular"
Encoding: UnicodeBmp
UnicodeInterp: none
NameList: AGL For New Fonts
DisplaySize: -48
AntiAlias: 1
FitToEm: 1
WinInfo: 63 21 10
BeginPrivate: 1
BlueValues 17 [-71 -34 646 676]
EndPrivate
BeginChars: 65537 236

StartChar: DC4
Encoding: 20 20 1
Width: 648
Flags: MW
HStem: 21 106 21 140<232 240 256 265 213 316.5 213 321> 21 148<196 316.5 196 321> 21 260<232 301 158 316.5 158 321> 293 19<234 234 234 481> 293 189<241 247 241 481 144 247> 409 65<287 329> 430 181<218 392 281.5 307.5>
VStem: 14 130<236.5 293> 14 181 14 252<236.5 436> 14 287<236.5 281 149 379.5> 14 329<236.5 429> 317 150<156 162.5> 481 134<236.5 293 293 293>
LayerCount: 2
Back
Fore
SplineSet
615 316 m 0x4926
 615 157 484 21 321 21 c 0
 315 21 320 21 313 21 c 0
 151 21 14 171 14 302 c 0
 14 457 131 611 311 611 c 0
 473 611 615 480 615 316 c 0x4926
390 393 m 0
 390 440 353 479 294 487 c 1
 322 507 348 525 374 545 c 0
 372 548 371 552 368 554 c 2
 360 554 l 1
 303 537 226 494 206 472 c 1
 220 469 l 1
 228 474 238 482 244 482 c 0x8986
 250 482 247 480 247 480 c 1
 242 470 232 458 232 452 c 2
 232 443 l 2
 235 443 238 443 241 440 c 1
 247 446 251 454 259 456 c 1
 263 449 266 439 266 433 c 0
 266 426 264 430 261 427 c 0
 247 427 223 430 218 430 c 2x4426
 218 430 201 429 193 421 c 1
 199 415 l 1
 222 411 276 429 255 381 c 1
 266 381 281 379 289 381 c 1
 289 352 l 1
 266 346 254 355 232 334 c 1
 234 312 l 1
 336 310 337 304 390 311 c 1
 390 326 l 2
 390 331 380 339 374 341 c 1
 382 361 390 387 390 393 c 0
144 135 m 1
 481 127 l 1
 481 293 l 1
 144 293 l 1
 144 135 l 1
343 429 m 2
 343 413 l 1x4a0a
 338 410 332 409 326 409 c 0
 290 409 330 430 285 430 c 0x4986
 278 430 282 430 279 428 c 1
 280 435 276 474 298 474 c 0x4a0a
 314 474 343 446 343 429 c 2
467 277 m 1
 467 145 l 1x1a16
 323 145 l 2
 321 148 317 153 317 159 c 0
 317 166 320 173 318 277 c 1
 467 277 l 1
301 281 m 1
 301 149 l 1
 158 149 l 1
 158 281 l 1
 301 281 l 1
460 198 m 0
 460 211 435 216 423 227 c 1
 423 240 l 2
 426 242 426 244 433 244 c 0
 439 244 438 245 440 242 c 1
 438 245 436 249 430 249 c 0
 424 249 418 239 418 233 c 0
 418 204 455 219 455 198 c 0
 455 192 451 192 448 189 c 1
 426 214 426 207 417 207 c 0
 411 207 387 202 374 202 c 1
 378 208 386 228 364 228 c 0
 351 228 354 207 339 190 c 1
 349 188 356 194 364 185 c 1
 361 175 359 164 354 159 c 1
 362 162 375 163 381 163 c 0
 387 163 419 156 425 156 c 0
 430 156 460 187 460 198 c 0
284 260 m 0
 284 267 277 267 274 267 c 0
 269 259 269 250 262 244 c 1
 257 252 253 267 246 269 c 0
 243 267 242 270 242 263 c 0
 242 256 255 241 255 237 c 2
 255 230 l 1
 235 224 191 229 195 188 c 1x4a86
 191 183 183 183 178 181 c 1
 178 173 180 169 180 166 c 1
 193 166 193 169 199 169 c 0
 206 169 207 161 213 161 c 2x2a46
 240 161 l 2
 237 164 232 167 229 170 c 1
 234 178 238 185 243 187 c 1
 248 180 251 168 256 161 c 1
 265 161 l 2
 265 164 260 169 261 172 c 0
 264 184 269 204 269 216 c 1
 273 221 278 222 278 225 c 0
 276 230 272 237 274 242 c 0
 276 247 284 256 284 260 c 0
EndSplineSet
EndChar

StartChar: onehalf
Encoding: 189 189 2
Width: 648
Flags: MW
HStem: 21 106 21 140<232 240 256 265 213 316.5 213 321> 21 148<196 316.5 196 321> 21 260<232 301 158 316.5 158 321> 293 19<234 234 234 481> 293 189<241 247 241 481 144 247> 409 65<287 329> 430 181<218 392 281.5 307.5>
VStem: 14 130<236.5 293> 14 181 14 252<236.5 436> 14 287<236.5 281 149 379.5> 14 329<236.5 429> 317 150<156 162.5> 481 134<236.5 293 293 293>
LayerCount: 2
Back
Fore
SplineSet
615 316 m 0x4926
 615 157 484 21 321 21 c 0
 315 21 320 21 313 21 c 0
 151 21 14 171 14 302 c 0
 14 457 131 611 311 611 c 0
 473 611 615 480 615 316 c 0x4926
390 393 m 0
 390 440 353 479 294 487 c 1
 322 507 348 525 374 545 c 0
 372 548 371 552 368 554 c 2
 360 554 l 1
 303 537 226 494 206 472 c 1
 220 469 l 1
 228 474 238 482 244 482 c 0x8986
 250 482 247 480 247 480 c 1
 242 470 232 458 232 452 c 2
 232 443 l 2
 235 443 238 443 241 440 c 1
 247 446 251 454 259 456 c 1
 263 449 266 439 266 433 c 0
 266 426 264 430 261 427 c 0
 247 427 223 430 218 430 c 2x4426
 218 430 201 429 193 421 c 1
 199 415 l 1
 222 411 276 429 255 381 c 1
 266 381 281 379 289 381 c 1
 289 352 l 1
 266 346 254 355 232 334 c 1
 234 312 l 1
 336 310 337 304 390 311 c 1
 390 326 l 2
 390 331 380 339 374 341 c 1
 382 361 390 387 390 393 c 0
144 135 m 1
 481 127 l 1
 481 293 l 1
 144 293 l 1
 144 135 l 1
343 429 m 2
 343 413 l 1x4a0a
 338 410 332 409 326 409 c 0
 290 409 330 430 285 430 c 0x4986
 278 430 282 430 279 428 c 1
 280 435 276 474 298 474 c 0x4a0a
 314 474 343 446 343 429 c 2
467 277 m 1
 467 145 l 1x1a16
 323 145 l 2
 321 148 317 153 317 159 c 0
 317 166 320 173 318 277 c 1
 467 277 l 1
301 281 m 1
 301 149 l 1
 158 149 l 1
 158 281 l 1
 301 281 l 1
460 198 m 0
 460 211 435 216 423 227 c 1
 423 240 l 2
 426 242 426 244 433 244 c 0
 439 244 438 245 440 242 c 1
 438 245 436 249 430 249 c 0
 424 249 418 239 418 233 c 0
 418 204 455 219 455 198 c 0
 455 192 451 192 448 189 c 1
 426 214 426 207 417 207 c 0
 411 207 387 202 374 202 c 1
 378 208 386 228 364 228 c 0
 351 228 354 207 339 190 c 1
 349 188 356 194 364 185 c 1
 361 175 359 164 354 159 c 1
 362 162 375 163 381 163 c 0
 387 163 419 156 425 156 c 0
 430 156 460 187 460 198 c 0
284 260 m 0
 284 267 277 267 274 267 c 0
 269 259 269 250 262 244 c 1
 257 252 253 267 246 269 c 0
 243 267 242 270 242 263 c 0
 242 256 255 241 255 237 c 2
 255 230 l 1
 235 224 191 229 195 188 c 1x4a86
 191 183 183 183 178 181 c 1
 178 173 180 169 180 166 c 1
 193 166 193 169 199 169 c 0
 206 169 207 161 213 161 c 2x2a46
 240 161 l 2
 237 164 232 167 229 170 c 1
 234 178 238 185 243 187 c 1
 248 180 251 168 256 161 c 1
 265 161 l 2
 265 164 260 169 261 172 c 0
 264 184 269 204 269 216 c 1
 273 221 278 222 278 225 c 0
 276 230 272 237 274 242 c 0
 276 247 284 256 284 260 c 0
EndSplineSet
EndChar

StartChar: onequarter
Encoding: 188 188 3
Width: 625
Flags: MW
HStem: 18 220<307.5 311> 18 322<305 311> 21 171<333 479> 21 173<364 412 364 419> 21 241<410 419> 21 248<333 374 257 419> 21 277<333 336 304 419> 458 130<245 407 245 418>
VStem: 34 60<272 296 272 390> 34 73<345 345 345 390> 34 125<340 349 349 390> 34 204<262.5 397> 34 292<337 388 337 390> 316 286<340 378 244.5 393 244.5 393> 485 117<332 378 244.5 388 244.5 388> 539 63<262 292 292 313.5>
LayerCount: 2
Back
Fore
SplineSet
602 304 m 0x0941
 602 185 502 21 336 21 c 0
 330 21 314 18 308 18 c 0x4109
 302 18 258 27 237 33 c 0
 91 71 34 217 34 308 c 0
 34 472 168 588 322 588 c 0
 479 588 602 452 602 304 c 0x0941
508 394 m 1
 496 442 458 461 418 458 c 1
 418 396 l 1
 499 396 l 2
 505 396 505 396 508 394 c 1
333 467 m 1
 457 467 l 1
 416 498 373 512 333 518 c 1
 332 502 330 482 333 467 c 1
495 329 m 1
 534 329 l 1
 529 347 523 367 518 383 c 1
 494 383 l 2
 496 380 493 373 495 329 c 1
410 262 m 1
 539 262 l 1x0941
 539 292 l 2
 539 335 519 310 410 321 c 1
 410 262 l 1
485 332 m 1
 485 388 l 1
 477 384 441 388 326 388 c 1
 328 375 328 360 326 337 c 1
 480 329 l 2
 486 329 485 332 485 332 c 1
407 407 m 2
 407 458 l 1
 237 466 l 1
 239 453 240 432 238 397 c 1x110a
 241 401 l 1
 269 402 320 401 401 396 c 0
 404 399 407 401 407 407 c 2
195 472 m 1
 322 472 l 1x2111
 322 482 322 494 320 518 c 1
 298 518 l 2
 277 518 195 490 195 472 c 1
536 189 m 1
 539 210 539 233 536 251 c 1
 531 248 522 248 488 251 c 1
 488 189 l 1
 495 192 503 191 536 189 c 1
479 253 m 1
 466 251 447 251 402 253 c 1
 413 232 421 210 426 192 c 1
 479 192 l 1
 477 197 478 204 479 253 c 1
231 468 m 1
 220 466 203 469 196 469 c 0
 171 469 144 426 138 406 c 1
 231 406 l 1
 228 410 228 429 231 468 c 1
402 328 m 1
 366 315 341 328 233 328 c 1
 234 326 232 321 233 272 c 1
 243 272 l 1
 262 294 296 298 312 298 c 0x0341
 360 298 376 276 399 264 c 1
 399 267 402 269 402 328 c 1
159 340 m 1
 316 340 l 1x4124
 316 355 319 375 316 393 c 1
 159 393 l 1
 159 378 159 358 159 340 c 1
257 269 m 1
 374 269 l 1x0541
 356 275 337 290 315 290 c 0
 306 290 262 276 257 269 c 1
415 186 m 1
 407 186 395 183 361 186 c 1
 361 173 361 161 359 130 c 1
 377 132 397 130 412 130 c 1
 412 135 412 142 415 186 c 1
364 194 m 1x1141
 412 194 l 1x1141
 412 204 l 2
 413 269 332 259 283 259 c 0
 277 259 250 261 240 258 c 0
 232 256 211 219 211 207 c 0
 211 201 211 202 214 199 c 2
 264 199 l 1
 270 221 301 238 314 238 c 0x8141
 330 238 360 221 364 194 c 1x1141
107 345 m 1
 148 345 l 1
 149 360 151 384 148 396 c 1
 131 396 l 1
 121 383 108 356 107 345 c 1
226 324 m 0
 226 330 220 329 218 331 c 2
 210 331 l 2
 203 331 126 334 120 334 c 0
 101 334 94 317 94 296 c 2x1181
 94 272 l 1
 105 284 163 274 226 273 c 1
 214 286 226 310 226 324 c 0
226 258 m 1
 223 258 219 261 153 258 c 1
 153 202 l 1
 202 202 l 1
 205 222 211 240 226 258 c 1
214 137 m 1
 265 137 l 1
 265 191 l 1
 252 189 237 191 214 191 c 1
 211 173 211 149 214 137 c 1
146 258 m 1
 140 264 l 1
 89 264 l 2
 92 261 89 254 89 202 c 1
 99 205 120 205 145 202 c 1
 142 220 141 243 146 258 c 1
EndSplineSet
EndChar

StartChar: onesuperior
Encoding: 185 185 4
Width: 625
Flags: MW
HStem: 18 220<307.5 311> 18 322<305 311> 21 171<333 479> 21 173<364 412 364 419> 21 241<410 419> 21 248<333 374 257 419> 21 277<333 336 304 419> 458 130<245 407 245 418>
VStem: 34 60<272 296 272 390> 34 73<345 345 345 390> 34 125<340 349 349 390> 34 204<262.5 397> 34 292<337 388 337 390> 316 286<340 378 244.5 393 244.5 393> 485 117<332 378 244.5 388 244.5 388> 539 63<262 292 292 313.5>
LayerCount: 2
Back
Fore
SplineSet
602 304 m 0x0941
 602 185 502 21 336 21 c 0
 330 21 314 18 308 18 c 0x4109
 302 18 258 27 237 33 c 0
 91 71 34 217 34 308 c 0
 34 472 168 588 322 588 c 0
 479 588 602 452 602 304 c 0x0941
508 394 m 1
 496 442 458 461 418 458 c 1
 418 396 l 1
 499 396 l 2
 505 396 505 396 508 394 c 1
333 467 m 1
 457 467 l 1
 416 498 373 512 333 518 c 1
 332 502 330 482 333 467 c 1
495 329 m 1
 534 329 l 1
 529 347 523 367 518 383 c 1
 494 383 l 2
 496 380 493 373 495 329 c 1
410 262 m 1
 539 262 l 1x0941
 539 292 l 2
 539 335 519 310 410 321 c 1
 410 262 l 1
485 332 m 1
 485 388 l 1
 477 384 441 388 326 388 c 1
 328 375 328 360 326 337 c 1
 480 329 l 2
 486 329 485 332 485 332 c 1
407 407 m 2
 407 458 l 1
 237 466 l 1
 239 453 240 432 238 397 c 1x110a
 241 401 l 1
 269 402 320 401 401 396 c 0
 404 399 407 401 407 407 c 2
195 472 m 1
 322 472 l 1x2111
 322 482 322 494 320 518 c 1
 298 518 l 2
 277 518 195 490 195 472 c 1
536 189 m 1
 539 210 539 233 536 251 c 1
 531 248 522 248 488 251 c 1
 488 189 l 1
 495 192 503 191 536 189 c 1
479 253 m 1
 466 251 447 251 402 253 c 1
 413 232 421 210 426 192 c 1
 479 192 l 1
 477 197 478 204 479 253 c 1
231 468 m 1
 220 466 203 469 196 469 c 0
 171 469 144 426 138 406 c 1
 231 406 l 1
 228 410 228 429 231 468 c 1
402 328 m 1
 366 315 341 328 233 328 c 1
 234 326 232 321 233 272 c 1
 243 272 l 1
 262 294 296 298 312 298 c 0x0341
 360 298 376 276 399 264 c 1
 399 267 402 269 402 328 c 1
159 340 m 1
 316 340 l 1x4124
 316 355 319 375 316 393 c 1
 159 393 l 1
 159 378 159 358 159 340 c 1
257 269 m 1
 374 269 l 1x0541
 356 275 337 290 315 290 c 0
 306 290 262 276 257 269 c 1
415 186 m 1
 407 186 395 183 361 186 c 1
 361 173 361 161 359 130 c 1
 377 132 397 130 412 130 c 1
 412 135 412 142 415 186 c 1
364 194 m 1x1141
 412 194 l 1x1141
 412 204 l 2
 413 269 332 259 283 259 c 0
 277 259 250 261 240 258 c 0
 232 256 211 219 211 207 c 0
 211 201 211 202 214 199 c 2
 264 199 l 1
 270 221 301 238 314 238 c 0x8141
 330 238 360 221 364 194 c 1x1141
107 345 m 1
 148 345 l 1
 149 360 151 384 148 396 c 1
 131 396 l 1
 121 383 108 356 107 345 c 1
226 324 m 0
 226 330 220 329 218 331 c 2
 210 331 l 2
 203 331 126 334 120 334 c 0
 101 334 94 317 94 296 c 2x1181
 94 272 l 1
 105 284 163 274 226 273 c 1
 214 286 226 310 226 324 c 0
226 258 m 1
 223 258 219 261 153 258 c 1
 153 202 l 1
 202 202 l 1
 205 222 211 240 226 258 c 1
214 137 m 1
 265 137 l 1
 265 191 l 1
 252 189 237 191 214 191 c 1
 211 173 211 149 214 137 c 1
146 258 m 1
 140 264 l 1
 89 264 l 2
 92 261 89 254 89 202 c 1
 99 205 120 205 145 202 c 1
 142 220 141 243 146 258 c 1
EndSplineSet
EndChar

StartChar: threequarters
Encoding: 190 190 5
Width: 625
Flags: MW
HStem: 18 220<307.5 311> 18 322<305 311> 21 171<333 479> 21 173<364 412 364 419> 21 241<410 419> 21 248<333 374 257 419> 21 277<333 336 304 419> 458 130<245 407 245 418>
VStem: 34 60<272 296 272 390> 34 73<345 345 345 390> 34 125<340 349 349 390> 34 204<262.5 397> 34 292<337 388 337 390> 316 286<340 378 244.5 393 244.5 393> 485 117<332 378 244.5 388 244.5 388> 539 63<262 292 292 313.5>
LayerCount: 2
Back
Fore
SplineSet
602 304 m 0x0941
 602 185 502 21 336 21 c 0
 330 21 314 18 308 18 c 0x4109
 302 18 258 27 237 33 c 0
 91 71 34 217 34 308 c 0
 34 472 168 588 322 588 c 0
 479 588 602 452 602 304 c 0x0941
508 394 m 1
 496 442 458 461 418 458 c 1
 418 396 l 1
 499 396 l 2
 505 396 505 396 508 394 c 1
333 467 m 1
 457 467 l 1
 416 498 373 512 333 518 c 1
 332 502 330 482 333 467 c 1
495 329 m 1
 534 329 l 1
 529 347 523 367 518 383 c 1
 494 383 l 2
 496 380 493 373 495 329 c 1
410 262 m 1
 539 262 l 1x0941
 539 292 l 2
 539 335 519 310 410 321 c 1
 410 262 l 1
485 332 m 1
 485 388 l 1
 477 384 441 388 326 388 c 1
 328 375 328 360 326 337 c 1
 480 329 l 2
 486 329 485 332 485 332 c 1
407 407 m 2
 407 458 l 1
 237 466 l 1
 239 453 240 432 238 397 c 1x110a
 241 401 l 1
 269 402 320 401 401 396 c 0
 404 399 407 401 407 407 c 2
195 472 m 1
 322 472 l 1x2111
 322 482 322 494 320 518 c 1
 298 518 l 2
 277 518 195 490 195 472 c 1
536 189 m 1
 539 210 539 233 536 251 c 1
 531 248 522 248 488 251 c 1
 488 189 l 1
 495 192 503 191 536 189 c 1
479 253 m 1
 466 251 447 251 402 253 c 1
 413 232 421 210 426 192 c 1
 479 192 l 1
 477 197 478 204 479 253 c 1
231 468 m 1
 220 466 203 469 196 469 c 0
 171 469 144 426 138 406 c 1
 231 406 l 1
 228 410 228 429 231 468 c 1
402 328 m 1
 366 315 341 328 233 328 c 1
 234 326 232 321 233 272 c 1
 243 272 l 1
 262 294 296 298 312 298 c 0x0341
 360 298 376 276 399 264 c 1
 399 267 402 269 402 328 c 1
159 340 m 1
 316 340 l 1x4124
 316 355 319 375 316 393 c 1
 159 393 l 1
 159 378 159 358 159 340 c 1
257 269 m 1
 374 269 l 1x0541
 356 275 337 290 315 290 c 0
 306 290 262 276 257 269 c 1
415 186 m 1
 407 186 395 183 361 186 c 1
 361 173 361 161 359 130 c 1
 377 132 397 130 412 130 c 1
 412 135 412 142 415 186 c 1
364 194 m 1x1141
 412 194 l 1x1141
 412 204 l 2
 413 269 332 259 283 259 c 0
 277 259 250 261 240 258 c 0
 232 256 211 219 211 207 c 0
 211 201 211 202 214 199 c 2
 264 199 l 1
 270 221 301 238 314 238 c 0x8141
 330 238 360 221 364 194 c 1x1141
107 345 m 1
 148 345 l 1
 149 360 151 384 148 396 c 1
 131 396 l 1
 121 383 108 356 107 345 c 1
226 324 m 0
 226 330 220 329 218 331 c 2
 210 331 l 2
 203 331 126 334 120 334 c 0
 101 334 94 317 94 296 c 2x1181
 94 272 l 1
 105 284 163 274 226 273 c 1
 214 286 226 310 226 324 c 0
226 258 m 1
 223 258 219 261 153 258 c 1
 153 202 l 1
 202 202 l 1
 205 222 211 240 226 258 c 1
214 137 m 1
 265 137 l 1
 265 191 l 1
 252 189 237 191 214 191 c 1
 211 173 211 149 214 137 c 1
146 258 m 1
 140 264 l 1
 89 264 l 2
 92 261 89 254 89 202 c 1
 99 205 120 205 145 202 c 1
 142 220 141 243 146 258 c 1
EndSplineSet
EndChar

StartChar: threesuperior
Encoding: 179 179 6
Width: 648
Flags: MW
HStem: 21 106 21 140<232 240 256 265 213 316.5 213 321> 21 148<196 316.5 196 321> 21 260<232 301 158 316.5 158 321> 293 19<234 234 234 481> 293 189<241 247 241 481 144 247> 409 65<287 329> 430 181<218 392 281.5 307.5>
VStem: 14 130<236.5 293> 14 181 14 252<236.5 436> 14 287<236.5 281 149 379.5> 14 329<236.5 429> 317 150<156 162.5> 481 134<236.5 293 293 293>
LayerCount: 2
Back
Fore
SplineSet
615 316 m 0x4926
 615 157 484 21 321 21 c 0
 315 21 320 21 313 21 c 0
 151 21 14 171 14 302 c 0
 14 457 131 611 311 611 c 0
 473 611 615 480 615 316 c 0x4926
390 393 m 0
 390 440 353 479 294 487 c 1
 322 507 348 525 374 545 c 0
 372 548 371 552 368 554 c 2
 360 554 l 1
 303 537 226 494 206 472 c 1
 220 469 l 1
 228 474 238 482 244 482 c 0x8986
 250 482 247 480 247 480 c 1
 242 470 232 458 232 452 c 2
 232 443 l 2
 235 443 238 443 241 440 c 1
 247 446 251 454 259 456 c 1
 263 449 266 439 266 433 c 0
 266 426 264 430 261 427 c 0
 247 427 223 430 218 430 c 2x4426
 218 430 201 429 193 421 c 1
 199 415 l 1
 222 411 276 429 255 381 c 1
 266 381 281 379 289 381 c 1
 289 352 l 1
 266 346 254 355 232 334 c 1
 234 312 l 1
 336 310 337 304 390 311 c 1
 390 326 l 2
 390 331 380 339 374 341 c 1
 382 361 390 387 390 393 c 0
144 135 m 1
 481 127 l 1
 481 293 l 1
 144 293 l 1
 144 135 l 1
343 429 m 2
 343 413 l 1x4a0a
 338 410 332 409 326 409 c 0
 290 409 330 430 285 430 c 0x4986
 278 430 282 430 279 428 c 1
 280 435 276 474 298 474 c 0x4a0a
 314 474 343 446 343 429 c 2
467 277 m 1
 467 145 l 1x1a16
 323 145 l 2
 321 148 317 153 317 159 c 0
 317 166 320 173 318 277 c 1
 467 277 l 1
301 281 m 1
 301 149 l 1
 158 149 l 1
 158 281 l 1
 301 281 l 1
460 198 m 0
 460 211 435 216 423 227 c 1
 423 240 l 2
 426 242 426 244 433 244 c 0
 439 244 438 245 440 242 c 1
 438 245 436 249 430 249 c 0
 424 249 418 239 418 233 c 0
 418 204 455 219 455 198 c 0
 455 192 451 192 448 189 c 1
 426 214 426 207 417 207 c 0
 411 207 387 202 374 202 c 1
 378 208 386 228 364 228 c 0
 351 228 354 207 339 190 c 1
 349 188 356 194 364 185 c 1
 361 175 359 164 354 159 c 1
 362 162 375 163 381 163 c 0
 387 163 419 156 425 156 c 0
 430 156 460 187 460 198 c 0
284 260 m 0
 284 267 277 267 274 267 c 0
 269 259 269 250 262 244 c 1
 257 252 253 267 246 269 c 0
 243 267 242 270 242 263 c 0
 242 256 255 241 255 237 c 2
 255 230 l 1
 235 224 191 229 195 188 c 1x4a86
 191 183 183 183 178 181 c 1
 178 173 180 169 180 166 c 1
 193 166 193 169 199 169 c 0
 206 169 207 161 213 161 c 2x2a46
 240 161 l 2
 237 164 232 167 229 170 c 1
 234 178 238 185 243 187 c 1
 248 180 251 168 256 161 c 1
 265 161 l 2
 265 164 260 169 261 172 c 0
 264 184 269 204 269 216 c 1
 273 221 278 222 278 225 c 0
 276 230 272 237 274 242 c 0
 276 247 284 256 284 260 c 0
EndSplineSet
EndChar

StartChar: twosuperior
Encoding: 178 178 7
Width: 625
Flags: MW
HStem: 18 220<307.5 311> 18 322<305 311> 21 171<333 479> 21 173<364 412 364 419> 21 241<410 419> 21 248<333 374 257 419> 21 277<333 336 304 419> 458 130<245 407 245 418>
VStem: 34 60<272 296 272 390> 34 73<345 345 345 390> 34 125<340 349 349 390> 34 204<262.5 397> 34 292<337 388 337 390> 316 286<340 378 244.5 393 244.5 393> 485 117<332 378 244.5 388 244.5 388> 539 63<262 292 292 313.5>
LayerCount: 2
Back
Fore
SplineSet
602 304 m 0x0941
 602 185 502 21 336 21 c 0
 330 21 314 18 308 18 c 0x4109
 302 18 258 27 237 33 c 0
 91 71 34 217 34 308 c 0
 34 472 168 588 322 588 c 0
 479 588 602 452 602 304 c 0x0941
508 394 m 1
 496 442 458 461 418 458 c 1
 418 396 l 1
 499 396 l 2
 505 396 505 396 508 394 c 1
333 467 m 1
 457 467 l 1
 416 498 373 512 333 518 c 1
 332 502 330 482 333 467 c 1
495 329 m 1
 534 329 l 1
 529 347 523 367 518 383 c 1
 494 383 l 2
 496 380 493 373 495 329 c 1
410 262 m 1
 539 262 l 1x0941
 539 292 l 2
 539 335 519 310 410 321 c 1
 410 262 l 1
485 332 m 1
 485 388 l 1
 477 384 441 388 326 388 c 1
 328 375 328 360 326 337 c 1
 480 329 l 2
 486 329 485 332 485 332 c 1
407 407 m 2
 407 458 l 1
 237 466 l 1
 239 453 240 432 238 397 c 1x110a
 241 401 l 1
 269 402 320 401 401 396 c 0
 404 399 407 401 407 407 c 2
195 472 m 1
 322 472 l 1x2111
 322 482 322 494 320 518 c 1
 298 518 l 2
 277 518 195 490 195 472 c 1
536 189 m 1
 539 210 539 233 536 251 c 1
 531 248 522 248 488 251 c 1
 488 189 l 1
 495 192 503 191 536 189 c 1
479 253 m 1
 466 251 447 251 402 253 c 1
 413 232 421 210 426 192 c 1
 479 192 l 1
 477 197 478 204 479 253 c 1
231 468 m 1
 220 466 203 469 196 469 c 0
 171 469 144 426 138 406 c 1
 231 406 l 1
 228 410 228 429 231 468 c 1
402 328 m 1
 366 315 341 328 233 328 c 1
 234 326 232 321 233 272 c 1
 243 272 l 1
 262 294 296 298 312 298 c 0x0341
 360 298 376 276 399 264 c 1
 399 267 402 269 402 328 c 1
159 340 m 1
 316 340 l 1x4124
 316 355 319 375 316 393 c 1
 159 393 l 1
 159 378 159 358 159 340 c 1
257 269 m 1
 374 269 l 1x0541
 356 275 337 290 315 290 c 0
 306 290 262 276 257 269 c 1
415 186 m 1
 407 186 395 183 361 186 c 1
 361 173 361 161 359 130 c 1
 377 132 397 130 412 130 c 1
 412 135 412 142 415 186 c 1
364 194 m 1x1141
 412 194 l 1x1141
 412 204 l 2
 413 269 332 259 283 259 c 0
 277 259 250 261 240 258 c 0
 232 256 211 219 211 207 c 0
 211 201 211 202 214 199 c 2
 264 199 l 1
 270 221 301 238 314 238 c 0x8141
 330 238 360 221 364 194 c 1x1141
107 345 m 1
 148 345 l 1
 149 360 151 384 148 396 c 1
 131 396 l 1
 121 383 108 356 107 345 c 1
226 324 m 0
 226 330 220 329 218 331 c 2
 210 331 l 2
 203 331 126 334 120 334 c 0
 101 334 94 317 94 296 c 2x1181
 94 272 l 1
 105 284 163 274 226 273 c 1
 214 286 226 310 226 324 c 0
226 258 m 1
 223 258 219 261 153 258 c 1
 153 202 l 1
 202 202 l 1
 205 222 211 240 226 258 c 1
214 137 m 1
 265 137 l 1
 265 191 l 1
 252 189 237 191 214 191 c 1
 211 173 211 149 214 137 c 1
146 258 m 1
 140 264 l 1
 89 264 l 2
 92 261 89 254 89 202 c 1
 99 205 120 205 145 202 c 1
 142 220 141 243 146 258 c 1
EndSplineSet
EndChar

StartChar: brokenbar
Encoding: 166 166 8
Width: 625
Flags: MW
HStem: 18 220<307.5 311> 18 322<305 311> 21 171<333 479> 21 173<364 412 364 419> 21 241<410 419> 21 248<333 374 257 419> 21 277<333 336 304 419> 458 130<245 407 245 418>
VStem: 34 60<272 296 272 390> 34 73<345 345 345 390> 34 125<340 349 349 390> 34 204<262.5 397> 34 292<337 388 337 390> 316 286<340 378 244.5 393 244.5 393> 485 117<332 378 244.5 388 244.5 388> 539 63<262 292 292 313.5>
LayerCount: 2
Back
Fore
SplineSet
602 304 m 0x0941
 602 185 502 21 336 21 c 0
 330 21 314 18 308 18 c 0x4109
 302 18 258 27 237 33 c 0
 91 71 34 217 34 308 c 0
 34 472 168 588 322 588 c 0
 479 588 602 452 602 304 c 0x0941
508 394 m 1
 496 442 458 461 418 458 c 1
 418 396 l 1
 499 396 l 2
 505 396 505 396 508 394 c 1
333 467 m 1
 457 467 l 1
 416 498 373 512 333 518 c 1
 332 502 330 482 333 467 c 1
495 329 m 1
 534 329 l 1
 529 347 523 367 518 383 c 1
 494 383 l 2
 496 380 493 373 495 329 c 1
410 262 m 1
 539 262 l 1x0941
 539 292 l 2
 539 335 519 310 410 321 c 1
 410 262 l 1
485 332 m 1
 485 388 l 1
 477 384 441 388 326 388 c 1
 328 375 328 360 326 337 c 1
 480 329 l 2
 486 329 485 332 485 332 c 1
407 407 m 2
 407 458 l 1
 237 466 l 1
 239 453 240 432 238 397 c 1x110a
 241 401 l 1
 269 402 320 401 401 396 c 0
 404 399 407 401 407 407 c 2
195 472 m 1
 322 472 l 1x2111
 322 482 322 494 320 518 c 1
 298 518 l 2
 277 518 195 490 195 472 c 1
536 189 m 1
 539 210 539 233 536 251 c 1
 531 248 522 248 488 251 c 1
 488 189 l 1
 495 192 503 191 536 189 c 1
479 253 m 1
 466 251 447 251 402 253 c 1
 413 232 421 210 426 192 c 1
 479 192 l 1
 477 197 478 204 479 253 c 1
231 468 m 1
 220 466 203 469 196 469 c 0
 171 469 144 426 138 406 c 1
 231 406 l 1
 228 410 228 429 231 468 c 1
402 328 m 1
 366 315 341 328 233 328 c 1
 234 326 232 321 233 272 c 1
 243 272 l 1
 262 294 296 298 312 298 c 0x0341
 360 298 376 276 399 264 c 1
 399 267 402 269 402 328 c 1
159 340 m 1
 316 340 l 1x4124
 316 355 319 375 316 393 c 1
 159 393 l 1
 159 378 159 358 159 340 c 1
257 269 m 1
 374 269 l 1x0541
 356 275 337 290 315 290 c 0
 306 290 262 276 257 269 c 1
415 186 m 1
 407 186 395 183 361 186 c 1
 361 173 361 161 359 130 c 1
 377 132 397 130 412 130 c 1
 412 135 412 142 415 186 c 1
364 194 m 1x1141
 412 194 l 1x1141
 412 204 l 2
 413 269 332 259 283 259 c 0
 277 259 250 261 240 258 c 0
 232 256 211 219 211 207 c 0
 211 201 211 202 214 199 c 2
 264 199 l 1
 270 221 301 238 314 238 c 0x8141
 330 238 360 221 364 194 c 1x1141
107 345 m 1
 148 345 l 1
 149 360 151 384 148 396 c 1
 131 396 l 1
 121 383 108 356 107 345 c 1
226 324 m 0
 226 330 220 329 218 331 c 2
 210 331 l 2
 203 331 126 334 120 334 c 0
 101 334 94 317 94 296 c 2x1181
 94 272 l 1
 105 284 163 274 226 273 c 1
 214 286 226 310 226 324 c 0
226 258 m 1
 223 258 219 261 153 258 c 1
 153 202 l 1
 202 202 l 1
 205 222 211 240 226 258 c 1
214 137 m 1
 265 137 l 1
 265 191 l 1
 252 189 237 191 214 191 c 1
 211 173 211 149 214 137 c 1
146 258 m 1
 140 264 l 1
 89 264 l 2
 92 261 89 254 89 202 c 1
 99 205 120 205 145 202 c 1
 142 220 141 243 146 258 c 1
EndSplineSet
EndChar

StartChar: minus
Encoding: 8722 8722 9
Width: 625
Flags: MW
HStem: 18 220<307.5 311> 18 322<305 311> 21 171<333 479> 21 173<364 412 364 419> 21 241<410 419> 21 248<333 374 257 419> 21 277<333 336 304 419> 458 130<245 407 245 418>
VStem: 34 60<272 296 272 390> 34 73<345 345 345 390> 34 125<340 349 349 390> 34 204<262.5 397> 34 292<337 388 337 390> 316 286<340 378 244.5 393 244.5 393> 485 117<332 378 244.5 388 244.5 388> 539 63<262 292 292 313.5>
LayerCount: 2
Back
Fore
SplineSet
602 304 m 0x0941
 602 185 502 21 336 21 c 0
 330 21 314 18 308 18 c 0x4109
 302 18 258 27 237 33 c 0
 91 71 34 217 34 308 c 0
 34 472 168 588 322 588 c 0
 479 588 602 452 602 304 c 0x0941
508 394 m 1
 496 442 458 461 418 458 c 1
 418 396 l 1
 499 396 l 2
 505 396 505 396 508 394 c 1
333 467 m 1
 457 467 l 1
 416 498 373 512 333 518 c 1
 332 502 330 482 333 467 c 1
495 329 m 1
 534 329 l 1
 529 347 523 367 518 383 c 1
 494 383 l 2
 496 380 493 373 495 329 c 1
410 262 m 1
 539 262 l 1x0941
 539 292 l 2
 539 335 519 310 410 321 c 1
 410 262 l 1
485 332 m 1
 485 388 l 1
 477 384 441 388 326 388 c 1
 328 375 328 360 326 337 c 1
 480 329 l 2
 486 329 485 332 485 332 c 1
407 407 m 2
 407 458 l 1
 237 466 l 1
 239 453 240 432 238 397 c 1x110a
 241 401 l 1
 269 402 320 401 401 396 c 0
 404 399 407 401 407 407 c 2
195 472 m 1
 322 472 l 1x2111
 322 482 322 494 320 518 c 1
 298 518 l 2
 277 518 195 490 195 472 c 1
536 189 m 1
 539 210 539 233 536 251 c 1
 531 248 522 248 488 251 c 1
 488 189 l 1
 495 192 503 191 536 189 c 1
479 253 m 1
 466 251 447 251 402 253 c 1
 413 232 421 210 426 192 c 1
 479 192 l 1
 477 197 478 204 479 253 c 1
231 468 m 1
 220 466 203 469 196 469 c 0
 171 469 144 426 138 406 c 1
 231 406 l 1
 228 410 228 429 231 468 c 1
402 328 m 1
 366 315 341 328 233 328 c 1
 234 326 232 321 233 272 c 1
 243 272 l 1
 262 294 296 298 312 298 c 0x0341
 360 298 376 276 399 264 c 1
 399 267 402 269 402 328 c 1
159 340 m 1
 316 340 l 1x4124
 316 355 319 375 316 393 c 1
 159 393 l 1
 159 378 159 358 159 340 c 1
257 269 m 1
 374 269 l 1x0541
 356 275 337 290 315 290 c 0
 306 290 262 276 257 269 c 1
415 186 m 1
 407 186 395 183 361 186 c 1
 361 173 361 161 359 130 c 1
 377 132 397 130 412 130 c 1
 412 135 412 142 415 186 c 1
364 194 m 1x1141
 412 194 l 1x1141
 412 204 l 2
 413 269 332 259 283 259 c 0
 277 259 250 261 240 258 c 0
 232 256 211 219 211 207 c 0
 211 201 211 202 214 199 c 2
 264 199 l 1
 270 221 301 238 314 238 c 0x8141
 330 238 360 221 364 194 c 1x1141
107 345 m 1
 148 345 l 1
 149 360 151 384 148 396 c 1
 131 396 l 1
 121 383 108 356 107 345 c 1
226 324 m 0
 226 330 220 329 218 331 c 2
 210 331 l 2
 203 331 126 334 120 334 c 0
 101 334 94 317 94 296 c 2x1181
 94 272 l 1
 105 284 163 274 226 273 c 1
 214 286 226 310 226 324 c 0
226 258 m 1
 223 258 219 261 153 258 c 1
 153 202 l 1
 202 202 l 1
 205 222 211 240 226 258 c 1
214 137 m 1
 265 137 l 1
 265 191 l 1
 252 189 237 191 214 191 c 1
 211 173 211 149 214 137 c 1
146 258 m 1
 140 264 l 1
 89 264 l 2
 92 261 89 254 89 202 c 1
 99 205 120 205 145 202 c 1
 142 220 141 243 146 258 c 1
EndSplineSet
EndChar

StartChar: multiply
Encoding: 215 215 10
Width: 625
Flags: MW
HStem: 18 220<307.5 311> 18 322<305 311> 21 171<333 479> 21 173<364 412 364 419> 21 241<410 419> 21 248<333 374 257 419> 21 277<333 336 304 419> 458 130<245 407 245 418>
VStem: 34 60<272 296 272 390> 34 73<345 345 345 390> 34 125<340 349 349 390> 34 204<262.5 397> 34 292<337 388 337 390> 316 286<340 378 244.5 393 244.5 393> 485 117<332 378 244.5 388 244.5 388> 539 63<262 292 292 313.5>
LayerCount: 2
Back
Fore
SplineSet
602 304 m 0x0941
 602 185 502 21 336 21 c 0
 330 21 314 18 308 18 c 0x4109
 302 18 258 27 237 33 c 0
 91 71 34 217 34 308 c 0
 34 472 168 588 322 588 c 0
 479 588 602 452 602 304 c 0x0941
508 394 m 1
 496 442 458 461 418 458 c 1
 418 396 l 1
 499 396 l 2
 505 396 505 396 508 394 c 1
333 467 m 1
 457 467 l 1
 416 498 373 512 333 518 c 1
 332 502 330 482 333 467 c 1
495 329 m 1
 534 329 l 1
 529 347 523 367 518 383 c 1
 494 383 l 2
 496 380 493 373 495 329 c 1
410 262 m 1
 539 262 l 1x0941
 539 292 l 2
 539 335 519 310 410 321 c 1
 410 262 l 1
485 332 m 1
 485 388 l 1
 477 384 441 388 326 388 c 1
 328 375 328 360 326 337 c 1
 480 329 l 2
 486 329 485 332 485 332 c 1
407 407 m 2
 407 458 l 1
 237 466 l 1
 239 453 240 432 238 397 c 1x110a
 241 401 l 1
 269 402 320 401 401 396 c 0
 404 399 407 401 407 407 c 2
195 472 m 1
 322 472 l 1x2111
 322 482 322 494 320 518 c 1
 298 518 l 2
 277 518 195 490 195 472 c 1
536 189 m 1
 539 210 539 233 536 251 c 1
 531 248 522 248 488 251 c 1
 488 189 l 1
 495 192 503 191 536 189 c 1
479 253 m 1
 466 251 447 251 402 253 c 1
 413 232 421 210 426 192 c 1
 479 192 l 1
 477 197 478 204 479 253 c 1
231 468 m 1
 220 466 203 469 196 469 c 0
 171 469 144 426 138 406 c 1
 231 406 l 1
 228 410 228 429 231 468 c 1
402 328 m 1
 366 315 341 328 233 328 c 1
 234 326 232 321 233 272 c 1
 243 272 l 1
 262 294 296 298 312 298 c 0x0341
 360 298 376 276 399 264 c 1
 399 267 402 269 402 328 c 1
159 340 m 1
 316 340 l 1x4124
 316 355 319 375 316 393 c 1
 159 393 l 1
 159 378 159 358 159 340 c 1
257 269 m 1
 374 269 l 1x0541
 356 275 337 290 315 290 c 0
 306 290 262 276 257 269 c 1
415 186 m 1
 407 186 395 183 361 186 c 1
 361 173 361 161 359 130 c 1
 377 132 397 130 412 130 c 1
 412 135 412 142 415 186 c 1
364 194 m 1x1141
 412 194 l 1x1141
 412 204 l 2
 413 269 332 259 283 259 c 0
 277 259 250 261 240 258 c 0
 232 256 211 219 211 207 c 0
 211 201 211 202 214 199 c 2
 264 199 l 1
 270 221 301 238 314 238 c 0x8141
 330 238 360 221 364 194 c 1x1141
107 345 m 1
 148 345 l 1
 149 360 151 384 148 396 c 1
 131 396 l 1
 121 383 108 356 107 345 c 1
226 324 m 0
 226 330 220 329 218 331 c 2
 210 331 l 2
 203 331 126 334 120 334 c 0
 101 334 94 317 94 296 c 2x1181
 94 272 l 1
 105 284 163 274 226 273 c 1
 214 286 226 310 226 324 c 0
226 258 m 1
 223 258 219 261 153 258 c 1
 153 202 l 1
 202 202 l 1
 205 222 211 240 226 258 c 1
214 137 m 1
 265 137 l 1
 265 191 l 1
 252 189 237 191 214 191 c 1
 211 173 211 149 214 137 c 1
146 258 m 1
 140 264 l 1
 89 264 l 2
 92 261 89 254 89 202 c 1
 99 205 120 205 145 202 c 1
 142 220 141 243 146 258 c 1
EndSplineSet
EndChar

StartChar: exclam
Encoding: 33 33 12
Width: 648
Flags: MW
HStem: 21 106 21 140<232 240 256 265 213 316.5 213 321> 21 148<196 316.5 196 321> 21 260<232 301 158 316.5 158 321> 293 19<234 234 234 481> 293 189<241 247 241 481 144 247> 409 65<287 329> 430 181<218 392 281.5 307.5>
VStem: 14 130<236.5 293> 14 181 14 252<236.5 436> 14 287<236.5 281 149 379.5> 14 329<236.5 429> 317 150<156 162.5> 481 134<236.5 293 293 293>
LayerCount: 2
Back
Fore
SplineSet
615 316 m 0x4926
 615 157 484 21 321 21 c 0
 315 21 320 21 313 21 c 0
 151 21 14 171 14 302 c 0
 14 457 131 611 311 611 c 0
 473 611 615 480 615 316 c 0x4926
390 393 m 0
 390 440 353 479 294 487 c 1
 322 507 348 525 374 545 c 0
 372 548 371 552 368 554 c 2
 360 554 l 1
 303 537 226 494 206 472 c 1
 220 469 l 1
 228 474 238 482 244 482 c 0x8986
 250 482 247 480 247 480 c 1
 242 470 232 458 232 452 c 2
 232 443 l 2
 235 443 238 443 241 440 c 1
 247 446 251 454 259 456 c 1
 263 449 266 439 266 433 c 0
 266 426 264 430 261 427 c 0
 247 427 223 430 218 430 c 2x4426
 218 430 201 429 193 421 c 1
 199 415 l 1
 222 411 276 429 255 381 c 1
 266 381 281 379 289 381 c 1
 289 352 l 1
 266 346 254 355 232 334 c 1
 234 312 l 1
 336 310 337 304 390 311 c 1
 390 326 l 2
 390 331 380 339 374 341 c 1
 382 361 390 387 390 393 c 0
144 135 m 1
 481 127 l 1
 481 293 l 1
 144 293 l 1
 144 135 l 1
343 429 m 2
 343 413 l 1x4a0a
 338 410 332 409 326 409 c 0
 290 409 330 430 285 430 c 0x4986
 278 430 282 430 279 428 c 1
 280 435 276 474 298 474 c 0x4a0a
 314 474 343 446 343 429 c 2
467 277 m 1
 467 145 l 1x1a16
 323 145 l 2
 321 148 317 153 317 159 c 0
 317 166 320 173 318 277 c 1
 467 277 l 1
301 281 m 1
 301 149 l 1
 158 149 l 1
 158 281 l 1
 301 281 l 1
460 198 m 0
 460 211 435 216 423 227 c 1
 423 240 l 2
 426 242 426 244 433 244 c 0
 439 244 438 245 440 242 c 1
 438 245 436 249 430 249 c 0
 424 249 418 239 418 233 c 0
 418 204 455 219 455 198 c 0
 455 192 451 192 448 189 c 1
 426 214 426 207 417 207 c 0
 411 207 387 202 374 202 c 1
 378 208 386 228 364 228 c 0
 351 228 354 207 339 190 c 1
 349 188 356 194 364 185 c 1
 361 175 359 164 354 159 c 1
 362 162 375 163 381 163 c 0
 387 163 419 156 425 156 c 0
 430 156 460 187 460 198 c 0
284 260 m 0
 284 267 277 267 274 267 c 0
 269 259 269 250 262 244 c 1
 257 252 253 267 246 269 c 0
 243 267 242 270 242 263 c 0
 242 256 255 241 255 237 c 2
 255 230 l 1
 235 224 191 229 195 188 c 1x4a86
 191 183 183 183 178 181 c 1
 178 173 180 169 180 166 c 1
 193 166 193 169 199 169 c 0
 206 169 207 161 213 161 c 2x2a46
 240 161 l 2
 237 164 232 167 229 170 c 1
 234 178 238 185 243 187 c 1
 248 180 251 168 256 161 c 1
 265 161 l 2
 265 164 260 169 261 172 c 0
 264 184 269 204 269 216 c 1
 273 221 278 222 278 225 c 0
 276 230 272 237 274 242 c 0
 276 247 284 256 284 260 c 0
EndSplineSet
EndChar

StartChar: quotedbl
Encoding: 34 34 13
Width: 625
Flags: MW
HStem: 18 220<307.5 311> 18 322<305 311> 21 171<333 479> 21 173<364 412 364 419> 21 241<410 419> 21 248<333 374 257 419> 21 277<333 336 304 419> 458 130<245 407 245 418>
VStem: 34 60<272 296 272 390> 34 73<345 345 345 390> 34 125<340 349 349 390> 34 204<262.5 397> 34 292<337 388 337 390> 316 286<340 378 244.5 393 244.5 393> 485 117<332 378 244.5 388 244.5 388> 539 63<262 292 292 313.5>
LayerCount: 2
Back
Fore
SplineSet
602 304 m 0x0941
 602 185 502 21 336 21 c 0
 330 21 314 18 308 18 c 0x4109
 302 18 258 27 237 33 c 0
 91 71 34 217 34 308 c 0
 34 472 168 588 322 588 c 0
 479 588 602 452 602 304 c 0x0941
508 394 m 1
 496 442 458 461 418 458 c 1
 418 396 l 1
 499 396 l 2
 505 396 505 396 508 394 c 1
333 467 m 1
 457 467 l 1
 416 498 373 512 333 518 c 1
 332 502 330 482 333 467 c 1
495 329 m 1
 534 329 l 1
 529 347 523 367 518 383 c 1
 494 383 l 2
 496 380 493 373 495 329 c 1
410 262 m 1
 539 262 l 1x0941
 539 292 l 2
 539 335 519 310 410 321 c 1
 410 262 l 1
485 332 m 1
 485 388 l 1
 477 384 441 388 326 388 c 1
 328 375 328 360 326 337 c 1
 480 329 l 2
 486 329 485 332 485 332 c 1
407 407 m 2
 407 458 l 1
 237 466 l 1
 239 453 240 432 238 397 c 1x110a
 241 401 l 1
 269 402 320 401 401 396 c 0
 404 399 407 401 407 407 c 2
195 472 m 1
 322 472 l 1x2111
 322 482 322 494 320 518 c 1
 298 518 l 2
 277 518 195 490 195 472 c 1
536 189 m 1
 539 210 539 233 536 251 c 1
 531 248 522 248 488 251 c 1
 488 189 l 1
 495 192 503 191 536 189 c 1
479 253 m 1
 466 251 447 251 402 253 c 1
 413 232 421 210 426 192 c 1
 479 192 l 1
 477 197 478 204 479 253 c 1
231 468 m 1
 220 466 203 469 196 469 c 0
 171 469 144 426 138 406 c 1
 231 406 l 1
 228 410 228 429 231 468 c 1
402 328 m 1
 366 315 341 328 233 328 c 1
 234 326 232 321 233 272 c 1
 243 272 l 1
 262 294 296 298 312 298 c 0x0341
 360 298 376 276 399 264 c 1
 399 267 402 269 402 328 c 1
159 340 m 1
 316 340 l 1x4124
 316 355 319 375 316 393 c 1
 159 393 l 1
 159 378 159 358 159 340 c 1
257 269 m 1
 374 269 l 1x0541
 356 275 337 290 315 290 c 0
 306 290 262 276 257 269 c 1
415 186 m 1
 407 186 395 183 361 186 c 1
 361 173 361 161 359 130 c 1
 377 132 397 130 412 130 c 1
 412 135 412 142 415 186 c 1
364 194 m 1x1141
 412 194 l 1x1141
 412 204 l 2
 413 269 332 259 283 259 c 0
 277 259 250 261 240 258 c 0
 232 256 211 219 211 207 c 0
 211 201 211 202 214 199 c 2
 264 199 l 1
 270 221 301 238 314 238 c 0x8141
 330 238 360 221 364 194 c 1x1141
107 345 m 1
 148 345 l 1
 149 360 151 384 148 396 c 1
 131 396 l 1
 121 383 108 356 107 345 c 1
226 324 m 0
 226 330 220 329 218 331 c 2
 210 331 l 2
 203 331 126 334 120 334 c 0
 101 334 94 317 94 296 c 2x1181
 94 272 l 1
 105 284 163 274 226 273 c 1
 214 286 226 310 226 324 c 0
226 258 m 1
 223 258 219 261 153 258 c 1
 153 202 l 1
 202 202 l 1
 205 222 211 240 226 258 c 1
214 137 m 1
 265 137 l 1
 265 191 l 1
 252 189 237 191 214 191 c 1
 211 173 211 149 214 137 c 1
146 258 m 1
 140 264 l 1
 89 264 l 2
 92 261 89 254 89 202 c 1
 99 205 120 205 145 202 c 1
 142 220 141 243 146 258 c 1
EndSplineSet
EndChar

StartChar: numbersign
Encoding: 35 35 14
Width: 628
Flags: MW
HStem: 18 101<387.5 391> 18 109<241 267 211 391> 18 161<241 484> 18 169<241 270 195.5 391> 18 207<307 313 307 391> 18 236<255 384 255 391> 18 241<94 391> 18 272<327 327 327 391>
VStem: 29 62<266 291 266 379.5> 29 184<189.5 379.5> 29 298<290 310 290 379.5> 29 311<215 431> 319 99<296 305 249 315 249 315> 484 130<211.5 240 240 240> 534 80<313 313> 547 67<249 279 279 281.5>
LayerCount: 2
Back
Fore
SplineSet
614 296 m 0x204a
 614 127 463 18 319 18 c 0
 163 18 29 134 29 296 c 0
 29 463 175 570 321 570 c 0
 462 570 614 461 614 296 c 0x204a
418 249 m 1
 547 249 l 1x2089
 547 279 l 2
 547 284 541 298 539 305 c 1
 503 306 454 310 418 305 c 1
 418 249 l 1
544 179 m 1
 544 197 547 220 544 238 c 1
 527 238 511 237 496 238 c 1
 493 179 l 1
 509 176 529 176 544 179 c 1
534 313 m 1
 532 367 447 442 396 455 c 0
 370 461 325 466 319 466 c 0
 313 466 279 463 263 460 c 0
 208 448 131 395 107 330 c 1
 110 324 l 1
 304 324 l 1
 285 334 259 345 246 368 c 1
 242 365 l 2
 234 357 226 355 221 355 c 0
 213 355 195 357 195 379 c 0
 195 383 200 406 217 406 c 0
 223 406 233 405 237 401 c 0
 240 397 246 391 248 388 c 1
 252 395 263 405 269 408 c 0
 290 419 324 438 330 438 c 0
 337 438 338 434 340 431 c 2x108a
 340 418 l 1
 332 414 325 407 317 402 c 1
 356 407 425 412 432 412 c 0
 437 412 442 412 444 411 c 0
 447 409 451 405 454 402 c 2
 454 393 l 1
 426 379 397 378 368 374 c 1
 392 369 419 365 442 359 c 0
 449 357 451 351 451 346 c 0
 451 335 447 331 432 331 c 0
 425 331 350 343 314 349 c 1
 322 344 333 329 335 321 c 1
 528 316 l 2
 534 316 534 313 534 313 c 1
436 179 m 1
 484 179 l 1x208c
 484 240 l 1
 461 240 436 243 415 240 c 1
 428 222 431 195 436 179 c 1
407 254 m 1x0422
 407 310 l 1
 327 310 l 1
 327 290 l 1x0122
 357 288 387 271 407 254 c 1x0422
255 254 m 1
 384 254 l 1x048a
 374 262 360 271 349 273 c 0
 341 276 323 277 318 277 c 0
 311 277 304 277 299 276 c 0
 285 272 262 265 255 254 c 1
319 296 m 1
 319 315 l 1
 264 313 242 315 237 315 c 1
 237 294 235 274 237 264 c 1
 260 281 305 289 319 296 c 1
417 125 m 1
 416 169 l 1
 407 168 395 168 364 170 c 1
 364 158 363 145 361 122 c 1
 371 120 385 119 390 119 c 0x804a
 396 119 410 120 417 125 c 1
420 190 m 0
 420 197 410 222 404 235 c 0
 402 238 399 241 396 242 c 0
 340 246 269 249 264 249 c 0
 234 249 213 217 213 193 c 0
 213 186 216 187 216 187 c 1x208a
 270 187 l 1
 270 201 292 220 303 222 c 0
 305 223 304 225 310 225 c 0x088a
 316 225 326 223 333 222 c 0
 347 220 368 195 366 182 c 1
 382 182 407 181 417 179 c 1x108a
 417 181 420 184 420 190 c 0
94 259 m 1
 226 259 l 1x028a
 226 277 228 297 226 316 c 1
 134 318 l 2
 100 318 91 313 91 269 c 0
 91 263 92 264 94 259 c 1
223 248 m 1
 215 248 206 248 151 251 c 1
 154 241 154 216 151 187 c 1x108a
 162 189 182 186 187 186 c 0
 194 186 194 187 197 187 c 0
 204 207 214 233 223 248 c 1
267 127 m 1
 267 175 l 1
 257 173 244 175 211 175 c 1
 213 173 211 166 211 127 c 1
 229 127 249 127 267 127 c 1
145 189 m 1
 143 205 142 222 145 253 c 1
 142 251 136 253 89 253 c 1
 92 243 92 231 89 189 c 1
 97 192 113 192 145 189 c 1
EndSplineSet
EndChar

StartChar: dollar
Encoding: 36 36 15
Width: 625
Flags: MW
HStem: 18 220<307.5 311> 18 322<305 311> 21 171<333 479> 21 173<364 412 364 419> 21 241<410 419> 21 248<333 374 257 419> 21 277<333 336 304 419> 458 130<245 407 245 418>
VStem: 34 60<272 296 272 390> 34 73<345 345 345 390> 34 125<340 349 349 390> 34 204<262.5 397> 34 292<337 388 337 390> 316 286<340 378 244.5 393 244.5 393> 485 117<332 378 244.5 388 244.5 388> 539 63<262 292 292 313.5>
LayerCount: 2
Back
Fore
SplineSet
602 304 m 0x0941
 602 185 502 21 336 21 c 0
 330 21 314 18 308 18 c 0x4109
 302 18 258 27 237 33 c 0
 91 71 34 217 34 308 c 0
 34 472 168 588 322 588 c 0
 479 588 602 452 602 304 c 0x0941
508 394 m 1
 496 442 458 461 418 458 c 1
 418 396 l 1
 499 396 l 2
 505 396 505 396 508 394 c 1
333 467 m 1
 457 467 l 1
 416 498 373 512 333 518 c 1
 332 502 330 482 333 467 c 1
495 329 m 1
 534 329 l 1
 529 347 523 367 518 383 c 1
 494 383 l 2
 496 380 493 373 495 329 c 1
410 262 m 1
 539 262 l 1x0941
 539 292 l 2
 539 335 519 310 410 321 c 1
 410 262 l 1
485 332 m 1
 485 388 l 1
 477 384 441 388 326 388 c 1
 328 375 328 360 326 337 c 1
 480 329 l 2
 486 329 485 332 485 332 c 1
407 407 m 2
 407 458 l 1
 237 466 l 1
 239 453 240 432 238 397 c 1x110a
 241 401 l 1
 269 402 320 401 401 396 c 0
 404 399 407 401 407 407 c 2
195 472 m 1
 322 472 l 1x2111
 322 482 322 494 320 518 c 1
 298 518 l 2
 277 518 195 490 195 472 c 1
536 189 m 1
 539 210 539 233 536 251 c 1
 531 248 522 248 488 251 c 1
 488 189 l 1
 495 192 503 191 536 189 c 1
479 253 m 1
 466 251 447 251 402 253 c 1
 413 232 421 210 426 192 c 1
 479 192 l 1
 477 197 478 204 479 253 c 1
231 468 m 1
 220 466 203 469 196 469 c 0
 171 469 144 426 138 406 c 1
 231 406 l 1
 228 410 228 429 231 468 c 1
402 328 m 1
 366 315 341 328 233 328 c 1
 234 326 232 321 233 272 c 1
 243 272 l 1
 262 294 296 298 312 298 c 0x0341
 360 298 376 276 399 264 c 1
 399 267 402 269 402 328 c 1
159 340 m 1
 316 340 l 1x4124
 316 355 319 375 316 393 c 1
 159 393 l 1
 159 378 159 358 159 340 c 1
257 269 m 1
 374 269 l 1x0541
 356 275 337 290 315 290 c 0
 306 290 262 276 257 269 c 1
415 186 m 1
 407 186 395 183 361 186 c 1
 361 173 361 161 359 130 c 1
 377 132 397 130 412 130 c 1
 412 135 412 142 415 186 c 1
364 194 m 1x1141
 412 194 l 1x1141
 412 204 l 2
 413 269 332 259 283 259 c 0
 277 259 250 261 240 258 c 0
 232 256 211 219 211 207 c 0
 211 201 211 202 214 199 c 2
 264 199 l 1
 270 221 301 238 314 238 c 0x8141
 330 238 360 221 364 194 c 1x1141
107 345 m 1
 148 345 l 1
 149 360 151 384 148 396 c 1
 131 396 l 1
 121 383 108 356 107 345 c 1
226 324 m 0
 226 330 220 329 218 331 c 2
 210 331 l 2
 203 331 126 334 120 334 c 0
 101 334 94 317 94 296 c 2x1181
 94 272 l 1
 105 284 163 274 226 273 c 1
 214 286 226 310 226 324 c 0
226 258 m 1
 223 258 219 261 153 258 c 1
 153 202 l 1
 202 202 l 1
 205 222 211 240 226 258 c 1
214 137 m 1
 265 137 l 1
 265 191 l 1
 252 189 237 191 214 191 c 1
 211 173 211 149 214 137 c 1
146 258 m 1
 140 264 l 1
 89 264 l 2
 92 261 89 254 89 202 c 1
 99 205 120 205 145 202 c 1
 142 220 141 243 146 258 c 1
EndSplineSet
EndChar

StartChar: percent
Encoding: 37 37 16
Width: 648
Flags: MW
HStem: 21 106 21 140<232 240 256 265 213 316.5 213 321> 21 148<196 316.5 196 321> 21 260<232 301 158 316.5 158 321> 293 19<234 234 234 481> 293 189<241 247 241 481 144 247> 409 65<287 329> 430 181<218 392 281.5 307.5>
VStem: 14 130<236.5 293> 14 181 14 252<236.5 436> 14 287<236.5 281 149 379.5> 14 329<236.5 429> 317 150<156 162.5> 481 134<236.5 293 293 293>
LayerCount: 2
Back
Fore
SplineSet
615 316 m 0x4926
 615 157 484 21 321 21 c 0
 315 21 320 21 313 21 c 0
 151 21 14 171 14 302 c 0
 14 457 131 611 311 611 c 0
 473 611 615 480 615 316 c 0x4926
390 393 m 0
 390 440 353 479 294 487 c 1
 322 507 348 525 374 545 c 0
 372 548 371 552 368 554 c 2
 360 554 l 1
 303 537 226 494 206 472 c 1
 220 469 l 1
 228 474 238 482 244 482 c 0x8986
 250 482 247 480 247 480 c 1
 242 470 232 458 232 452 c 2
 232 443 l 2
 235 443 238 443 241 440 c 1
 247 446 251 454 259 456 c 1
 263 449 266 439 266 433 c 0
 266 426 264 430 261 427 c 0
 247 427 223 430 218 430 c 2x4426
 218 430 201 429 193 421 c 1
 199 415 l 1
 222 411 276 429 255 381 c 1
 266 381 281 379 289 381 c 1
 289 352 l 1
 266 346 254 355 232 334 c 1
 234 312 l 1
 336 310 337 304 390 311 c 1
 390 326 l 2
 390 331 380 339 374 341 c 1
 382 361 390 387 390 393 c 0
144 135 m 1
 481 127 l 1
 481 293 l 1
 144 293 l 1
 144 135 l 1
343 429 m 2
 343 413 l 1x4a0a
 338 410 332 409 326 409 c 0
 290 409 330 430 285 430 c 0x4986
 278 430 282 430 279 428 c 1
 280 435 276 474 298 474 c 0x4a0a
 314 474 343 446 343 429 c 2
467 277 m 1
 467 145 l 1x1a16
 323 145 l 2
 321 148 317 153 317 159 c 0
 317 166 320 173 318 277 c 1
 467 277 l 1
301 281 m 1
 301 149 l 1
 158 149 l 1
 158 281 l 1
 301 281 l 1
460 198 m 0
 460 211 435 216 423 227 c 1
 423 240 l 2
 426 242 426 244 433 244 c 0
 439 244 438 245 440 242 c 1
 438 245 436 249 430 249 c 0
 424 249 418 239 418 233 c 0
 418 204 455 219 455 198 c 0
 455 192 451 192 448 189 c 1
 426 214 426 207 417 207 c 0
 411 207 387 202 374 202 c 1
 378 208 386 228 364 228 c 0
 351 228 354 207 339 190 c 1
 349 188 356 194 364 185 c 1
 361 175 359 164 354 159 c 1
 362 162 375 163 381 163 c 0
 387 163 419 156 425 156 c 0
 430 156 460 187 460 198 c 0
284 260 m 0
 284 267 277 267 274 267 c 0
 269 259 269 250 262 244 c 1
 257 252 253 267 246 269 c 0
 243 267 242 270 242 263 c 0
 242 256 255 241 255 237 c 2
 255 230 l 1
 235 224 191 229 195 188 c 1x4a86
 191 183 183 183 178 181 c 1
 178 173 180 169 180 166 c 1
 193 166 193 169 199 169 c 0
 206 169 207 161 213 161 c 2x2a46
 240 161 l 2
 237 164 232 167 229 170 c 1
 234 178 238 185 243 187 c 1
 248 180 251 168 256 161 c 1
 265 161 l 2
 265 164 260 169 261 172 c 0
 264 184 269 204 269 216 c 1
 273 221 278 222 278 225 c 0
 276 230 272 237 274 242 c 0
 276 247 284 256 284 260 c 0
EndSplineSet
EndChar

StartChar: ampersand
Encoding: 38 38 17
Width: 628
Flags: MW
HStem: 18 101<387.5 391> 18 109<241 267 211 391> 18 161<241 484> 18 169<241 270 195.5 391> 18 207<307 313 307 391> 18 236<255 384 255 391> 18 241<94 391> 18 272<327 327 327 391>
VStem: 29 62<266 291 266 379.5> 29 184<189.5 379.5> 29 298<290 310 290 379.5> 29 311<215 431> 319 99<296 305 249 315 249 315> 484 130<211.5 240 240 240> 534 80<313 313> 547 67<249 279 279 281.5>
LayerCount: 2
Back
Fore
SplineSet
614 296 m 0x204a
 614 127 463 18 319 18 c 0
 163 18 29 134 29 296 c 0
 29 463 175 570 321 570 c 0
 462 570 614 461 614 296 c 0x204a
418 249 m 1
 547 249 l 1x2089
 547 279 l 2
 547 284 541 298 539 305 c 1
 503 306 454 310 418 305 c 1
 418 249 l 1
544 179 m 1
 544 197 547 220 544 238 c 1
 527 238 511 237 496 238 c 1
 493 179 l 1
 509 176 529 176 544 179 c 1
534 313 m 1
 532 367 447 442 396 455 c 0
 370 461 325 466 319 466 c 0
 313 466 279 463 263 460 c 0
 208 448 131 395 107 330 c 1
 110 324 l 1
 304 324 l 1
 285 334 259 345 246 368 c 1
 242 365 l 2
 234 357 226 355 221 355 c 0
 213 355 195 357 195 379 c 0
 195 383 200 406 217 406 c 0
 223 406 233 405 237 401 c 0
 240 397 246 391 248 388 c 1
 252 395 263 405 269 408 c 0
 290 419 324 438 330 438 c 0
 337 438 338 434 340 431 c 2x108a
 340 418 l 1
 332 414 325 407 317 402 c 1
 356 407 425 412 432 412 c 0
 437 412 442 412 444 411 c 0
 447 409 451 405 454 402 c 2
 454 393 l 1
 426 379 397 378 368 374 c 1
 392 369 419 365 442 359 c 0
 449 357 451 351 451 346 c 0
 451 335 447 331 432 331 c 0
 425 331 350 343 314 349 c 1
 322 344 333 329 335 321 c 1
 528 316 l 2
 534 316 534 313 534 313 c 1
436 179 m 1
 484 179 l 1x208c
 484 240 l 1
 461 240 436 243 415 240 c 1
 428 222 431 195 436 179 c 1
407 254 m 1x0422
 407 310 l 1
 327 310 l 1
 327 290 l 1x0122
 357 288 387 271 407 254 c 1x0422
255 254 m 1
 384 254 l 1x048a
 374 262 360 271 349 273 c 0
 341 276 323 277 318 277 c 0
 311 277 304 277 299 276 c 0
 285 272 262 265 255 254 c 1
319 296 m 1
 319 315 l 1
 264 313 242 315 237 315 c 1
 237 294 235 274 237 264 c 1
 260 281 305 289 319 296 c 1
417 125 m 1
 416 169 l 1
 407 168 395 168 364 170 c 1
 364 158 363 145 361 122 c 1
 371 120 385 119 390 119 c 0x804a
 396 119 410 120 417 125 c 1
420 190 m 0
 420 197 410 222 404 235 c 0
 402 238 399 241 396 242 c 0
 340 246 269 249 264 249 c 0
 234 249 213 217 213 193 c 0
 213 186 216 187 216 187 c 1x208a
 270 187 l 1
 270 201 292 220 303 222 c 0
 305 223 304 225 310 225 c 0x088a
 316 225 326 223 333 222 c 0
 347 220 368 195 366 182 c 1
 382 182 407 181 417 179 c 1x108a
 417 181 420 184 420 190 c 0
94 259 m 1
 226 259 l 1x028a
 226 277 228 297 226 316 c 1
 134 318 l 2
 100 318 91 313 91 269 c 0
 91 263 92 264 94 259 c 1
223 248 m 1
 215 248 206 248 151 251 c 1
 154 241 154 216 151 187 c 1x108a
 162 189 182 186 187 186 c 0
 194 186 194 187 197 187 c 0
 204 207 214 233 223 248 c 1
267 127 m 1
 267 175 l 1
 257 173 244 175 211 175 c 1
 213 173 211 166 211 127 c 1
 229 127 249 127 267 127 c 1
145 189 m 1
 143 205 142 222 145 253 c 1
 142 251 136 253 89 253 c 1
 92 243 92 231 89 189 c 1
 97 192 113 192 145 189 c 1
EndSplineSet
EndChar

StartChar: quotesingle
Encoding: 39 39 18
Width: 648
Flags: MW
HStem: 21 106 21 140<232 240 256 265 213 316.5 213 321> 21 148<196 316.5 196 321> 21 260<232 301 158 316.5 158 321> 293 19<234 234 234 481> 293 189<241 247 241 481 144 247> 409 65<287 329> 430 181<218 392 281.5 307.5>
VStem: 14 130<236.5 293> 14 181 14 252<236.5 436> 14 287<236.5 281 149 379.5> 14 329<236.5 429> 317 150<156 162.5> 481 134<236.5 293 293 293>
LayerCount: 2
Back
Fore
SplineSet
615 316 m 0x4926
 615 157 484 21 321 21 c 0
 315 21 320 21 313 21 c 0
 151 21 14 171 14 302 c 0
 14 457 131 611 311 611 c 0
 473 611 615 480 615 316 c 0x4926
390 393 m 0
 390 440 353 479 294 487 c 1
 322 507 348 525 374 545 c 0
 372 548 371 552 368 554 c 2
 360 554 l 1
 303 537 226 494 206 472 c 1
 220 469 l 1
 228 474 238 482 244 482 c 0x8986
 250 482 247 480 247 480 c 1
 242 470 232 458 232 452 c 2
 232 443 l 2
 235 443 238 443 241 440 c 1
 247 446 251 454 259 456 c 1
 263 449 266 439 266 433 c 0
 266 426 264 430 261 427 c 0
 247 427 223 430 218 430 c 2x4426
 218 430 201 429 193 421 c 1
 199 415 l 1
 222 411 276 429 255 381 c 1
 266 381 281 379 289 381 c 1
 289 352 l 1
 266 346 254 355 232 334 c 1
 234 312 l 1
 336 310 337 304 390 311 c 1
 390 326 l 2
 390 331 380 339 374 341 c 1
 382 361 390 387 390 393 c 0
144 135 m 1
 481 127 l 1
 481 293 l 1
 144 293 l 1
 144 135 l 1
343 429 m 2
 343 413 l 1x4a0a
 338 410 332 409 326 409 c 0
 290 409 330 430 285 430 c 0x4986
 278 430 282 430 279 428 c 1
 280 435 276 474 298 474 c 0x4a0a
 314 474 343 446 343 429 c 2
467 277 m 1
 467 145 l 1x1a16
 323 145 l 2
 321 148 317 153 317 159 c 0
 317 166 320 173 318 277 c 1
 467 277 l 1
301 281 m 1
 301 149 l 1
 158 149 l 1
 158 281 l 1
 301 281 l 1
460 198 m 0
 460 211 435 216 423 227 c 1
 423 240 l 2
 426 242 426 244 433 244 c 0
 439 244 438 245 440 242 c 1
 438 245 436 249 430 249 c 0
 424 249 418 239 418 233 c 0
 418 204 455 219 455 198 c 0
 455 192 451 192 448 189 c 1
 426 214 426 207 417 207 c 0
 411 207 387 202 374 202 c 1
 378 208 386 228 364 228 c 0
 351 228 354 207 339 190 c 1
 349 188 356 194 364 185 c 1
 361 175 359 164 354 159 c 1
 362 162 375 163 381 163 c 0
 387 163 419 156 425 156 c 0
 430 156 460 187 460 198 c 0
284 260 m 0
 284 267 277 267 274 267 c 0
 269 259 269 250 262 244 c 1
 257 252 253 267 246 269 c 0
 243 267 242 270 242 263 c 0
 242 256 255 241 255 237 c 2
 255 230 l 1
 235 224 191 229 195 188 c 1x4a86
 191 183 183 183 178 181 c 1
 178 173 180 169 180 166 c 1
 193 166 193 169 199 169 c 0
 206 169 207 161 213 161 c 2x2a46
 240 161 l 2
 237 164 232 167 229 170 c 1
 234 178 238 185 243 187 c 1
 248 180 251 168 256 161 c 1
 265 161 l 2
 265 164 260 169 261 172 c 0
 264 184 269 204 269 216 c 1
 273 221 278 222 278 225 c 0
 276 230 272 237 274 242 c 0
 276 247 284 256 284 260 c 0
EndSplineSet
EndChar

StartChar: parenleft
Encoding: 40 40 19
Width: 628
Flags: MW
HStem: 18 101<387.5 391> 18 109<241 267 211 391> 18 161<241 484> 18 169<241 270 195.5 391> 18 207<307 313 307 391> 18 236<255 384 255 391> 18 241<94 391> 18 272<327 327 327 391>
VStem: 29 62<266 291 266 379.5> 29 184<189.5 379.5> 29 298<290 310 290 379.5> 29 311<215 431> 319 99<296 305 249 315 249 315> 484 130<211.5 240 240 240> 534 80<313 313> 547 67<249 279 279 281.5>
LayerCount: 2
Back
Fore
SplineSet
614 296 m 0x204a
 614 127 463 18 319 18 c 0
 163 18 29 134 29 296 c 0
 29 463 175 570 321 570 c 0
 462 570 614 461 614 296 c 0x204a
418 249 m 1
 547 249 l 1x2089
 547 279 l 2
 547 284 541 298 539 305 c 1
 503 306 454 310 418 305 c 1
 418 249 l 1
544 179 m 1
 544 197 547 220 544 238 c 1
 527 238 511 237 496 238 c 1
 493 179 l 1
 509 176 529 176 544 179 c 1
534 313 m 1
 532 367 447 442 396 455 c 0
 370 461 325 466 319 466 c 0
 313 466 279 463 263 460 c 0
 208 448 131 395 107 330 c 1
 110 324 l 1
 304 324 l 1
 285 334 259 345 246 368 c 1
 242 365 l 2
 234 357 226 355 221 355 c 0
 213 355 195 357 195 379 c 0
 195 383 200 406 217 406 c 0
 223 406 233 405 237 401 c 0
 240 397 246 391 248 388 c 1
 252 395 263 405 269 408 c 0
 290 419 324 438 330 438 c 0
 337 438 338 434 340 431 c 2x108a
 340 418 l 1
 332 414 325 407 317 402 c 1
 356 407 425 412 432 412 c 0
 437 412 442 412 444 411 c 0
 447 409 451 405 454 402 c 2
 454 393 l 1
 426 379 397 378 368 374 c 1
 392 369 419 365 442 359 c 0
 449 357 451 351 451 346 c 0
 451 335 447 331 432 331 c 0
 425 331 350 343 314 349 c 1
 322 344 333 329 335 321 c 1
 528 316 l 2
 534 316 534 313 534 313 c 1
436 179 m 1
 484 179 l 1x208c
 484 240 l 1
 461 240 436 243 415 240 c 1
 428 222 431 195 436 179 c 1
407 254 m 1x0422
 407 310 l 1
 327 310 l 1
 327 290 l 1x0122
 357 288 387 271 407 254 c 1x0422
255 254 m 1
 384 254 l 1x048a
 374 262 360 271 349 273 c 0
 341 276 323 277 318 277 c 0
 311 277 304 277 299 276 c 0
 285 272 262 265 255 254 c 1
319 296 m 1
 319 315 l 1
 264 313 242 315 237 315 c 1
 237 294 235 274 237 264 c 1
 260 281 305 289 319 296 c 1
417 125 m 1
 416 169 l 1
 407 168 395 168 364 170 c 1
 364 158 363 145 361 122 c 1
 371 120 385 119 390 119 c 0x804a
 396 119 410 120 417 125 c 1
420 190 m 0
 420 197 410 222 404 235 c 0
 402 238 399 241 396 242 c 0
 340 246 269 249 264 249 c 0
 234 249 213 217 213 193 c 0
 213 186 216 187 216 187 c 1x208a
 270 187 l 1
 270 201 292 220 303 222 c 0
 305 223 304 225 310 225 c 0x088a
 316 225 326 223 333 222 c 0
 347 220 368 195 366 182 c 1
 382 182 407 181 417 179 c 1x108a
 417 181 420 184 420 190 c 0
94 259 m 1
 226 259 l 1x028a
 226 277 228 297 226 316 c 1
 134 318 l 2
 100 318 91 313 91 269 c 0
 91 263 92 264 94 259 c 1
223 248 m 1
 215 248 206 248 151 251 c 1
 154 241 154 216 151 187 c 1x108a
 162 189 182 186 187 186 c 0
 194 186 194 187 197 187 c 0
 204 207 214 233 223 248 c 1
267 127 m 1
 267 175 l 1
 257 173 244 175 211 175 c 1
 213 173 211 166 211 127 c 1
 229 127 249 127 267 127 c 1
145 189 m 1
 143 205 142 222 145 253 c 1
 142 251 136 253 89 253 c 1
 92 243 92 231 89 189 c 1
 97 192 113 192 145 189 c 1
EndSplineSet
EndChar

StartChar: parenright
Encoding: 41 41 20
Width: 648
Flags: MW
HStem: 21 106 21 140<232 240 256 265 213 316.5 213 321> 21 148<196 316.5 196 321> 21 260<232 301 158 316.5 158 321> 293 19<234 234 234 481> 293 189<241 247 241 481 144 247> 409 65<287 329> 430 181<218 392 281.5 307.5>
VStem: 14 130<236.5 293> 14 181 14 252<236.5 436> 14 287<236.5 281 149 379.5> 14 329<236.5 429> 317 150<156 162.5> 481 134<236.5 293 293 293>
LayerCount: 2
Back
Fore
SplineSet
615 316 m 0x4926
 615 157 484 21 321 21 c 0
 315 21 320 21 313 21 c 0
 151 21 14 171 14 302 c 0
 14 457 131 611 311 611 c 0
 473 611 615 480 615 316 c 0x4926
390 393 m 0
 390 440 353 479 294 487 c 1
 322 507 348 525 374 545 c 0
 372 548 371 552 368 554 c 2
 360 554 l 1
 303 537 226 494 206 472 c 1
 220 469 l 1
 228 474 238 482 244 482 c 0x8986
 250 482 247 480 247 480 c 1
 242 470 232 458 232 452 c 2
 232 443 l 2
 235 443 238 443 241 440 c 1
 247 446 251 454 259 456 c 1
 263 449 266 439 266 433 c 0
 266 426 264 430 261 427 c 0
 247 427 223 430 218 430 c 2x4426
 218 430 201 429 193 421 c 1
 199 415 l 1
 222 411 276 429 255 381 c 1
 266 381 281 379 289 381 c 1
 289 352 l 1
 266 346 254 355 232 334 c 1
 234 312 l 1
 336 310 337 304 390 311 c 1
 390 326 l 2
 390 331 380 339 374 341 c 1
 382 361 390 387 390 393 c 0
144 135 m 1
 481 127 l 1
 481 293 l 1
 144 293 l 1
 144 135 l 1
343 429 m 2
 343 413 l 1x4a0a
 338 410 332 409 326 409 c 0
 290 409 330 430 285 430 c 0x4986
 278 430 282 430 279 428 c 1
 280 435 276 474 298 474 c 0x4a0a
 314 474 343 446 343 429 c 2
467 277 m 1
 467 145 l 1x1a16
 323 145 l 2
 321 148 317 153 317 159 c 0
 317 166 320 173 318 277 c 1
 467 277 l 1
301 281 m 1
 301 149 l 1
 158 149 l 1
 158 281 l 1
 301 281 l 1
460 198 m 0
 460 211 435 216 423 227 c 1
 423 240 l 2
 426 242 426 244 433 244 c 0
 439 244 438 245 440 242 c 1
 438 245 436 249 430 249 c 0
 424 249 418 239 418 233 c 0
 418 204 455 219 455 198 c 0
 455 192 451 192 448 189 c 1
 426 214 426 207 417 207 c 0
 411 207 387 202 374 202 c 1
 378 208 386 228 364 228 c 0
 351 228 354 207 339 190 c 1
 349 188 356 194 364 185 c 1
 361 175 359 164 354 159 c 1
 362 162 375 163 381 163 c 0
 387 163 419 156 425 156 c 0
 430 156 460 187 460 198 c 0
284 260 m 0
 284 267 277 267 274 267 c 0
 269 259 269 250 262 244 c 1
 257 252 253 267 246 269 c 0
 243 267 242 270 242 263 c 0
 242 256 255 241 255 237 c 2
 255 230 l 1
 235 224 191 229 195 188 c 1x4a86
 191 183 183 183 178 181 c 1
 178 173 180 169 180 166 c 1
 193 166 193 169 199 169 c 0
 206 169 207 161 213 161 c 2x2a46
 240 161 l 2
 237 164 232 167 229 170 c 1
 234 178 238 185 243 187 c 1
 248 180 251 168 256 161 c 1
 265 161 l 2
 265 164 260 169 261 172 c 0
 264 184 269 204 269 216 c 1
 273 221 278 222 278 225 c 0
 276 230 272 237 274 242 c 0
 276 247 284 256 284 260 c 0
EndSplineSet
EndChar

StartChar: asterisk
Encoding: 42 42 21
Width: 628
Flags: MW
HStem: 18 101<387.5 391> 18 109<241 267 211 391> 18 161<241 484> 18 169<241 270 195.5 391> 18 207<307 313 307 391> 18 236<255 384 255 391> 18 241<94 391> 18 272<327 327 327 391>
VStem: 29 62<266 291 266 379.5> 29 184<189.5 379.5> 29 298<290 310 290 379.5> 29 311<215 431> 319 99<296 305 249 315 249 315> 484 130<211.5 240 240 240> 534 80<313 313> 547 67<249 279 279 281.5>
LayerCount: 2
Back
Fore
SplineSet
614 296 m 0x204a
 614 127 463 18 319 18 c 0
 163 18 29 134 29 296 c 0
 29 463 175 570 321 570 c 0
 462 570 614 461 614 296 c 0x204a
418 249 m 1
 547 249 l 1x2089
 547 279 l 2
 547 284 541 298 539 305 c 1
 503 306 454 310 418 305 c 1
 418 249 l 1
544 179 m 1
 544 197 547 220 544 238 c 1
 527 238 511 237 496 238 c 1
 493 179 l 1
 509 176 529 176 544 179 c 1
534 313 m 1
 532 367 447 442 396 455 c 0
 370 461 325 466 319 466 c 0
 313 466 279 463 263 460 c 0
 208 448 131 395 107 330 c 1
 110 324 l 1
 304 324 l 1
 285 334 259 345 246 368 c 1
 242 365 l 2
 234 357 226 355 221 355 c 0
 213 355 195 357 195 379 c 0
 195 383 200 406 217 406 c 0
 223 406 233 405 237 401 c 0
 240 397 246 391 248 388 c 1
 252 395 263 405 269 408 c 0
 290 419 324 438 330 438 c 0
 337 438 338 434 340 431 c 2x108a
 340 418 l 1
 332 414 325 407 317 402 c 1
 356 407 425 412 432 412 c 0
 437 412 442 412 444 411 c 0
 447 409 451 405 454 402 c 2
 454 393 l 1
 426 379 397 378 368 374 c 1
 392 369 419 365 442 359 c 0
 449 357 451 351 451 346 c 0
 451 335 447 331 432 331 c 0
 425 331 350 343 314 349 c 1
 322 344 333 329 335 321 c 1
 528 316 l 2
 534 316 534 313 534 313 c 1
436 179 m 1
 484 179 l 1x208c
 484 240 l 1
 461 240 436 243 415 240 c 1
 428 222 431 195 436 179 c 1
407 254 m 1x0422
 407 310 l 1
 327 310 l 1
 327 290 l 1x0122
 357 288 387 271 407 254 c 1x0422
255 254 m 1
 384 254 l 1x048a
 374 262 360 271 349 273 c 0
 341 276 323 277 318 277 c 0
 311 277 304 277 299 276 c 0
 285 272 262 265 255 254 c 1
319 296 m 1
 319 315 l 1
 264 313 242 315 237 315 c 1
 237 294 235 274 237 264 c 1
 260 281 305 289 319 296 c 1
417 125 m 1
 416 169 l 1
 407 168 395 168 364 170 c 1
 364 158 363 145 361 122 c 1
 371 120 385 119 390 119 c 0x804a
 396 119 410 120 417 125 c 1
420 190 m 0
 420 197 410 222 404 235 c 0
 402 238 399 241 396 242 c 0
 340 246 269 249 264 249 c 0
 234 249 213 217 213 193 c 0
 213 186 216 187 216 187 c 1x208a
 270 187 l 1
 270 201 292 220 303 222 c 0
 305 223 304 225 310 225 c 0x088a
 316 225 326 223 333 222 c 0
 347 220 368 195 366 182 c 1
 382 182 407 181 417 179 c 1x108a
 417 181 420 184 420 190 c 0
94 259 m 1
 226 259 l 1x028a
 226 277 228 297 226 316 c 1
 134 318 l 2
 100 318 91 313 91 269 c 0
 91 263 92 264 94 259 c 1
223 248 m 1
 215 248 206 248 151 251 c 1
 154 241 154 216 151 187 c 1x108a
 162 189 182 186 187 186 c 0
 194 186 194 187 197 187 c 0
 204 207 214 233 223 248 c 1
267 127 m 1
 267 175 l 1
 257 173 244 175 211 175 c 1
 213 173 211 166 211 127 c 1
 229 127 249 127 267 127 c 1
145 189 m 1
 143 205 142 222 145 253 c 1
 142 251 136 253 89 253 c 1
 92 243 92 231 89 189 c 1
 97 192 113 192 145 189 c 1
EndSplineSet
EndChar

StartChar: plus
Encoding: 43 43 22
Width: 628
Flags: MW
HStem: 18 101<387.5 391> 18 109<241 267 211 391> 18 161<241 484> 18 169<241 270 195.5 391> 18 207<307 313 307 391> 18 236<255 384 255 391> 18 241<94 391> 18 272<327 327 327 391>
VStem: 29 62<266 291 266 379.5> 29 184<189.5 379.5> 29 298<290 310 290 379.5> 29 311<215 431> 319 99<296 305 249 315 249 315> 484 130<211.5 240 240 240> 534 80<313 313> 547 67<249 279 279 281.5>
LayerCount: 2
Back
Fore
SplineSet
614 296 m 0x204a
 614 127 463 18 319 18 c 0
 163 18 29 134 29 296 c 0
 29 463 175 570 321 570 c 0
 462 570 614 461 614 296 c 0x204a
418 249 m 1
 547 249 l 1x2089
 547 279 l 2
 547 284 541 298 539 305 c 1
 503 306 454 310 418 305 c 1
 418 249 l 1
544 179 m 1
 544 197 547 220 544 238 c 1
 527 238 511 237 496 238 c 1
 493 179 l 1
 509 176 529 176 544 179 c 1
534 313 m 1
 532 367 447 442 396 455 c 0
 370 461 325 466 319 466 c 0
 313 466 279 463 263 460 c 0
 208 448 131 395 107 330 c 1
 110 324 l 1
 304 324 l 1
 285 334 259 345 246 368 c 1
 242 365 l 2
 234 357 226 355 221 355 c 0
 213 355 195 357 195 379 c 0
 195 383 200 406 217 406 c 0
 223 406 233 405 237 401 c 0
 240 397 246 391 248 388 c 1
 252 395 263 405 269 408 c 0
 290 419 324 438 330 438 c 0
 337 438 338 434 340 431 c 2x108a
 340 418 l 1
 332 414 325 407 317 402 c 1
 356 407 425 412 432 412 c 0
 437 412 442 412 444 411 c 0
 447 409 451 405 454 402 c 2
 454 393 l 1
 426 379 397 378 368 374 c 1
 392 369 419 365 442 359 c 0
 449 357 451 351 451 346 c 0
 451 335 447 331 432 331 c 0
 425 331 350 343 314 349 c 1
 322 344 333 329 335 321 c 1
 528 316 l 2
 534 316 534 313 534 313 c 1
436 179 m 1
 484 179 l 1x208c
 484 240 l 1
 461 240 436 243 415 240 c 1
 428 222 431 195 436 179 c 1
407 254 m 1x0422
 407 310 l 1
 327 310 l 1
 327 290 l 1x0122
 357 288 387 271 407 254 c 1x0422
255 254 m 1
 384 254 l 1x048a
 374 262 360 271 349 273 c 0
 341 276 323 277 318 277 c 0
 311 277 304 277 299 276 c 0
 285 272 262 265 255 254 c 1
319 296 m 1
 319 315 l 1
 264 313 242 315 237 315 c 1
 237 294 235 274 237 264 c 1
 260 281 305 289 319 296 c 1
417 125 m 1
 416 169 l 1
 407 168 395 168 364 170 c 1
 364 158 363 145 361 122 c 1
 371 120 385 119 390 119 c 0x804a
 396 119 410 120 417 125 c 1
420 190 m 0
 420 197 410 222 404 235 c 0
 402 238 399 241 396 242 c 0
 340 246 269 249 264 249 c 0
 234 249 213 217 213 193 c 0
 213 186 216 187 216 187 c 1x208a
 270 187 l 1
 270 201 292 220 303 222 c 0
 305 223 304 225 310 225 c 0x088a
 316 225 326 223 333 222 c 0
 347 220 368 195 366 182 c 1
 382 182 407 181 417 179 c 1x108a
 417 181 420 184 420 190 c 0
94 259 m 1
 226 259 l 1x028a
 226 277 228 297 226 316 c 1
 134 318 l 2
 100 318 91 313 91 269 c 0
 91 263 92 264 94 259 c 1
223 248 m 1
 215 248 206 248 151 251 c 1
 154 241 154 216 151 187 c 1x108a
 162 189 182 186 187 186 c 0
 194 186 194 187 197 187 c 0
 204 207 214 233 223 248 c 1
267 127 m 1
 267 175 l 1
 257 173 244 175 211 175 c 1
 213 173 211 166 211 127 c 1
 229 127 249 127 267 127 c 1
145 189 m 1
 143 205 142 222 145 253 c 1
 142 251 136 253 89 253 c 1
 92 243 92 231 89 189 c 1
 97 192 113 192 145 189 c 1
EndSplineSet
EndChar

StartChar: comma
Encoding: 44 44 23
Width: 648
Flags: MW
HStem: 21 106 21 140<232 240 256 265 213 316.5 213 321> 21 148<196 316.5 196 321> 21 260<232 301 158 316.5 158 321> 293 19<234 234 234 481> 293 189<241 247 241 481 144 247> 409 65<287 329> 430 181<218 392 281.5 307.5>
VStem: 14 130<236.5 293> 14 181 14 252<236.5 436> 14 287<236.5 281 149 379.5> 14 329<236.5 429> 317 150<156 162.5> 481 134<236.5 293 293 293>
LayerCount: 2
Back
Fore
SplineSet
615 316 m 0x4926
 615 157 484 21 321 21 c 0
 315 21 320 21 313 21 c 0
 151 21 14 171 14 302 c 0
 14 457 131 611 311 611 c 0
 473 611 615 480 615 316 c 0x4926
390 393 m 0
 390 440 353 479 294 487 c 1
 322 507 348 525 374 545 c 0
 372 548 371 552 368 554 c 2
 360 554 l 1
 303 537 226 494 206 472 c 1
 220 469 l 1
 228 474 238 482 244 482 c 0x8986
 250 482 247 480 247 480 c 1
 242 470 232 458 232 452 c 2
 232 443 l 2
 235 443 238 443 241 440 c 1
 247 446 251 454 259 456 c 1
 263 449 266 439 266 433 c 0
 266 426 264 430 261 427 c 0
 247 427 223 430 218 430 c 2x4426
 218 430 201 429 193 421 c 1
 199 415 l 1
 222 411 276 429 255 381 c 1
 266 381 281 379 289 381 c 1
 289 352 l 1
 266 346 254 355 232 334 c 1
 234 312 l 1
 336 310 337 304 390 311 c 1
 390 326 l 2
 390 331 380 339 374 341 c 1
 382 361 390 387 390 393 c 0
144 135 m 1
 481 127 l 1
 481 293 l 1
 144 293 l 1
 144 135 l 1
343 429 m 2
 343 413 l 1x4a0a
 338 410 332 409 326 409 c 0
 290 409 330 430 285 430 c 0x4986
 278 430 282 430 279 428 c 1
 280 435 276 474 298 474 c 0x4a0a
 314 474 343 446 343 429 c 2
467 277 m 1
 467 145 l 1x1a16
 323 145 l 2
 321 148 317 153 317 159 c 0
 317 166 320 173 318 277 c 1
 467 277 l 1
301 281 m 1
 301 149 l 1
 158 149 l 1
 158 281 l 1
 301 281 l 1
460 198 m 0
 460 211 435 216 423 227 c 1
 423 240 l 2
 426 242 426 244 433 244 c 0
 439 244 438 245 440 242 c 1
 438 245 436 249 430 249 c 0
 424 249 418 239 418 233 c 0
 418 204 455 219 455 198 c 0
 455 192 451 192 448 189 c 1
 426 214 426 207 417 207 c 0
 411 207 387 202 374 202 c 1
 378 208 386 228 364 228 c 0
 351 228 354 207 339 190 c 1
 349 188 356 194 364 185 c 1
 361 175 359 164 354 159 c 1
 362 162 375 163 381 163 c 0
 387 163 419 156 425 156 c 0
 430 156 460 187 460 198 c 0
284 260 m 0
 284 267 277 267 274 267 c 0
 269 259 269 250 262 244 c 1
 257 252 253 267 246 269 c 0
 243 267 242 270 242 263 c 0
 242 256 255 241 255 237 c 2
 255 230 l 1
 235 224 191 229 195 188 c 1x4a86
 191 183 183 183 178 181 c 1
 178 173 180 169 180 166 c 1
 193 166 193 169 199 169 c 0
 206 169 207 161 213 161 c 2x2a46
 240 161 l 2
 237 164 232 167 229 170 c 1
 234 178 238 185 243 187 c 1
 248 180 251 168 256 161 c 1
 265 161 l 2
 265 164 260 169 261 172 c 0
 264 184 269 204 269 216 c 1
 273 221 278 222 278 225 c 0
 276 230 272 237 274 242 c 0
 276 247 284 256 284 260 c 0
EndSplineSet
EndChar

StartChar: hyphen
Encoding: 45 45 24
Width: 628
Flags: MW
HStem: 18 101<387.5 391> 18 109<241 267 211 391> 18 161<241 484> 18 169<241 270 195.5 391> 18 207<307 313 307 391> 18 236<255 384 255 391> 18 241<94 391> 18 272<327 327 327 391>
VStem: 29 62<266 291 266 379.5> 29 184<189.5 379.5> 29 298<290 310 290 379.5> 29 311<215 431> 319 99<296 305 249 315 249 315> 484 130<211.5 240 240 240> 534 80<313 313> 547 67<249 279 279 281.5>
LayerCount: 2
Back
Fore
SplineSet
614 296 m 0x204a
 614 127 463 18 319 18 c 0
 163 18 29 134 29 296 c 0
 29 463 175 570 321 570 c 0
 462 570 614 461 614 296 c 0x204a
418 249 m 1
 547 249 l 1x2089
 547 279 l 2
 547 284 541 298 539 305 c 1
 503 306 454 310 418 305 c 1
 418 249 l 1
544 179 m 1
 544 197 547 220 544 238 c 1
 527 238 511 237 496 238 c 1
 493 179 l 1
 509 176 529 176 544 179 c 1
534 313 m 1
 532 367 447 442 396 455 c 0
 370 461 325 466 319 466 c 0
 313 466 279 463 263 460 c 0
 208 448 131 395 107 330 c 1
 110 324 l 1
 304 324 l 1
 285 334 259 345 246 368 c 1
 242 365 l 2
 234 357 226 355 221 355 c 0
 213 355 195 357 195 379 c 0
 195 383 200 406 217 406 c 0
 223 406 233 405 237 401 c 0
 240 397 246 391 248 388 c 1
 252 395 263 405 269 408 c 0
 290 419 324 438 330 438 c 0
 337 438 338 434 340 431 c 2x108a
 340 418 l 1
 332 414 325 407 317 402 c 1
 356 407 425 412 432 412 c 0
 437 412 442 412 444 411 c 0
 447 409 451 405 454 402 c 2
 454 393 l 1
 426 379 397 378 368 374 c 1
 392 369 419 365 442 359 c 0
 449 357 451 351 451 346 c 0
 451 335 447 331 432 331 c 0
 425 331 350 343 314 349 c 1
 322 344 333 329 335 321 c 1
 528 316 l 2
 534 316 534 313 534 313 c 1
436 179 m 1
 484 179 l 1x208c
 484 240 l 1
 461 240 436 243 415 240 c 1
 428 222 431 195 436 179 c 1
407 254 m 1x0422
 407 310 l 1
 327 310 l 1
 327 290 l 1x0122
 357 288 387 271 407 254 c 1x0422
255 254 m 1
 384 254 l 1x048a
 374 262 360 271 349 273 c 0
 341 276 323 277 318 277 c 0
 311 277 304 277 299 276 c 0
 285 272 262 265 255 254 c 1
319 296 m 1
 319 315 l 1
 264 313 242 315 237 315 c 1
 237 294 235 274 237 264 c 1
 260 281 305 289 319 296 c 1
417 125 m 1
 416 169 l 1
 407 168 395 168 364 170 c 1
 364 158 363 145 361 122 c 1
 371 120 385 119 390 119 c 0x804a
 396 119 410 120 417 125 c 1
420 190 m 0
 420 197 410 222 404 235 c 0
 402 238 399 241 396 242 c 0
 340 246 269 249 264 249 c 0
 234 249 213 217 213 193 c 0
 213 186 216 187 216 187 c 1x208a
 270 187 l 1
 270 201 292 220 303 222 c 0
 305 223 304 225 310 225 c 0x088a
 316 225 326 223 333 222 c 0
 347 220 368 195 366 182 c 1
 382 182 407 181 417 179 c 1x108a
 417 181 420 184 420 190 c 0
94 259 m 1
 226 259 l 1x028a
 226 277 228 297 226 316 c 1
 134 318 l 2
 100 318 91 313 91 269 c 0
 91 263 92 264 94 259 c 1
223 248 m 1
 215 248 206 248 151 251 c 1
 154 241 154 216 151 187 c 1x108a
 162 189 182 186 187 186 c 0
 194 186 194 187 197 187 c 0
 204 207 214 233 223 248 c 1
267 127 m 1
 267 175 l 1
 257 173 244 175 211 175 c 1
 213 173 211 166 211 127 c 1
 229 127 249 127 267 127 c 1
145 189 m 1
 143 205 142 222 145 253 c 1
 142 251 136 253 89 253 c 1
 92 243 92 231 89 189 c 1
 97 192 113 192 145 189 c 1
EndSplineSet
EndChar

StartChar: period
Encoding: 46 46 25
Width: 628
Flags: MW
HStem: 18 101<387.5 391> 18 109<241 267 211 391> 18 161<241 484> 18 169<241 270 195.5 391> 18 207<307 313 307 391> 18 236<255 384 255 391> 18 241<94 391> 18 272<327 327 327 391>
VStem: 29 62<266 291 266 379.5> 29 184<189.5 379.5> 29 298<290 310 290 379.5> 29 311<215 431> 319 99<296 305 249 315 249 315> 484 130<211.5 240 240 240> 534 80<313 313> 547 67<249 279 279 281.5>
LayerCount: 2
Back
Fore
SplineSet
614 296 m 0x204a
 614 127 463 18 319 18 c 0
 163 18 29 134 29 296 c 0
 29 463 175 570 321 570 c 0
 462 570 614 461 614 296 c 0x204a
418 249 m 1
 547 249 l 1x2089
 547 279 l 2
 547 284 541 298 539 305 c 1
 503 306 454 310 418 305 c 1
 418 249 l 1
544 179 m 1
 544 197 547 220 544 238 c 1
 527 238 511 237 496 238 c 1
 493 179 l 1
 509 176 529 176 544 179 c 1
534 313 m 1
 532 367 447 442 396 455 c 0
 370 461 325 466 319 466 c 0
 313 466 279 463 263 460 c 0
 208 448 131 395 107 330 c 1
 110 324 l 1
 304 324 l 1
 285 334 259 345 246 368 c 1
 242 365 l 2
 234 357 226 355 221 355 c 0
 213 355 195 357 195 379 c 0
 195 383 200 406 217 406 c 0
 223 406 233 405 237 401 c 0
 240 397 246 391 248 388 c 1
 252 395 263 405 269 408 c 0
 290 419 324 438 330 438 c 0
 337 438 338 434 340 431 c 2x108a
 340 418 l 1
 332 414 325 407 317 402 c 1
 356 407 425 412 432 412 c 0
 437 412 442 412 444 411 c 0
 447 409 451 405 454 402 c 2
 454 393 l 1
 426 379 397 378 368 374 c 1
 392 369 419 365 442 359 c 0
 449 357 451 351 451 346 c 0
 451 335 447 331 432 331 c 0
 425 331 350 343 314 349 c 1
 322 344 333 329 335 321 c 1
 528 316 l 2
 534 316 534 313 534 313 c 1
436 179 m 1
 484 179 l 1x208c
 484 240 l 1
 461 240 436 243 415 240 c 1
 428 222 431 195 436 179 c 1
407 254 m 1x0422
 407 310 l 1
 327 310 l 1
 327 290 l 1x0122
 357 288 387 271 407 254 c 1x0422
255 254 m 1
 384 254 l 1x048a
 374 262 360 271 349 273 c 0
 341 276 323 277 318 277 c 0
 311 277 304 277 299 276 c 0
 285 272 262 265 255 254 c 1
319 296 m 1
 319 315 l 1
 264 313 242 315 237 315 c 1
 237 294 235 274 237 264 c 1
 260 281 305 289 319 296 c 1
417 125 m 1
 416 169 l 1
 407 168 395 168 364 170 c 1
 364 158 363 145 361 122 c 1
 371 120 385 119 390 119 c 0x804a
 396 119 410 120 417 125 c 1
420 190 m 0
 420 197 410 222 404 235 c 0
 402 238 399 241 396 242 c 0
 340 246 269 249 264 249 c 0
 234 249 213 217 213 193 c 0
 213 186 216 187 216 187 c 1x208a
 270 187 l 1
 270 201 292 220 303 222 c 0
 305 223 304 225 310 225 c 0x088a
 316 225 326 223 333 222 c 0
 347 220 368 195 366 182 c 1
 382 182 407 181 417 179 c 1x108a
 417 181 420 184 420 190 c 0
94 259 m 1
 226 259 l 1x028a
 226 277 228 297 226 316 c 1
 134 318 l 2
 100 318 91 313 91 269 c 0
 91 263 92 264 94 259 c 1
223 248 m 1
 215 248 206 248 151 251 c 1
 154 241 154 216 151 187 c 1x108a
 162 189 182 186 187 186 c 0
 194 186 194 187 197 187 c 0
 204 207 214 233 223 248 c 1
267 127 m 1
 267 175 l 1
 257 173 244 175 211 175 c 1
 213 173 211 166 211 127 c 1
 229 127 249 127 267 127 c 1
145 189 m 1
 143 205 142 222 145 253 c 1
 142 251 136 253 89 253 c 1
 92 243 92 231 89 189 c 1
 97 192 113 192 145 189 c 1
EndSplineSet
EndChar

StartChar: slash
Encoding: 47 47 26
Width: 628
Flags: MW
HStem: 18 101<387.5 391> 18 109<241 267 211 391> 18 161<241 484> 18 169<241 270 195.5 391> 18 207<307 313 307 391> 18 236<255 384 255 391> 18 241<94 391> 18 272<327 327 327 391>
VStem: 29 62<266 291 266 379.5> 29 184<189.5 379.5> 29 298<290 310 290 379.5> 29 311<215 431> 319 99<296 305 249 315 249 315> 484 130<211.5 240 240 240> 534 80<313 313> 547 67<249 279 279 281.5>
LayerCount: 2
Back
Fore
SplineSet
614 296 m 0x204a
 614 127 463 18 319 18 c 0
 163 18 29 134 29 296 c 0
 29 463 175 570 321 570 c 0
 462 570 614 461 614 296 c 0x204a
418 249 m 1
 547 249 l 1x2089
 547 279 l 2
 547 284 541 298 539 305 c 1
 503 306 454 310 418 305 c 1
 418 249 l 1
544 179 m 1
 544 197 547 220 544 238 c 1
 527 238 511 237 496 238 c 1
 493 179 l 1
 509 176 529 176 544 179 c 1
534 313 m 1
 532 367 447 442 396 455 c 0
 370 461 325 466 319 466 c 0
 313 466 279 463 263 460 c 0
 208 448 131 395 107 330 c 1
 110 324 l 1
 304 324 l 1
 285 334 259 345 246 368 c 1
 242 365 l 2
 234 357 226 355 221 355 c 0
 213 355 195 357 195 379 c 0
 195 383 200 406 217 406 c 0
 223 406 233 405 237 401 c 0
 240 397 246 391 248 388 c 1
 252 395 263 405 269 408 c 0
 290 419 324 438 330 438 c 0
 337 438 338 434 340 431 c 2x108a
 340 418 l 1
 332 414 325 407 317 402 c 1
 356 407 425 412 432 412 c 0
 437 412 442 412 444 411 c 0
 447 409 451 405 454 402 c 2
 454 393 l 1
 426 379 397 378 368 374 c 1
 392 369 419 365 442 359 c 0
 449 357 451 351 451 346 c 0
 451 335 447 331 432 331 c 0
 425 331 350 343 314 349 c 1
 322 344 333 329 335 321 c 1
 528 316 l 2
 534 316 534 313 534 313 c 1
436 179 m 1
 484 179 l 1x208c
 484 240 l 1
 461 240 436 243 415 240 c 1
 428 222 431 195 436 179 c 1
407 254 m 1x0422
 407 310 l 1
 327 310 l 1
 327 290 l 1x0122
 357 288 387 271 407 254 c 1x0422
255 254 m 1
 384 254 l 1x048a
 374 262 360 271 349 273 c 0
 341 276 323 277 318 277 c 0
 311 277 304 277 299 276 c 0
 285 272 262 265 255 254 c 1
319 296 m 1
 319 315 l 1
 264 313 242 315 237 315 c 1
 237 294 235 274 237 264 c 1
 260 281 305 289 319 296 c 1
417 125 m 1
 416 169 l 1
 407 168 395 168 364 170 c 1
 364 158 363 145 361 122 c 1
 371 120 385 119 390 119 c 0x804a
 396 119 410 120 417 125 c 1
420 190 m 0
 420 197 410 222 404 235 c 0
 402 238 399 241 396 242 c 0
 340 246 269 249 264 249 c 0
 234 249 213 217 213 193 c 0
 213 186 216 187 216 187 c 1x208a
 270 187 l 1
 270 201 292 220 303 222 c 0
 305 223 304 225 310 225 c 0x088a
 316 225 326 223 333 222 c 0
 347 220 368 195 366 182 c 1
 382 182 407 181 417 179 c 1x108a
 417 181 420 184 420 190 c 0
94 259 m 1
 226 259 l 1x028a
 226 277 228 297 226 316 c 1
 134 318 l 2
 100 318 91 313 91 269 c 0
 91 263 92 264 94 259 c 1
223 248 m 1
 215 248 206 248 151 251 c 1
 154 241 154 216 151 187 c 1x108a
 162 189 182 186 187 186 c 0
 194 186 194 187 197 187 c 0
 204 207 214 233 223 248 c 1
267 127 m 1
 267 175 l 1
 257 173 244 175 211 175 c 1
 213 173 211 166 211 127 c 1
 229 127 249 127 267 127 c 1
145 189 m 1
 143 205 142 222 145 253 c 1
 142 251 136 253 89 253 c 1
 92 243 92 231 89 189 c 1
 97 192 113 192 145 189 c 1
EndSplineSet
EndChar

StartChar: zero
Encoding: 48 48 27
Width: 1000
Flags: MW
HStem: 20 45 95 45 236 46<696 757 645 676 817 823 817 817> 236 175<750 768 750 771 676 768 750 884 750 817> 291 45<13 142 13 147 193 336 13 188> 385 45<406 465 366 486 406 406>
VStem: 13 323<291 336 291 336> 127 146 339 45 402 174 660 45 801 145
LayerCount: 2
Back
Fore
SplineSet
147 336 m 1xedf0
 152 377 l 1
 44 377 l 1
 74 411 114 448 98 500 c 1
 141 513 l 1
 150 485 147 452 134 422 c 1
 202 422 l 1
 193 336 l 1
 336 336 l 1xeef0
 336 291 l 1
 188 291 l 1
 176 189 l 2
 171 166 185 107 222 156 c 0
 227 162 237 198 217 193 c 1
 206 237 l 1
 272 254 289 173 259 130 c 0
 235 96 102 60 132 196 c 1
 142 291 l 1
 13 291 l 1
 13 336 l 1
 147 336 l 1xedf0
480 507 m 1
 523 521 l 1
 539 470 519 423 486 385 c 1
 406 385 l 1
 385 196 l 1
 371 129 484 121 524 175 c 0
 531 185 537 215 525 224 c 0
 524 224 523 225 521 224 c 2
 511 268 l 1
 575 284 591 193 560 150 c 0
 493 55 317 89 341 204 c 1
 366 430 l 1
 465 430 l 1
 483 455 487 485 480 507 c 1
448 238 m 1
 449 237 l 1
 427 198 l 1
 399 214 397 240 409 262 c 0
 431 300 498 339 535 366 c 0
 542 370 545 373 546 374 c 2
 579 344 l 1
 568 332 551 322 538 313 c 0
 518 300 456 260 448 238 c 1
705 421 m 1
 709 430 l 2
 711 435 714 453 710 459 c 0
 709 459 706 460 699 461 c 2
 698 461 l 1
 703 448 706 435 705 421 c 1
750 411 m 1xd1f0
 768 411 l 1xd1f0
 804 282 l 1xedf0
 823 282 l 1
 815 308 816 340 826 360 c 1
 866 343 l 1
 856 321 859 289 864 279 c 2
 884 236 l 1
 817 236 l 1
 851 114 l 1
 846 91 862 47 891 73 c 0
 897 78 911 120 891 115 c 1
 880 158 l 1
 951 176 959 89 932 52 c 0
 908 18 779 -18 804 113 c 1
 771 236 l 1
 676 236 l 1
 619 103 l 1
 578 121 l 1
 633 256 l 1
 633 281 l 1
 645 282 l 1
 681 366 l 1
 618 366 l 1
 678 435 662 422 638 500 c 1
 700 508 776 520 752 416 c 1
 750 411 l 1xd1f0
731 366 m 1
 696 282 l 1xedf0
 757 282 l 1
 734 366 l 1
 731 366 l 1
EndSplineSet
EndChar

StartChar: one
Encoding: 49 49 28
Width: 1000
Flags: MW
HStem: 20 45 95 45 236 46<696 757 645 676 817 823 817 817> 236 175<750 768 750 771 676 768 750 884 750 817> 291 45<13 142 13 147 193 336 13 188> 385 45<406 465 366 486 406 406>
VStem: 13 323<291 336 291 336> 127 146 339 45 402 174 660 45 801 145
LayerCount: 2
Back
Fore
SplineSet
147 336 m 1xedf0
 152 377 l 1
 44 377 l 1
 74 411 114 448 98 500 c 1
 141 513 l 1
 150 485 147 452 134 422 c 1
 202 422 l 1
 193 336 l 1
 336 336 l 1xeef0
 336 291 l 1
 188 291 l 1
 176 189 l 2
 171 166 185 107 222 156 c 0
 227 162 237 198 217 193 c 1
 206 237 l 1
 272 254 289 173 259 130 c 0
 235 96 102 60 132 196 c 1
 142 291 l 1
 13 291 l 1
 13 336 l 1
 147 336 l 1xedf0
480 507 m 1
 523 521 l 1
 539 470 519 423 486 385 c 1
 406 385 l 1
 385 196 l 1
 371 129 484 121 524 175 c 0
 531 185 537 215 525 224 c 0
 524 224 523 225 521 224 c 2
 511 268 l 1
 575 284 591 193 560 150 c 0
 493 55 317 89 341 204 c 1
 366 430 l 1
 465 430 l 1
 483 455 487 485 480 507 c 1
448 238 m 1
 449 237 l 1
 427 198 l 1
 399 214 397 240 409 262 c 0
 431 300 498 339 535 366 c 0
 542 370 545 373 546 374 c 2
 579 344 l 1
 568 332 551 322 538 313 c 0
 518 300 456 260 448 238 c 1
705 421 m 1
 709 430 l 2
 711 435 714 453 710 459 c 0
 709 459 706 460 699 461 c 2
 698 461 l 1
 703 448 706 435 705 421 c 1
750 411 m 1xd1f0
 768 411 l 1xd1f0
 804 282 l 1xedf0
 823 282 l 1
 815 308 816 340 826 360 c 1
 866 343 l 1
 856 321 859 289 864 279 c 2
 884 236 l 1
 817 236 l 1
 851 114 l 1
 846 91 862 47 891 73 c 0
 897 78 911 120 891 115 c 1
 880 158 l 1
 951 176 959 89 932 52 c 0
 908 18 779 -18 804 113 c 1
 771 236 l 1
 676 236 l 1
 619 103 l 1
 578 121 l 1
 633 256 l 1
 633 281 l 1
 645 282 l 1
 681 366 l 1
 618 366 l 1
 678 435 662 422 638 500 c 1
 700 508 776 520 752 416 c 1
 750 411 l 1xd1f0
731 366 m 1
 696 282 l 1xedf0
 757 282 l 1
 734 366 l 1
 731 366 l 1
EndSplineSet
EndChar

StartChar: two
Encoding: 50 50 29
Width: 1000
Flags: MW
HStem: 20 45 95 45 236 46<696 757 645 676 817 823 817 817> 236 175<750 768 750 771 676 768 750 884 750 817> 291 45<13 142 13 147 193 336 13 188> 385 45<406 465 366 486 406 406>
VStem: 13 323<291 336 291 336> 127 146 339 45 402 174 660 45 801 145
LayerCount: 2
Back
Fore
SplineSet
147 336 m 1xedf0
 152 377 l 1
 44 377 l 1
 74 411 114 448 98 500 c 1
 141 513 l 1
 150 485 147 452 134 422 c 1
 202 422 l 1
 193 336 l 1
 336 336 l 1xeef0
 336 291 l 1
 188 291 l 1
 176 189 l 2
 171 166 185 107 222 156 c 0
 227 162 237 198 217 193 c 1
 206 237 l 1
 272 254 289 173 259 130 c 0
 235 96 102 60 132 196 c 1
 142 291 l 1
 13 291 l 1
 13 336 l 1
 147 336 l 1xedf0
480 507 m 1
 523 521 l 1
 539 470 519 423 486 385 c 1
 406 385 l 1
 385 196 l 1
 371 129 484 121 524 175 c 0
 531 185 537 215 525 224 c 0
 524 224 523 225 521 224 c 2
 511 268 l 1
 575 284 591 193 560 150 c 0
 493 55 317 89 341 204 c 1
 366 430 l 1
 465 430 l 1
 483 455 487 485 480 507 c 1
448 238 m 1
 449 237 l 1
 427 198 l 1
 399 214 397 240 409 262 c 0
 431 300 498 339 535 366 c 0
 542 370 545 373 546 374 c 2
 579 344 l 1
 568 332 551 322 538 313 c 0
 518 300 456 260 448 238 c 1
705 421 m 1
 709 430 l 2
 711 435 714 453 710 459 c 0
 709 459 706 460 699 461 c 2
 698 461 l 1
 703 448 706 435 705 421 c 1
750 411 m 1xd1f0
 768 411 l 1xd1f0
 804 282 l 1xedf0
 823 282 l 1
 815 308 816 340 826 360 c 1
 866 343 l 1
 856 321 859 289 864 279 c 2
 884 236 l 1
 817 236 l 1
 851 114 l 1
 846 91 862 47 891 73 c 0
 897 78 911 120 891 115 c 1
 880 158 l 1
 951 176 959 89 932 52 c 0
 908 18 779 -18 804 113 c 1
 771 236 l 1
 676 236 l 1
 619 103 l 1
 578 121 l 1
 633 256 l 1
 633 281 l 1
 645 282 l 1
 681 366 l 1
 618 366 l 1
 678 435 662 422 638 500 c 1
 700 508 776 520 752 416 c 1
 750 411 l 1xd1f0
731 366 m 1
 696 282 l 1xedf0
 757 282 l 1
 734 366 l 1
 731 366 l 1
EndSplineSet
EndChar

StartChar: three
Encoding: 51 51 30
Width: 1000
Flags: MW
HStem: 20 45 95 45 236 46<696 757 645 676 817 823 817 817> 236 175<750 768 750 771 676 768 750 884 750 817> 291 45<13 142 13 147 193 336 13 188> 385 45<406 465 366 486 406 406>
VStem: 13 323<291 336 291 336> 127 146 339 45 402 174 660 45 801 145
LayerCount: 2
Back
Fore
SplineSet
147 336 m 1xedf0
 152 377 l 1
 44 377 l 1
 74 411 114 448 98 500 c 1
 141 513 l 1
 150 485 147 452 134 422 c 1
 202 422 l 1
 193 336 l 1
 336 336 l 1xeef0
 336 291 l 1
 188 291 l 1
 176 189 l 2
 171 166 185 107 222 156 c 0
 227 162 237 198 217 193 c 1
 206 237 l 1
 272 254 289 173 259 130 c 0
 235 96 102 60 132 196 c 1
 142 291 l 1
 13 291 l 1
 13 336 l 1
 147 336 l 1xedf0
480 507 m 1
 523 521 l 1
 539 470 519 423 486 385 c 1
 406 385 l 1
 385 196 l 1
 371 129 484 121 524 175 c 0
 531 185 537 215 525 224 c 0
 524 224 523 225 521 224 c 2
 511 268 l 1
 575 284 591 193 560 150 c 0
 493 55 317 89 341 204 c 1
 366 430 l 1
 465 430 l 1
 483 455 487 485 480 507 c 1
448 238 m 1
 449 237 l 1
 427 198 l 1
 399 214 397 240 409 262 c 0
 431 300 498 339 535 366 c 0
 542 370 545 373 546 374 c 2
 579 344 l 1
 568 332 551 322 538 313 c 0
 518 300 456 260 448 238 c 1
705 421 m 1
 709 430 l 2
 711 435 714 453 710 459 c 0
 709 459 706 460 699 461 c 2
 698 461 l 1
 703 448 706 435 705 421 c 1
750 411 m 1xd1f0
 768 411 l 1xd1f0
 804 282 l 1xedf0
 823 282 l 1
 815 308 816 340 826 360 c 1
 866 343 l 1
 856 321 859 289 864 279 c 2
 884 236 l 1
 817 236 l 1
 851 114 l 1
 846 91 862 47 891 73 c 0
 897 78 911 120 891 115 c 1
 880 158 l 1
 951 176 959 89 932 52 c 0
 908 18 779 -18 804 113 c 1
 771 236 l 1
 676 236 l 1
 619 103 l 1
 578 121 l 1
 633 256 l 1
 633 281 l 1
 645 282 l 1
 681 366 l 1
 618 366 l 1
 678 435 662 422 638 500 c 1
 700 508 776 520 752 416 c 1
 750 411 l 1xd1f0
731 366 m 1
 696 282 l 1xedf0
 757 282 l 1
 734 366 l 1
 731 366 l 1
EndSplineSet
EndChar

StartChar: four
Encoding: 52 52 31
Width: 1000
Flags: MW
HStem: 20 45 95 45 236 46<696 757 645 676 817 823 817 817> 236 175<750 768 750 771 676 768 750 884 750 817> 291 45<13 142 13 147 193 336 13 188> 385 45<406 465 366 486 406 406>
VStem: 13 323<291 336 291 336> 127 146 339 45 402 174 660 45 801 145
LayerCount: 2
Back
Fore
SplineSet
147 336 m 1xedf0
 152 377 l 1
 44 377 l 1
 74 411 114 448 98 500 c 1
 141 513 l 1
 150 485 147 452 134 422 c 1
 202 422 l 1
 193 336 l 1
 336 336 l 1xeef0
 336 291 l 1
 188 291 l 1
 176 189 l 2
 171 166 185 107 222 156 c 0
 227 162 237 198 217 193 c 1
 206 237 l 1
 272 254 289 173 259 130 c 0
 235 96 102 60 132 196 c 1
 142 291 l 1
 13 291 l 1
 13 336 l 1
 147 336 l 1xedf0
480 507 m 1
 523 521 l 1
 539 470 519 423 486 385 c 1
 406 385 l 1
 385 196 l 1
 371 129 484 121 524 175 c 0
 531 185 537 215 525 224 c 0
 524 224 523 225 521 224 c 2
 511 268 l 1
 575 284 591 193 560 150 c 0
 493 55 317 89 341 204 c 1
 366 430 l 1
 465 430 l 1
 483 455 487 485 480 507 c 1
448 238 m 1
 449 237 l 1
 427 198 l 1
 399 214 397 240 409 262 c 0
 431 300 498 339 535 366 c 0
 542 370 545 373 546 374 c 2
 579 344 l 1
 568 332 551 322 538 313 c 0
 518 300 456 260 448 238 c 1
705 421 m 1
 709 430 l 2
 711 435 714 453 710 459 c 0
 709 459 706 460 699 461 c 2
 698 461 l 1
 703 448 706 435 705 421 c 1
750 411 m 1xd1f0
 768 411 l 1xd1f0
 804 282 l 1xedf0
 823 282 l 1
 815 308 816 340 826 360 c 1
 866 343 l 1
 856 321 859 289 864 279 c 2
 884 236 l 1
 817 236 l 1
 851 114 l 1
 846 91 862 47 891 73 c 0
 897 78 911 120 891 115 c 1
 880 158 l 1
 951 176 959 89 932 52 c 0
 908 18 779 -18 804 113 c 1
 771 236 l 1
 676 236 l 1
 619 103 l 1
 578 121 l 1
 633 256 l 1
 633 281 l 1
 645 282 l 1
 681 366 l 1
 618 366 l 1
 678 435 662 422 638 500 c 1
 700 508 776 520 752 416 c 1
 750 411 l 1xd1f0
731 366 m 1
 696 282 l 1xedf0
 757 282 l 1
 734 366 l 1
 731 366 l 1
EndSplineSet
EndChar

StartChar: five
Encoding: 53 53 32
Width: 1000
Flags: MW
HStem: 20 45 95 45 236 46<696 757 645 676 817 823 817 817> 236 175<750 768 750 771 676 768 750 884 750 817> 291 45<13 142 13 147 193 336 13 188> 385 45<406 465 366 486 406 406>
VStem: 13 323<291 336 291 336> 127 146 339 45 402 174 660 45 801 145
LayerCount: 2
Back
Fore
SplineSet
147 336 m 1xedf0
 152 377 l 1
 44 377 l 1
 74 411 114 448 98 500 c 1
 141 513 l 1
 150 485 147 452 134 422 c 1
 202 422 l 1
 193 336 l 1
 336 336 l 1xeef0
 336 291 l 1
 188 291 l 1
 176 189 l 2
 171 166 185 107 222 156 c 0
 227 162 237 198 217 193 c 1
 206 237 l 1
 272 254 289 173 259 130 c 0
 235 96 102 60 132 196 c 1
 142 291 l 1
 13 291 l 1
 13 336 l 1
 147 336 l 1xedf0
480 507 m 1
 523 521 l 1
 539 470 519 423 486 385 c 1
 406 385 l 1
 385 196 l 1
 371 129 484 121 524 175 c 0
 531 185 537 215 525 224 c 0
 524 224 523 225 521 224 c 2
 511 268 l 1
 575 284 591 193 560 150 c 0
 493 55 317 89 341 204 c 1
 366 430 l 1
 465 430 l 1
 483 455 487 485 480 507 c 1
448 238 m 1
 449 237 l 1
 427 198 l 1
 399 214 397 240 409 262 c 0
 431 300 498 339 535 366 c 0
 542 370 545 373 546 374 c 2
 579 344 l 1
 568 332 551 322 538 313 c 0
 518 300 456 260 448 238 c 1
705 421 m 1
 709 430 l 2
 711 435 714 453 710 459 c 0
 709 459 706 460 699 461 c 2
 698 461 l 1
 703 448 706 435 705 421 c 1
750 411 m 1xd1f0
 768 411 l 1xd1f0
 804 282 l 1xedf0
 823 282 l 1
 815 308 816 340 826 360 c 1
 866 343 l 1
 856 321 859 289 864 279 c 2
 884 236 l 1
 817 236 l 1
 851 114 l 1
 846 91 862 47 891 73 c 0
 897 78 911 120 891 115 c 1
 880 158 l 1
 951 176 959 89 932 52 c 0
 908 18 779 -18 804 113 c 1
 771 236 l 1
 676 236 l 1
 619 103 l 1
 578 121 l 1
 633 256 l 1
 633 281 l 1
 645 282 l 1
 681 366 l 1
 618 366 l 1
 678 435 662 422 638 500 c 1
 700 508 776 520 752 416 c 1
 750 411 l 1xd1f0
731 366 m 1
 696 282 l 1xedf0
 757 282 l 1
 734 366 l 1
 731 366 l 1
EndSplineSet
EndChar

StartChar: six
Encoding: 54 54 33
Width: 1000
Flags: MW
HStem: 20 45 95 45 236 46<696 757 645 676 817 823 817 817> 236 175<750 768 750 771 676 768 750 884 750 817> 291 45<13 142 13 147 193 336 13 188> 385 45<406 465 366 486 406 406>
VStem: 13 323<291 336 291 336> 127 146 339 45 402 174 660 45 801 145
LayerCount: 2
Back
Fore
SplineSet
147 336 m 1xedf0
 152 377 l 1
 44 377 l 1
 74 411 114 448 98 500 c 1
 141 513 l 1
 150 485 147 452 134 422 c 1
 202 422 l 1
 193 336 l 1
 336 336 l 1xeef0
 336 291 l 1
 188 291 l 1
 176 189 l 2
 171 166 185 107 222 156 c 0
 227 162 237 198 217 193 c 1
 206 237 l 1
 272 254 289 173 259 130 c 0
 235 96 102 60 132 196 c 1
 142 291 l 1
 13 291 l 1
 13 336 l 1
 147 336 l 1xedf0
480 507 m 1
 523 521 l 1
 539 470 519 423 486 385 c 1
 406 385 l 1
 385 196 l 1
 371 129 484 121 524 175 c 0
 531 185 537 215 525 224 c 0
 524 224 523 225 521 224 c 2
 511 268 l 1
 575 284 591 193 560 150 c 0
 493 55 317 89 341 204 c 1
 366 430 l 1
 465 430 l 1
 483 455 487 485 480 507 c 1
448 238 m 1
 449 237 l 1
 427 198 l 1
 399 214 397 240 409 262 c 0
 431 300 498 339 535 366 c 0
 542 370 545 373 546 374 c 2
 579 344 l 1
 568 332 551 322 538 313 c 0
 518 300 456 260 448 238 c 1
705 421 m 1
 709 430 l 2
 711 435 714 453 710 459 c 0
 709 459 706 460 699 461 c 2
 698 461 l 1
 703 448 706 435 705 421 c 1
750 411 m 1xd1f0
 768 411 l 1xd1f0
 804 282 l 1xedf0
 823 282 l 1
 815 308 816 340 826 360 c 1
 866 343 l 1
 856 321 859 289 864 279 c 2
 884 236 l 1
 817 236 l 1
 851 114 l 1
 846 91 862 47 891 73 c 0
 897 78 911 120 891 115 c 1
 880 158 l 1
 951 176 959 89 932 52 c 0
 908 18 779 -18 804 113 c 1
 771 236 l 1
 676 236 l 1
 619 103 l 1
 578 121 l 1
 633 256 l 1
 633 281 l 1
 645 282 l 1
 681 366 l 1
 618 366 l 1
 678 435 662 422 638 500 c 1
 700 508 776 520 752 416 c 1
 750 411 l 1xd1f0
731 366 m 1
 696 282 l 1xedf0
 757 282 l 1
 734 366 l 1
 731 366 l 1
EndSplineSet
EndChar

StartChar: seven
Encoding: 55 55 34
Width: 1000
Flags: MW
HStem: 20 45 95 45 236 46<696 757 645 676 817 823 817 817> 236 175<750 768 750 771 676 768 750 884 750 817> 291 45<13 142 13 147 193 336 13 188> 385 45<406 465 366 486 406 406>
VStem: 13 323<291 336 291 336> 127 146 339 45 402 174 660 45 801 145
LayerCount: 2
Back
Fore
SplineSet
147 336 m 1xedf0
 152 377 l 1
 44 377 l 1
 74 411 114 448 98 500 c 1
 141 513 l 1
 150 485 147 452 134 422 c 1
 202 422 l 1
 193 336 l 1
 336 336 l 1xeef0
 336 291 l 1
 188 291 l 1
 176 189 l 2
 171 166 185 107 222 156 c 0
 227 162 237 198 217 193 c 1
 206 237 l 1
 272 254 289 173 259 130 c 0
 235 96 102 60 132 196 c 1
 142 291 l 1
 13 291 l 1
 13 336 l 1
 147 336 l 1xedf0
480 507 m 1
 523 521 l 1
 539 470 519 423 486 385 c 1
 406 385 l 1
 385 196 l 1
 371 129 484 121 524 175 c 0
 531 185 537 215 525 224 c 0
 524 224 523 225 521 224 c 2
 511 268 l 1
 575 284 591 193 560 150 c 0
 493 55 317 89 341 204 c 1
 366 430 l 1
 465 430 l 1
 483 455 487 485 480 507 c 1
448 238 m 1
 449 237 l 1
 427 198 l 1
 399 214 397 240 409 262 c 0
 431 300 498 339 535 366 c 0
 542 370 545 373 546 374 c 2
 579 344 l 1
 568 332 551 322 538 313 c 0
 518 300 456 260 448 238 c 1
705 421 m 1
 709 430 l 2
 711 435 714 453 710 459 c 0
 709 459 706 460 699 461 c 2
 698 461 l 1
 703 448 706 435 705 421 c 1
750 411 m 1xd1f0
 768 411 l 1xd1f0
 804 282 l 1xedf0
 823 282 l 1
 815 308 816 340 826 360 c 1
 866 343 l 1
 856 321 859 289 864 279 c 2
 884 236 l 1
 817 236 l 1
 851 114 l 1
 846 91 862 47 891 73 c 0
 897 78 911 120 891 115 c 1
 880 158 l 1
 951 176 959 89 932 52 c 0
 908 18 779 -18 804 113 c 1
 771 236 l 1
 676 236 l 1
 619 103 l 1
 578 121 l 1
 633 256 l 1
 633 281 l 1
 645 282 l 1
 681 366 l 1
 618 366 l 1
 678 435 662 422 638 500 c 1
 700 508 776 520 752 416 c 1
 750 411 l 1xd1f0
731 366 m 1
 696 282 l 1xedf0
 757 282 l 1
 734 366 l 1
 731 366 l 1
EndSplineSet
EndChar

StartChar: eight
Encoding: 56 56 35
Width: 1000
Flags: MW
HStem: 20 45 95 45 236 46<696 757 645 676 817 823 817 817> 236 175<750 768 750 771 676 768 750 884 750 817> 291 45<13 142 13 147 193 336 13 188> 385 45<406 465 366 486 406 406>
VStem: 13 323<291 336 291 336> 127 146 339 45 402 174 660 45 801 145
LayerCount: 2
Back
Fore
SplineSet
147 336 m 1xedf0
 152 377 l 1
 44 377 l 1
 74 411 114 448 98 500 c 1
 141 513 l 1
 150 485 147 452 134 422 c 1
 202 422 l 1
 193 336 l 1
 336 336 l 1xeef0
 336 291 l 1
 188 291 l 1
 176 189 l 2
 171 166 185 107 222 156 c 0
 227 162 237 198 217 193 c 1
 206 237 l 1
 272 254 289 173 259 130 c 0
 235 96 102 60 132 196 c 1
 142 291 l 1
 13 291 l 1
 13 336 l 1
 147 336 l 1xedf0
480 507 m 1
 523 521 l 1
 539 470 519 423 486 385 c 1
 406 385 l 1
 385 196 l 1
 371 129 484 121 524 175 c 0
 531 185 537 215 525 224 c 0
 524 224 523 225 521 224 c 2
 511 268 l 1
 575 284 591 193 560 150 c 0
 493 55 317 89 341 204 c 1
 366 430 l 1
 465 430 l 1
 483 455 487 485 480 507 c 1
448 238 m 1
 449 237 l 1
 427 198 l 1
 399 214 397 240 409 262 c 0
 431 300 498 339 535 366 c 0
 542 370 545 373 546 374 c 2
 579 344 l 1
 568 332 551 322 538 313 c 0
 518 300 456 260 448 238 c 1
705 421 m 1
 709 430 l 2
 711 435 714 453 710 459 c 0
 709 459 706 460 699 461 c 2
 698 461 l 1
 703 448 706 435 705 421 c 1
750 411 m 1xd1f0
 768 411 l 1xd1f0
 804 282 l 1xedf0
 823 282 l 1
 815 308 816 340 826 360 c 1
 866 343 l 1
 856 321 859 289 864 279 c 2
 884 236 l 1
 817 236 l 1
 851 114 l 1
 846 91 862 47 891 73 c 0
 897 78 911 120 891 115 c 1
 880 158 l 1
 951 176 959 89 932 52 c 0
 908 18 779 -18 804 113 c 1
 771 236 l 1
 676 236 l 1
 619 103 l 1
 578 121 l 1
 633 256 l 1
 633 281 l 1
 645 282 l 1
 681 366 l 1
 618 366 l 1
 678 435 662 422 638 500 c 1
 700 508 776 520 752 416 c 1
 750 411 l 1xd1f0
731 366 m 1
 696 282 l 1xedf0
 757 282 l 1
 734 366 l 1
 731 366 l 1
EndSplineSet
EndChar

StartChar: nine
Encoding: 57 57 36
Width: 1000
Flags: MW
HStem: 20 45 95 45 236 46<696 757 645 676 817 823 817 817> 236 175<750 768 750 771 676 768 750 884 750 817> 291 45<13 142 13 147 193 336 13 188> 385 45<406 465 366 486 406 406>
VStem: 13 323<291 336 291 336> 127 146 339 45 402 174 660 45 801 145
LayerCount: 2
Back
Fore
SplineSet
147 336 m 1xedf0
 152 377 l 1
 44 377 l 1
 74 411 114 448 98 500 c 1
 141 513 l 1
 150 485 147 452 134 422 c 1
 202 422 l 1
 193 336 l 1
 336 336 l 1xeef0
 336 291 l 1
 188 291 l 1
 176 189 l 2
 171 166 185 107 222 156 c 0
 227 162 237 198 217 193 c 1
 206 237 l 1
 272 254 289 173 259 130 c 0
 235 96 102 60 132 196 c 1
 142 291 l 1
 13 291 l 1
 13 336 l 1
 147 336 l 1xedf0
480 507 m 1
 523 521 l 1
 539 470 519 423 486 385 c 1
 406 385 l 1
 385 196 l 1
 371 129 484 121 524 175 c 0
 531 185 537 215 525 224 c 0
 524 224 523 225 521 224 c 2
 511 268 l 1
 575 284 591 193 560 150 c 0
 493 55 317 89 341 204 c 1
 366 430 l 1
 465 430 l 1
 483 455 487 485 480 507 c 1
448 238 m 1
 449 237 l 1
 427 198 l 1
 399 214 397 240 409 262 c 0
 431 300 498 339 535 366 c 0
 542 370 545 373 546 374 c 2
 579 344 l 1
 568 332 551 322 538 313 c 0
 518 300 456 260 448 238 c 1
705 421 m 1
 709 430 l 2
 711 435 714 453 710 459 c 0
 709 459 706 460 699 461 c 2
 698 461 l 1
 703 448 706 435 705 421 c 1
750 411 m 1xd1f0
 768 411 l 1xd1f0
 804 282 l 1xedf0
 823 282 l 1
 815 308 816 340 826 360 c 1
 866 343 l 1
 856 321 859 289 864 279 c 2
 884 236 l 1
 817 236 l 1
 851 114 l 1
 846 91 862 47 891 73 c 0
 897 78 911 120 891 115 c 1
 880 158 l 1
 951 176 959 89 932 52 c 0
 908 18 779 -18 804 113 c 1
 771 236 l 1
 676 236 l 1
 619 103 l 1
 578 121 l 1
 633 256 l 1
 633 281 l 1
 645 282 l 1
 681 366 l 1
 618 366 l 1
 678 435 662 422 638 500 c 1
 700 508 776 520 752 416 c 1
 750 411 l 1xd1f0
731 366 m 1
 696 282 l 1xedf0
 757 282 l 1
 734 366 l 1
 731 366 l 1
EndSplineSet
EndChar

StartChar: colon
Encoding: 58 58 37
Width: 1000
Flags: MW
HStem: 20 45 95 45 236 46<696 757 645 676 817 823 817 817> 236 175<750 768 750 771 676 768 750 884 750 817> 291 45<13 142 13 147 193 336 13 188> 385 45<406 465 366 486 406 406>
VStem: 13 323<291 336 291 336> 127 146 339 45 402 174 660 45 801 145
LayerCount: 2
Back
Fore
SplineSet
147 336 m 1xedf0
 152 377 l 1
 44 377 l 1
 74 411 114 448 98 500 c 1
 141 513 l 1
 150 485 147 452 134 422 c 1
 202 422 l 1
 193 336 l 1
 336 336 l 1xeef0
 336 291 l 1
 188 291 l 1
 176 189 l 2
 171 166 185 107 222 156 c 0
 227 162 237 198 217 193 c 1
 206 237 l 1
 272 254 289 173 259 130 c 0
 235 96 102 60 132 196 c 1
 142 291 l 1
 13 291 l 1
 13 336 l 1
 147 336 l 1xedf0
480 507 m 1
 523 521 l 1
 539 470 519 423 486 385 c 1
 406 385 l 1
 385 196 l 1
 371 129 484 121 524 175 c 0
 531 185 537 215 525 224 c 0
 524 224 523 225 521 224 c 2
 511 268 l 1
 575 284 591 193 560 150 c 0
 493 55 317 89 341 204 c 1
 366 430 l 1
 465 430 l 1
 483 455 487 485 480 507 c 1
448 238 m 1
 449 237 l 1
 427 198 l 1
 399 214 397 240 409 262 c 0
 431 300 498 339 535 366 c 0
 542 370 545 373 546 374 c 2
 579 344 l 1
 568 332 551 322 538 313 c 0
 518 300 456 260 448 238 c 1
705 421 m 1
 709 430 l 2
 711 435 714 453 710 459 c 0
 709 459 706 460 699 461 c 2
 698 461 l 1
 703 448 706 435 705 421 c 1
750 411 m 1xd1f0
 768 411 l 1xd1f0
 804 282 l 1xedf0
 823 282 l 1
 815 308 816 340 826 360 c 1
 866 343 l 1
 856 321 859 289 864 279 c 2
 884 236 l 1
 817 236 l 1
 851 114 l 1
 846 91 862 47 891 73 c 0
 897 78 911 120 891 115 c 1
 880 158 l 1
 951 176 959 89 932 52 c 0
 908 18 779 -18 804 113 c 1
 771 236 l 1
 676 236 l 1
 619 103 l 1
 578 121 l 1
 633 256 l 1
 633 281 l 1
 645 282 l 1
 681 366 l 1
 618 366 l 1
 678 435 662 422 638 500 c 1
 700 508 776 520 752 416 c 1
 750 411 l 1xd1f0
731 366 m 1
 696 282 l 1xedf0
 757 282 l 1
 734 366 l 1
 731 366 l 1
EndSplineSet
EndChar

StartChar: semicolon
Encoding: 59 59 38
Width: 1000
Flags: MW
HStem: 20 45 95 45 236 46<696 757 645 676 817 823 817 817> 236 175<750 768 750 771 676 768 750 884 750 817> 291 45<13 142 13 147 193 336 13 188> 385 45<406 465 366 486 406 406>
VStem: 13 323<291 336 291 336> 127 146 339 45 402 174 660 45 801 145
LayerCount: 2
Back
Fore
SplineSet
147 336 m 1xedf0
 152 377 l 1
 44 377 l 1
 74 411 114 448 98 500 c 1
 141 513 l 1
 150 485 147 452 134 422 c 1
 202 422 l 1
 193 336 l 1
 336 336 l 1xeef0
 336 291 l 1
 188 291 l 1
 176 189 l 2
 171 166 185 107 222 156 c 0
 227 162 237 198 217 193 c 1
 206 237 l 1
 272 254 289 173 259 130 c 0
 235 96 102 60 132 196 c 1
 142 291 l 1
 13 291 l 1
 13 336 l 1
 147 336 l 1xedf0
480 507 m 1
 523 521 l 1
 539 470 519 423 486 385 c 1
 406 385 l 1
 385 196 l 1
 371 129 484 121 524 175 c 0
 531 185 537 215 525 224 c 0
 524 224 523 225 521 224 c 2
 511 268 l 1
 575 284 591 193 560 150 c 0
 493 55 317 89 341 204 c 1
 366 430 l 1
 465 430 l 1
 483 455 487 485 480 507 c 1
448 238 m 1
 449 237 l 1
 427 198 l 1
 399 214 397 240 409 262 c 0
 431 300 498 339 535 366 c 0
 542 370 545 373 546 374 c 2
 579 344 l 1
 568 332 551 322 538 313 c 0
 518 300 456 260 448 238 c 1
705 421 m 1
 709 430 l 2
 711 435 714 453 710 459 c 0
 709 459 706 460 699 461 c 2
 698 461 l 1
 703 448 706 435 705 421 c 1
750 411 m 1xd1f0
 768 411 l 1xd1f0
 804 282 l 1xedf0
 823 282 l 1
 815 308 816 340 826 360 c 1
 866 343 l 1
 856 321 859 289 864 279 c 2
 884 236 l 1
 817 236 l 1
 851 114 l 1
 846 91 862 47 891 73 c 0
 897 78 911 120 891 115 c 1
 880 158 l 1
 951 176 959 89 932 52 c 0
 908 18 779 -18 804 113 c 1
 771 236 l 1
 676 236 l 1
 619 103 l 1
 578 121 l 1
 633 256 l 1
 633 281 l 1
 645 282 l 1
 681 366 l 1
 618 366 l 1
 678 435 662 422 638 500 c 1
 700 508 776 520 752 416 c 1
 750 411 l 1xd1f0
731 366 m 1
 696 282 l 1xedf0
 757 282 l 1
 734 366 l 1
 731 366 l 1
EndSplineSet
EndChar

StartChar: less
Encoding: 60 60 39
Width: 1000
Flags: MW
HStem: 20 45 95 45 236 46<696 757 645 676 817 823 817 817> 236 175<750 768 750 771 676 768 750 884 750 817> 291 45<13 142 13 147 193 336 13 188> 385 45<406 465 366 486 406 406>
VStem: 13 323<291 336 291 336> 127 146 339 45 402 174 660 45 801 145
LayerCount: 2
Back
Fore
SplineSet
147 336 m 1xedf0
 152 377 l 1
 44 377 l 1
 74 411 114 448 98 500 c 1
 141 513 l 1
 150 485 147 452 134 422 c 1
 202 422 l 1
 193 336 l 1
 336 336 l 1xeef0
 336 291 l 1
 188 291 l 1
 176 189 l 2
 171 166 185 107 222 156 c 0
 227 162 237 198 217 193 c 1
 206 237 l 1
 272 254 289 173 259 130 c 0
 235 96 102 60 132 196 c 1
 142 291 l 1
 13 291 l 1
 13 336 l 1
 147 336 l 1xedf0
480 507 m 1
 523 521 l 1
 539 470 519 423 486 385 c 1
 406 385 l 1
 385 196 l 1
 371 129 484 121 524 175 c 0
 531 185 537 215 525 224 c 0
 524 224 523 225 521 224 c 2
 511 268 l 1
 575 284 591 193 560 150 c 0
 493 55 317 89 341 204 c 1
 366 430 l 1
 465 430 l 1
 483 455 487 485 480 507 c 1
448 238 m 1
 449 237 l 1
 427 198 l 1
 399 214 397 240 409 262 c 0
 431 300 498 339 535 366 c 0
 542 370 545 373 546 374 c 2
 579 344 l 1
 568 332 551 322 538 313 c 0
 518 300 456 260 448 238 c 1
705 421 m 1
 709 430 l 2
 711 435 714 453 710 459 c 0
 709 459 706 460 699 461 c 2
 698 461 l 1
 703 448 706 435 705 421 c 1
750 411 m 1xd1f0
 768 411 l 1xd1f0
 804 282 l 1xedf0
 823 282 l 1
 815 308 816 340 826 360 c 1
 866 343 l 1
 856 321 859 289 864 279 c 2
 884 236 l 1
 817 236 l 1
 851 114 l 1
 846 91 862 47 891 73 c 0
 897 78 911 120 891 115 c 1
 880 158 l 1
 951 176 959 89 932 52 c 0
 908 18 779 -18 804 113 c 1
 771 236 l 1
 676 236 l 1
 619 103 l 1
 578 121 l 1
 633 256 l 1
 633 281 l 1
 645 282 l 1
 681 366 l 1
 618 366 l 1
 678 435 662 422 638 500 c 1
 700 508 776 520 752 416 c 1
 750 411 l 1xd1f0
731 366 m 1
 696 282 l 1xedf0
 757 282 l 1
 734 366 l 1
 731 366 l 1
EndSplineSet
EndChar

StartChar: equal
Encoding: 61 61 40
Width: 1000
Flags: MW
HStem: 20 45 95 45 236 46<696 757 645 676 817 823 817 817> 236 175<750 768 750 771 676 768 750 884 750 817> 291 45<13 142 13 147 193 336 13 188> 385 45<406 465 366 486 406 406>
VStem: 13 323<291 336 291 336> 127 146 339 45 402 174 660 45 801 145
LayerCount: 2
Back
Fore
SplineSet
147 336 m 1xedf0
 152 377 l 1
 44 377 l 1
 74 411 114 448 98 500 c 1
 141 513 l 1
 150 485 147 452 134 422 c 1
 202 422 l 1
 193 336 l 1
 336 336 l 1xeef0
 336 291 l 1
 188 291 l 1
 176 189 l 2
 171 166 185 107 222 156 c 0
 227 162 237 198 217 193 c 1
 206 237 l 1
 272 254 289 173 259 130 c 0
 235 96 102 60 132 196 c 1
 142 291 l 1
 13 291 l 1
 13 336 l 1
 147 336 l 1xedf0
480 507 m 1
 523 521 l 1
 539 470 519 423 486 385 c 1
 406 385 l 1
 385 196 l 1
 371 129 484 121 524 175 c 0
 531 185 537 215 525 224 c 0
 524 224 523 225 521 224 c 2
 511 268 l 1
 575 284 591 193 560 150 c 0
 493 55 317 89 341 204 c 1
 366 430 l 1
 465 430 l 1
 483 455 487 485 480 507 c 1
448 238 m 1
 449 237 l 1
 427 198 l 1
 399 214 397 240 409 262 c 0
 431 300 498 339 535 366 c 0
 542 370 545 373 546 374 c 2
 579 344 l 1
 568 332 551 322 538 313 c 0
 518 300 456 260 448 238 c 1
705 421 m 1
 709 430 l 2
 711 435 714 453 710 459 c 0
 709 459 706 460 699 461 c 2
 698 461 l 1
 703 448 706 435 705 421 c 1
750 411 m 1xd1f0
 768 411 l 1xd1f0
 804 282 l 1xedf0
 823 282 l 1
 815 308 816 340 826 360 c 1
 866 343 l 1
 856 321 859 289 864 279 c 2
 884 236 l 1
 817 236 l 1
 851 114 l 1
 846 91 862 47 891 73 c 0
 897 78 911 120 891 115 c 1
 880 158 l 1
 951 176 959 89 932 52 c 0
 908 18 779 -18 804 113 c 1
 771 236 l 1
 676 236 l 1
 619 103 l 1
 578 121 l 1
 633 256 l 1
 633 281 l 1
 645 282 l 1
 681 366 l 1
 618 366 l 1
 678 435 662 422 638 500 c 1
 700 508 776 520 752 416 c 1
 750 411 l 1xd1f0
731 366 m 1
 696 282 l 1xedf0
 757 282 l 1
 734 366 l 1
 731 366 l 1
EndSplineSet
EndChar

StartChar: greater
Encoding: 62 62 41
Width: 1000
Flags: MW
HStem: 20 45 95 45 236 46<696 757 645 676 817 823 817 817> 236 175<750 768 750 771 676 768 750 884 750 817> 291 45<13 142 13 147 193 336 13 188> 385 45<406 465 366 486 406 406>
VStem: 13 323<291 336 291 336> 127 146 339 45 402 174 660 45 801 145
LayerCount: 2
Back
Fore
SplineSet
147 336 m 1xedf0
 152 377 l 1
 44 377 l 1
 74 411 114 448 98 500 c 1
 141 513 l 1
 150 485 147 452 134 422 c 1
 202 422 l 1
 193 336 l 1
 336 336 l 1xeef0
 336 291 l 1
 188 291 l 1
 176 189 l 2
 171 166 185 107 222 156 c 0
 227 162 237 198 217 193 c 1
 206 237 l 1
 272 254 289 173 259 130 c 0
 235 96 102 60 132 196 c 1
 142 291 l 1
 13 291 l 1
 13 336 l 1
 147 336 l 1xedf0
480 507 m 1
 523 521 l 1
 539 470 519 423 486 385 c 1
 406 385 l 1
 385 196 l 1
 371 129 484 121 524 175 c 0
 531 185 537 215 525 224 c 0
 524 224 523 225 521 224 c 2
 511 268 l 1
 575 284 591 193 560 150 c 0
 493 55 317 89 341 204 c 1
 366 430 l 1
 465 430 l 1
 483 455 487 485 480 507 c 1
448 238 m 1
 449 237 l 1
 427 198 l 1
 399 214 397 240 409 262 c 0
 431 300 498 339 535 366 c 0
 542 370 545 373 546 374 c 2
 579 344 l 1
 568 332 551 322 538 313 c 0
 518 300 456 260 448 238 c 1
705 421 m 1
 709 430 l 2
 711 435 714 453 710 459 c 0
 709 459 706 460 699 461 c 2
 698 461 l 1
 703 448 706 435 705 421 c 1
750 411 m 1xd1f0
 768 411 l 1xd1f0
 804 282 l 1xedf0
 823 282 l 1
 815 308 816 340 826 360 c 1
 866 343 l 1
 856 321 859 289 864 279 c 2
 884 236 l 1
 817 236 l 1
 851 114 l 1
 846 91 862 47 891 73 c 0
 897 78 911 120 891 115 c 1
 880 158 l 1
 951 176 959 89 932 52 c 0
 908 18 779 -18 804 113 c 1
 771 236 l 1
 676 236 l 1
 619 103 l 1
 578 121 l 1
 633 256 l 1
 633 281 l 1
 645 282 l 1
 681 366 l 1
 618 366 l 1
 678 435 662 422 638 500 c 1
 700 508 776 520 752 416 c 1
 750 411 l 1xd1f0
731 366 m 1
 696 282 l 1xedf0
 757 282 l 1
 734 366 l 1
 731 366 l 1
EndSplineSet
EndChar

StartChar: question
Encoding: 63 63 42
Width: 1000
Flags: MW
HStem: 20 45 95 45 236 46<696 757 645 676 817 823 817 817> 236 175<750 768 750 771 676 768 750 884 750 817> 291 45<13 142 13 147 193 336 13 188> 385 45<406 465 366 486 406 406>
VStem: 13 323<291 336 291 336> 127 146 339 45 402 174 660 45 801 145
LayerCount: 2
Back
Fore
SplineSet
147 336 m 1xedf0
 152 377 l 1
 44 377 l 1
 74 411 114 448 98 500 c 1
 141 513 l 1
 150 485 147 452 134 422 c 1
 202 422 l 1
 193 336 l 1
 336 336 l 1xeef0
 336 291 l 1
 188 291 l 1
 176 189 l 2
 171 166 185 107 222 156 c 0
 227 162 237 198 217 193 c 1
 206 237 l 1
 272 254 289 173 259 130 c 0
 235 96 102 60 132 196 c 1
 142 291 l 1
 13 291 l 1
 13 336 l 1
 147 336 l 1xedf0
480 507 m 1
 523 521 l 1
 539 470 519 423 486 385 c 1
 406 385 l 1
 385 196 l 1
 371 129 484 121 524 175 c 0
 531 185 537 215 525 224 c 0
 524 224 523 225 521 224 c 2
 511 268 l 1
 575 284 591 193 560 150 c 0
 493 55 317 89 341 204 c 1
 366 430 l 1
 465 430 l 1
 483 455 487 485 480 507 c 1
448 238 m 1
 449 237 l 1
 427 198 l 1
 399 214 397 240 409 262 c 0
 431 300 498 339 535 366 c 0
 542 370 545 373 546 374 c 2
 579 344 l 1
 568 332 551 322 538 313 c 0
 518 300 456 260 448 238 c 1
705 421 m 1
 709 430 l 2
 711 435 714 453 710 459 c 0
 709 459 706 460 699 461 c 2
 698 461 l 1
 703 448 706 435 705 421 c 1
750 411 m 1xd1f0
 768 411 l 1xd1f0
 804 282 l 1xedf0
 823 282 l 1
 815 308 816 340 826 360 c 1
 866 343 l 1
 856 321 859 289 864 279 c 2
 884 236 l 1
 817 236 l 1
 851 114 l 1
 846 91 862 47 891 73 c 0
 897 78 911 120 891 115 c 1
 880 158 l 1
 951 176 959 89 932 52 c 0
 908 18 779 -18 804 113 c 1
 771 236 l 1
 676 236 l 1
 619 103 l 1
 578 121 l 1
 633 256 l 1
 633 281 l 1
 645 282 l 1
 681 366 l 1
 618 366 l 1
 678 435 662 422 638 500 c 1
 700 508 776 520 752 416 c 1
 750 411 l 1xd1f0
731 366 m 1
 696 282 l 1xedf0
 757 282 l 1
 734 366 l 1
 731 366 l 1
EndSplineSet
EndChar

StartChar: at
Encoding: 64 64 43
Width: 1000
Flags: MW
HStem: 20 45 95 45 236 46<696 757 645 676 817 823 817 817> 236 175<750 768 750 771 676 768 750 884 750 817> 291 45<13 142 13 147 193 336 13 188> 385 45<406 465 366 486 406 406>
VStem: 13 323<291 336 291 336> 127 146 339 45 402 174 660 45 801 145
LayerCount: 2
Back
Fore
SplineSet
147 336 m 1xedf0
 152 377 l 1
 44 377 l 1
 74 411 114 448 98 500 c 1
 141 513 l 1
 150 485 147 452 134 422 c 1
 202 422 l 1
 193 336 l 1
 336 336 l 1xeef0
 336 291 l 1
 188 291 l 1
 176 189 l 2
 171 166 185 107 222 156 c 0
 227 162 237 198 217 193 c 1
 206 237 l 1
 272 254 289 173 259 130 c 0
 235 96 102 60 132 196 c 1
 142 291 l 1
 13 291 l 1
 13 336 l 1
 147 336 l 1xedf0
480 507 m 1
 523 521 l 1
 539 470 519 423 486 385 c 1
 406 385 l 1
 385 196 l 1
 371 129 484 121 524 175 c 0
 531 185 537 215 525 224 c 0
 524 224 523 225 521 224 c 2
 511 268 l 1
 575 284 591 193 560 150 c 0
 493 55 317 89 341 204 c 1
 366 430 l 1
 465 430 l 1
 483 455 487 485 480 507 c 1
448 238 m 1
 449 237 l 1
 427 198 l 1
 399 214 397 240 409 262 c 0
 431 300 498 339 535 366 c 0
 542 370 545 373 546 374 c 2
 579 344 l 1
 568 332 551 322 538 313 c 0
 518 300 456 260 448 238 c 1
705 421 m 1
 709 430 l 2
 711 435 714 453 710 459 c 0
 709 459 706 460 699 461 c 2
 698 461 l 1
 703 448 706 435 705 421 c 1
750 411 m 1xd1f0
 768 411 l 1xd1f0
 804 282 l 1xedf0
 823 282 l 1
 815 308 816 340 826 360 c 1
 866 343 l 1
 856 321 859 289 864 279 c 2
 884 236 l 1
 817 236 l 1
 851 114 l 1
 846 91 862 47 891 73 c 0
 897 78 911 120 891 115 c 1
 880 158 l 1
 951 176 959 89 932 52 c 0
 908 18 779 -18 804 113 c 1
 771 236 l 1
 676 236 l 1
 619 103 l 1
 578 121 l 1
 633 256 l 1
 633 281 l 1
 645 282 l 1
 681 366 l 1
 618 366 l 1
 678 435 662 422 638 500 c 1
 700 508 776 520 752 416 c 1
 750 411 l 1xd1f0
731 366 m 1
 696 282 l 1xedf0
 757 282 l 1
 734 366 l 1
 731 366 l 1
EndSplineSet
EndChar

StartChar: A
Encoding: 65 65 44
Width: 661
Flags: MW
HStem: -206 163<585 679 545 734> -37 147<156 156 156 247 71 156> 174 79<335 390 335 402 320 390> 443 183<472 582 466 634>
VStem: 287 124
LayerCount: 2
Back
Fore
SplineSet
585 -43 m 1
 734 -43 l 1
 679 -206 l 1
 658 -206 545 -206 545 -206 c 1
 504 -196 454 -169 448 -126 c 2
 402 174 l 1
 320 174 l 1
 284 4 l 1
 247 -37 l 1
 71 -37 l 1
 15 -15 21 65 25 109 c 1
 156 110 l 1
 232 249 l 1
 287 333 256 367 256 407 c 1
 242 419 214 427 232 477 c 1
 281 556 l 1
 292 634 295 611 238 694 c 1
 411 736 l 1
 411 533 l 1
 472 626 l 1
 634 626 l 1
 543 585 582 451 582 443 c 1
 466 443 l 1
 585 -43 l 1
335 253 m 1
 390 253 l 1
 363 420 l 1
 335 253 l 1
EndSplineSet
EndChar

StartChar: B
Encoding: 66 66 45
Width: 559
Flags: MW
HStem: 638 20G<136 263 263 263>
LayerCount: 2
Back
Fore
SplineSet
311 364 m 1
 446 412 l 1
 413 535 l 1
 367 463 323 459 259 435 c 1
 243 342 280 281 344 268 c 1
 311 364 l 1
357 237 m 1
 300 135 l 1
 392 66 l 1
 443 63 455 183 377 180 c 1
 357 237 l 1
368 -3 m 1
 275 94 l 1
 254 54 l 1
 308 3 l 1
 272 -54 l 1
 88 -54 l 1
 43 -25 28 42 58 87 c 1
 151 87 l 1
 214 199 l 1
 143 214 129 326 130 382 c 1
 106 409 l 1
 157 439 l 1
 170 536 145 586 91 622 c 1
 136 658 l 1
 263 658 l 1
 261 526 l 1
 335 634 l 1
 518 634 l 1
 501 585 527 544 557 538 c 1
 518 349 l 1
 383 349 l 1
 533 180 l 1
 488 -12 l 1
 368 -3 l 1
EndSplineSet
EndChar

StartChar: C
Encoding: 67 67 46
Width: 556
Flags: MW
HStem: 1 132<407 462 286 537> 492 179
VStem: 68 133<110 469> 68 263<110 171> 127 128
LayerCount: 2
Back
Fore
SplineSet
107 610 m 1xc8
 107 610 143 659 120 689 c 1
 255 689 l 1
 255 660 l 1
 352 683 402 668 478 619 c 1
 489 635 512 653 521 662 c 1
 556 627 l 1
 544 618 533 604 523 589 c 1
 552 570 l 1
 538 551 514 518 495 492 c 1
 482 492 l 1
 473 457 469 424 472 397 c 1
 423 397 l 1
 417 424 419 464 428 492 c 1
 362 492 l 1
 346 529 l 1
 314 543 l 1
 285 502 247 476 201 469 c 1xd0
 201 197 l 1
 284 139 l 1
 331 171 l 1xe0
 332 142 351 117 379 95 c 1
 407 133 l 1
 537 133 l 1
 462 1 l 1
 286 1 l 1
 248 -34 l 1
 170 -33 l 2
 173 -36 179 -3 179 -3 c 1
 176 58 137 110 68 110 c 1
 69 550 l 1
 40 578 l 2
 42 579 107 610 107 610 c 1xc8
EndSplineSet
EndChar

StartChar: D
Encoding: 68 68 47
Width: 571
Flags: MW
HStem: -54 130<79 135 64 262 79 79> -12 78 653 20G<138 138>
VStem: 121 128
LayerCount: 2
Back
Fore
SplineSet
255 98 m 1xb0
 244 54 l 1
 298 3 l 1
 262 -54 l 1
 79 -54 l 1
 33 -25 34 31 64 76 c 1
 135 76 l 1
 187 221 l 1
 138 242 120 326 121 382 c 1
 97 409 l 1
 148 439 l 1
 161 536 131 563 76 599 c 1
 138 673 l 1
 249 627 l 1
 249 526 l 1
 325 634 l 1
 509 634 l 1
 492 585 518 544 548 538 c 1
 501 430 l 1
 568 268 l 1
 547 178 l 1
 479 -12 l 1x70
 360 -13 l 1
 255 98 l 1xb0
269 151 m 1
 382 66 l 1
 433 63 469 181 391 178 c 1
 483 295 l 1
 360 513 l 1
 360 513 314 473 250 438 c 1
 250 436 l 1
 246 279 252 310 298 261 c 1
 269 151 l 1
EndSplineSet
EndChar

StartChar: E
Encoding: 69 69 48
Width: 593
Flags: MW
HStem: -34 127<78 132 34 245 78 78> 1 132<403 525 282 599> 448 215<358 491 358 358>
VStem: 105 125
LayerCount: 2
Back
Fore
SplineSet
116 645 m 1xb0
 251 645 l 1
 251 615 l 1
 350 663 l 1
 531 663 l 1
 488 594 520 529 548 517 c 1
 532 500 521 475 491 448 c 1
 358 448 l 1
 326 511 l 1
 228 479 210 318 248 286 c 1
 349 332 l 1
 389 246 l 1
 245 252 251 116 248 93 c 1
 375 93 l 1
 403 133 l 1xb0
 599 133 l 1
 525 1 l 1
 282 1 l 1
 245 -34 l 1x70
 78 -34 l 1
 25 -15 31 54 34 93 c 1
 132 93 l 1
 208 220 l 1
 107 224 132 315 132 350 c 1
 119 360 93 413 110 457 c 1
 156 526 l 1
 168 593 170 573 116 645 c 1xb0
EndSplineSet
EndChar

StartChar: F
Encoding: 70 70 49
Width: 478
Flags: MW
HStem: -37 130<79 98 36 111 79 79> 246 86<186 323> 450 197 450 199 656 20G<262 262>
LayerCount: 2
Back
Fore
SplineSet
111 -37 m 1
 79 -37 l 1
 27 -18 32 54 36 93 c 1
 98 93 l 1
 138 233 l 1
 37 237 75 289 75 323 c 1
 57 320 33 338 57 375 c 1
 105 531 l 1
 36 549 30 564 49 631 c 1
 184 631 l 1
 184 601 l 1
 262 676 l 1
 321 641 411 647 463 649 c 1
 443 580 452 515 481 504 c 1
 464 486 445 476 415 450 c 1
 289 450 l 1
 244 492 l 1
 145 460 149 364 186 332 c 1
 282 332 l 1
 323 246 l 1
 178 252 204 116 203 93 c 0
 202 70 209 29 241 1 c 1
 212 1 93 1 93 1 c 1
 111 -37 l 1
EndSplineSet
EndChar

StartChar: G
Encoding: 71 71 50
Width: 579
Flags: MW
HStem: 1 259<333 396 177 508> 145 115<387 471 387 387>
VStem: 64 133<197 425 197 505 197 505> 64 263<171 171 171 505> 177 297
LayerCount: 2
Back
Fore
SplineSet
64 505 m 1x88
 36 534 l 1
 111 618 l 1
 151 586 l 1
 319 646 376 638 474 574 c 1
 484 591 508 609 517 618 c 1
 552 583 l 1
 498 539 459 422 468 352 c 1
 419 355 l 1
 412 384 414 423 428 450 c 1
 318 511 l 1
 288 470 243 431 197 425 c 1xa0
 197 197 l 1
 281 139 l 1
 327 171 l 1x88
 328 133 361 102 402 76 c 1
 471 145 l 1
 387 145 l 1
 383 195 381 214 333 260 c 1
 508 260 l 1
 583 179 l 1
 457 50 454 -80 506 -123 c 1
 422 -161 l 1
 367 -112 l 1
 396 1 l 1x50
 177 1 l 1
 174 61 134 110 64 110 c 1xa0
 64 505 l 1x88
EndSplineSet
EndChar

StartChar: H
Encoding: 72 72 51
Width: 507
Flags: MW
HStem: 275 253<48 119>
VStem: 243 48<448 448 448 641> 243 51<540 540 540 641>
LayerCount: 2
Back
Fore
SplineSet
345 393 m 1xc0
 291 448 l 1xc0
 294 540 l 1xa0
 299 672 l 1
 363 721 l 1
 394 678 466 646 492 655 c 1
 458 583 l 1
 450 443 413 89 495 -48 c 1
 340 -48 l 1
 312 -43 311 38 314 110 c 1
 325 128 331 154 343 174 c 1
 337 240 342 290 341 303 c 1
 243 257 l 1
 250 199 241 125 236 93 c 1
 285 58 l 1
 259 1 l 1
 123 1 l 1
 97 50 l 1
 142 156 l 1
 74 185 l 1
 87 277 l 1
 119 275 l 1
 153 292 l 1
 153 401 l 1
 101 448 l 1
 101 528 l 1
 48 528 l 1
 86 560 68 643 60 690 c 1
 243 641 l 1
 243 338 l 1
 345 393 l 1xc0
EndSplineSet
EndChar

StartChar: I
Encoding: 73 73 52
Width: 617
Flags: MW
HStem: -45 181<78 222 75 248> -43 231<479 531 479 479> 1 135<78 268> 1 187<450 508 268 611> 450 156<473 565 326 597 473 473> 491 155<124 225 124 124> 497 109<381 438 381 381>
LayerCount: 2
Back
Fore
SplineSet
66 646 m 1x14
 294 646 l 1
 326 606 l 1x84
 565 606 l 1
 617 554 614 505 597 450 c 1x12
 473 450 l 1
 438 497 l 1x42
 381 497 l 1
 415 433 404 358 332 292 c 1
 398 185 l 1
 366 139 l 1
 412 136 l 1
 450 188 l 1x12
 611 188 l 1
 617 99 583 15 531 -43 c 1x22
 479 -43 l 1
 508 1 l 1x18
 268 1 l 1
 222 -45 l 1x12
 75 -45 l 1
 59 2 45 79 78 136 c 1
 248 136 l 1
 176 263 l 1
 280 413 l 1
 225 491 l 1
 124 491 l 1
 87 425 l 1
 38 439 l 1
 82 524 94 561 66 646 c 1x14
EndSplineSet
EndChar

StartChar: J
Encoding: 74 74 53
Width: 657
Flags: MW
HStem: -45 20 0 140<439 484> 439 207<94 155 58 357> 450 156<535 628 388 659 535 535> 491 155<288 288> 497 109<443 501 443 443>
VStem: 120 319
LayerCount: 2
Back
Fore
SplineSet
439 0 m 1xca
 331 1 l 1
 285 -45 l 1
 138 -45 l 1
 121 2 107 79 141 136 c 1
 27 137 l 1
 61 289 l 1
 259 189 l 1
 216 113 l 1
 280 97 l 1
 305 137 l 1
 239 263 l 1
 342 413 l 1
 288 491 l 1
 189 490 l 1
 155 439 l 1xc6
 58 439 l 1
 101 524 122 560 94 646 c 1
 357 646 l 1
 388 606 l 1xd2
 628 606 l 1
 680 554 677 505 659 450 c 1xc6
 535 450 l 1
 501 497 l 1xe2
 443 497 l 1
 478 433 466 358 394 292 c 1
 461 185 l 1
 429 139 l 1
 484 140 l 1
 448 100 436 49 439 0 c 1xca
EndSplineSet
EndChar

StartChar: K
Encoding: 75 75 54
Width: 580
Flags: MW
HStem: -93 21G<265 265>
VStem: 49 147<0 44 0 44> 119 96 123 93 305 87 308 140
LayerCount: 2
Back
Fore
SplineSet
333 432 m 1x94
 293 492 299 559 360 643 c 1
 591 644 l 1x94
 474 600 418 510 465 433 c 1
 340 342 l 1
 427 345 l 1
 353 241 416 70 427 -26 c 1
 490 -26 l 1
 487 -59 447 -77 470 -174 c 1
 265 -93 l 1
 307 5 327 34 269 149 c 1
 313 261 l 1
 215 215 l 1
 216 90 l 1xa8
 256 64 l 1
 225 49 197 14 196 0 c 1
 49 1 l 1
 49 44 l 1xc8
 112 161 l 1
 126 401 l 1
 92 384 l 1
 69 439 l 1
 152 448 132 626 57 560 c 1
 57 560 40 618 31 641 c 1
 286 690 l 1
 216 608 216 429 216 352 c 1
 252 379 289 402 333 432 c 1x94
EndSplineSet
EndChar

StartChar: L
Encoding: 76 76 55
Width: 636
Flags: MW
HStem: -54 192<162 162 162 241 51 162> 1 92<285 337 285 610 285 337> 1 173<394 527 394 610 285 527> 1 271<584 610> 526 129<146 159 104 273>
LayerCount: 2
Back
Fore
SplineSet
146 655 m 1x48
 273 655 l 1
 350 584 405 513 325 372 c 1
 420 298 l 1
 285 93 l 1
 337 93 l 1
 394 174 l 1x88
 527 174 l 1
 538 208 547 243 584 272 c 1x18
 662 272 l 1
 573 205 580 58 610 1 c 1
 285 1 l 1
 241 -54 l 1x28
 51 -54 l 1
 22 -31 2 69 60 139 c 1
 162 138 l 1
 258 289 l 1
 181 352 l 1
 239 461 l 1
 159 526 l 1
 104 526 l 1
 139 559 149 609 146 655 c 1x48
EndSplineSet
EndChar

StartChar: M
Encoding: 77 77 56
Width: 668
Flags: MW
HStem: 1 202<102 154 102 266 102 301 93 154>
VStem: 436 130
LayerCount: 2
Back
Fore
SplineSet
301 1 m 1
 93 1 l 1
 105 32 l 1
 35 116 l 1
 102 203 l 1
 154 203 l 1
 59 664 l 1
 183 770 l 1
 289 678 l 1
 238 573 265 449 335 375 c 1
 474 600 l 1
 410 652 l 1
 459 713 l 1
 658 546 l 1
 554 234 l 1
 641 145 l 1
 566 58 l 1
 563 15 589 -68 673 -164 c 1
 647 -164 543 -164 526 -164 c 1
 485 -129 422 30 439 84 c 1
 491 142 l 1
 433 214 l 1
 459 309 l 1
 373 223 l 1
 413 159 l 1
 332 107 l 1
 327 163 303 208 295 228 c 1
 266 203 l 1
 305 121 311 78 301 1 c 1
EndSplineSet
EndChar

StartChar: N
Encoding: 78 78 57
Width: 649
Flags: MW
HStem: 1 202<100 151 100 264 100 298 91 151 100 520 100 359>
LayerCount: 2
Back
Fore
SplineSet
350 1 m 1
 382 50 l 1
 376 105 300 208 293 228 c 1
 264 203 l 1
 302 121 309 78 298 1 c 1
 91 1 l 1
 102 32 l 1
 33 116 l 1
 100 203 l 1
 151 203 l 1
 56 664 l 1
 180 770 l 1
 287 678 l 1
 236 573 292 357 362 283 c 1
 454 427 l 1
 362 534 l 1
 420 635 l 1
 656 546 l 1
 552 257 l 1
 541 231 l 1
 405 177 454 41 532 38 c 1
 520 1 l 1
 494 1 368 1 350 1 c 1
EndSplineSet
EndChar

StartChar: O
Encoding: 79 79 58
Width: 574
Flags: MW
HStem: 502 188
VStem: 367 200
LayerCount: 2
Back
Fore
SplineSet
323 678 m 1
 248 502 l 1
 153 497 l 1
 194 368 234 311 222 185 c 1
 285 252 l 1
 346 133 l 1
 412 168 l 1
 320 352 l 1
 401 456 366 520 300 600 c 1
 455 684 l 1
 516 618 608 440 548 355 c 2
 493 280 l 1
 542 200 l 1
 532 130 534 101 496 55 c 0
 433 -19 344 -26 268 -14 c 1
 268 64 184 110 127 61 c 1
 46 514 l 1
 57 618 162 725 323 678 c 1
EndSplineSet
EndChar

StartChar: P
Encoding: 80 80 59
Width: 416
Flags: MW
HStem: 644 20G<161 161>
VStem: 102 90 102 108 102 214
LayerCount: 2
Back
Fore
SplineSet
362 329 m 1x90
 328 344 l 1
 288 332 359 241 357 263 c 1
 247 205 l 1
 198 292 l 1
 210 110 l 1xa0
 264 93 l 1
 218 1 l 1
 89 1 l 1
 100 47 77 62 54 90 c 1
 83 110 89 122 93 125 c 0
 104 238 108 403 83 548 c 1
 45 618 l 1
 161 664 l 1
 162 647 165 637 158 597 c 1
 230 641 l 1
 456 682 440 364 362 329 c 1x90
311 430 m 1
 285 540 l 1
 178 514 l 1
 192 347 l 1xc0
 222 390 240 445 311 430 c 1
EndSplineSet
EndChar

StartChar: Q
Encoding: 81 81 60
Width: 599
Flags: MW
HStem: -120 109<496 565 453 606> 502 188
VStem: 366 192
LayerCount: 2
Back
Fore
SplineSet
167 64 m 1
 219 105 150 234 93 185 c 1
 37 514 l 1
 49 618 153 725 314 678 c 1
 239 502 l 1
 144 497 l 1
 185 368 219 326 159 266 c 1
 242 266 l 1
 291 113 l 1
 337 135 l 1
 309 188 l 1
 286 226 l 1
 358 214 l 1
 390 159 l 1
 403 168 l 1
 323 361 l 1
 404 465 357 520 291 600 c 1
 446 684 l 1
 507 618 599 440 539 355 c 2
 484 280 l 1
 533 200 l 1
 530 176 527 156 526 139 c 1
 428 100 l 1
 496 -11 l 1
 606 -11 l 1
 607 -69 616 -89 565 -120 c 1
 453 -120 l 1
 391 12 l 1
 283 -23 202 12 167 64 c 1
EndSplineSet
EndChar

StartChar: R
Encoding: 82 82 61
Width: 547
Flags: MW
HStem: 1 118 294 61 613 89
VStem: 141 59 374 103
LayerCount: 2
Back
Fore
SplineSet
555 -175 m 1
 420 -175 l 1
 407 -111 393 -34 290 1 c 1
 359 228 l 1
 362 280 297 316 255 280 c 1
 284 188 l 1
 249 133 229 56 235 1 c 1
 94 1 l 1
 42 55 l 1
 68 116 l 1
 120 122 l 1
 151 236 141 452 128 564 c 1
 39 564 l 1
 82 659 l 1
 313 697 l 2
 456 720 486 669 477 547 c 1
 434 381 l 1
 342 355 l 1
 492 295 l 1
 408 47 l 1
 480 32 567 -79 555 -175 c 1
374 613 m 1
 293 604 217 582 200 538 c 1
 235 393 l 1
 313 419 l 2
 359 433 377 559 374 613 c 1
EndSplineSet
EndChar

StartChar: S
Encoding: 83 83 62
Width: 619
Flags: MW
HStem: -1 20
LayerCount: 2
Back
Fore
SplineSet
151 626 m 1
 456 626 l 1
 455 604 497 543 585 551 c 1
 616 303 l 1
 532 368 493 375 392 390 c 1
 371 445 l 1
 290 439 l 1
 287 381 l 1
 571 309 l 1
 470 156 l 1
 553 125 l 1
 571 1 l 1
 453 1 l 1
 443 41 l 1
 398 -14 242 1 83 1 c 1
 163 120 100 182 42 168 c 1
 103 272 l 1
 293 133 l 1
 381 159 404 204 375 280 c 1
 334 309 196 305 120 280 c 1
 215 511 l 1
 228 572 207 597 151 626 c 1
EndSplineSet
EndChar

StartChar: T
Encoding: 84 84 63
Width: 650
Flags: MW
HStem: 1 141<385 422 385 425> 1 144<212 264 212 425 198 264> 450 153<298 310 192 469> 459 144<431 469 298 558 431 431> 459 187<512 558 56 431>
VStem: 198 252
LayerCount: 2
Back
Fore
SplineSet
56 646 m 1x4c
 255 646 l 1
 298 603 l 1x4c
 469 603 l 1
 512 646 l 1x64
 662 646 l 1
 635 579 598 455 653 393 c 1
 584 352 l 1
 575 383 552 422 558 459 c 1
 431 459 l 1
 359 387 361 301 420 260 c 1
 385 142 l 1
 422 142 l 1
 460 116 457 32 425 1 c 1
 198 1 l 1
 193 56 183 50 154 58 c 1
 212 145 l 1x8c
 264 145 l 1
 298 246 l 1
 241 332 l 1
 310 450 l 1
 192 450 l 1
 172 399 l 1x54
 27 399 l 1
 68 459 102 506 56 646 c 1x4c
EndSplineSet
EndChar

StartChar: U
Encoding: 85 85 64
Width: 505
Flags: MW
HStem: -11 20
VStem: 193 121
LayerCount: 2
Back
Fore
SplineSet
118 698 m 1
 270 594 l 1
 206 442 l 1
 154 415 l 1
 217 358 192 272 164 154 c 1
 219 208 l 1
 302 142 l 1
 389 240 l 1
 372 247 346 292 314 329 c 1
 366 416 354 407 317 540 c 1
 426 603 l 1
 490 548 550 220 426 96 c 1
 369 90 331 35 337 -11 c 1
 184 9 l 1
 196 61 l 1
 78 116 l 1
 46 592 l 1
 98 612 110 636 118 698 c 1
EndSplineSet
EndChar

StartChar: V
Encoding: 86 86 65
Width: 617
Flags: MW
HStem: 1 20 632 20G
LayerCount: 2
Back
Fore
SplineSet
28 525 m 1
 169 623 l 1
 195 574 201 580 247 534 c 1
 221 520 l 1
 304 419 l 1
 238 289 l 1
 284 205 l 1
 311 230 344 269 361 298 c 1
 353 321 333 352 327 375 c 1
 368 384 434 436 425 543 c 1
 414 548 397 566 382 580 c 1
 394 597 414 644 417 652 c 1
 462 623 595 539 630 537 c 1
 549 381 l 1
 500 404 l 1
 357 90 l 1
 383 32 l 1
 331 1 l 1
 193 1 l 1
 144 105 l 1
 192 142 l 1
 117 289 l 1
 180 413 l 1
 134 468 l 1
 77 436 l 1
 28 525 l 1
EndSplineSet
EndChar

StartChar: W
Encoding: 87 87 66
Width: 765
Flags: MW
HStem: -89 21G<489 610 489 489> -89 121<598 598 598 610 489 598>
VStem: 26 763<234 543>
LayerCount: 2
Back
Fore
SplineSet
77 412 m 1xa0
 26 543 l 1
 166 721 l 1
 165 649 201 591 247 580 c 1
 195 531 l 1
 313 125 l 1
 402 226 l 1
 322 266 l 1
 400 367 l 1
 526 324 l 1
 469 194 l 1
 503 96 l 1
 624 237 l 1
 451 471 l 1
 564 577 l 1
 743 577 l 1
 604 462 l 1
 789 234 l 1
 598 32 l 1x60
 610 -89 l 1
 489 -89 l 1
 442 -58 416 32 397 96 c 1
 353 1 l 1
 238 1 l 1
 190 46 133 140 113 229 c 1
 116 303 109 396 106 431 c 1
 77 412 l 1xa0
EndSplineSet
EndChar

StartChar: X
Encoding: 88 88 67
Width: 650
Flags: MW
HStem: -146 115<396 652 445 592> 1 124<53 165 44 182 53 53> 647 20G<655 655>
VStem: 33 622
LayerCount: 2
Back
Fore
SplineSet
396 -146 m 1
 309 137 l 1
 182 1 l 1
 53 1 l 1
 30 24 27 84 44 125 c 1
 165 125 l 1
 276 246 l 1
 220 433 l 1
 119 312 l 1
 53 468 l 1
 153 586 l 1
 202 548 l 1
 226 603 l 1
 341 572 l 1
 377 357 l 1
 453 442 l 1
 522 433 l 1
 422 623 l 1
 494 710 l 1
 655 667 l 1
 583 598 623 422 655 393 c 1
 520 272 l 1
 476 318 l 1
 399 234 l 1
 403 226 433 35 445 -31 c 1
 652 -31 l 1
 592 -146 l 1
 396 -146 l 1
EndSplineSet
EndChar

StartChar: Y
Encoding: 89 89 68
Width: 639
Flags: MW
HStem: 1 20
LayerCount: 2
Back
Fore
SplineSet
300 626 m 1
 347 375 l 1
 381 425 l 1
 482 416 l 1
 392 678 l 1
 493 756 l 1
 646 618 l 1
 531 257 l 1
 416 306 l 1
 430 168 l 1
 476 142 l 1
 470 50 l 1
 387 1 l 1
 240 1 l 1
 202 162 l 1
 315 162 l 1
 320 93 l 1
 352 81 l 1
 307 272 l 1
 283 326 301 271 211 502 c 1
 98 439 l 1
 32 595 l 1
 67 655 l 1
 124 606 l 1
 147 698 l 1
 300 626 l 1
EndSplineSet
EndChar

StartChar: Z
Encoding: 90 90 69
Width: 627
Flags: MW
HStem: -51 173<364 456 364 364> 1 121<237 330 53 105>
VStem: 421 154
LayerCount: 2
Back
Fore
SplineSet
154 301 m 1xa0
 90 352 l 1
 187 416 131 554 38 635 c 1
 404 635 l 1
 589 494 l 1
 575 234 l 1
 488 289 l 1
 237 122 l 1
 456 122 l 1
 459 151 448 171 445 197 c 1
 629 116 l 1
 575 47 l 1
 540 -51 l 1
 364 -51 l 1
 330 1 l 1x60
 105 1 l 1
 120 50 120 88 53 122 c 1
 387 295 l 1
 419 384 l 1
 439 479 315 436 246 425 c 1
 321 350 l 1
 154 301 l 1xa0
EndSplineSet
EndChar

StartChar: bracketleft
Encoding: 91 91 70
Width: 1000
Flags: MW
HStem: 20 45 95 45 236 46<696 757 645 676 817 823 817 817> 236 175<750 768 750 771 676 768 750 884 750 817> 291 45<13 142 13 147 193 336 13 188> 385 45<406 465 366 486 406 406>
VStem: 13 323<291 336 291 336> 127 146 339 45 402 174 660 45 801 145
LayerCount: 2
Back
Fore
SplineSet
147 336 m 1xedf0
 152 377 l 1
 44 377 l 1
 74 411 114 448 98 500 c 1
 141 513 l 1
 150 485 147 452 134 422 c 1
 202 422 l 1
 193 336 l 1
 336 336 l 1xeef0
 336 291 l 1
 188 291 l 1
 176 189 l 2
 171 166 185 107 222 156 c 0
 227 162 237 198 217 193 c 1
 206 237 l 1
 272 254 289 173 259 130 c 0
 235 96 102 60 132 196 c 1
 142 291 l 1
 13 291 l 1
 13 336 l 1
 147 336 l 1xedf0
480 507 m 1
 523 521 l 1
 539 470 519 423 486 385 c 1
 406 385 l 1
 385 196 l 1
 371 129 484 121 524 175 c 0
 531 185 537 215 525 224 c 0
 524 224 523 225 521 224 c 2
 511 268 l 1
 575 284 591 193 560 150 c 0
 493 55 317 89 341 204 c 1
 366 430 l 1
 465 430 l 1
 483 455 487 485 480 507 c 1
448 238 m 1
 449 237 l 1
 427 198 l 1
 399 214 397 240 409 262 c 0
 431 300 498 339 535 366 c 0
 542 370 545 373 546 374 c 2
 579 344 l 1
 568 332 551 322 538 313 c 0
 518 300 456 260 448 238 c 1
705 421 m 1
 709 430 l 2
 711 435 714 453 710 459 c 0
 709 459 706 460 699 461 c 2
 698 461 l 1
 703 448 706 435 705 421 c 1
750 411 m 1xd1f0
 768 411 l 1xd1f0
 804 282 l 1xedf0
 823 282 l 1
 815 308 816 340 826 360 c 1
 866 343 l 1
 856 321 859 289 864 279 c 2
 884 236 l 1
 817 236 l 1
 851 114 l 1
 846 91 862 47 891 73 c 0
 897 78 911 120 891 115 c 1
 880 158 l 1
 951 176 959 89 932 52 c 0
 908 18 779 -18 804 113 c 1
 771 236 l 1
 676 236 l 1
 619 103 l 1
 578 121 l 1
 633 256 l 1
 633 281 l 1
 645 282 l 1
 681 366 l 1
 618 366 l 1
 678 435 662 422 638 500 c 1
 700 508 776 520 752 416 c 1
 750 411 l 1xd1f0
731 366 m 1
 696 282 l 1xedf0
 757 282 l 1
 734 366 l 1
 731 366 l 1
EndSplineSet
EndChar

StartChar: backslash
Encoding: 92 92 71
Width: 1000
Flags: MW
HStem: 20 45 95 45 236 46<696 757 645 676 817 823 817 817> 236 175<750 768 750 771 676 768 750 884 750 817> 291 45<13 142 13 147 193 336 13 188> 385 45<406 465 366 486 406 406>
VStem: 13 323<291 336 291 336> 127 146 339 45 402 174 660 45 801 145
LayerCount: 2
Back
Fore
SplineSet
147 336 m 1xedf0
 152 377 l 1
 44 377 l 1
 74 411 114 448 98 500 c 1
 141 513 l 1
 150 485 147 452 134 422 c 1
 202 422 l 1
 193 336 l 1
 336 336 l 1xeef0
 336 291 l 1
 188 291 l 1
 176 189 l 2
 171 166 185 107 222 156 c 0
 227 162 237 198 217 193 c 1
 206 237 l 1
 272 254 289 173 259 130 c 0
 235 96 102 60 132 196 c 1
 142 291 l 1
 13 291 l 1
 13 336 l 1
 147 336 l 1xedf0
480 507 m 1
 523 521 l 1
 539 470 519 423 486 385 c 1
 406 385 l 1
 385 196 l 1
 371 129 484 121 524 175 c 0
 531 185 537 215 525 224 c 0
 524 224 523 225 521 224 c 2
 511 268 l 1
 575 284 591 193 560 150 c 0
 493 55 317 89 341 204 c 1
 366 430 l 1
 465 430 l 1
 483 455 487 485 480 507 c 1
448 238 m 1
 449 237 l 1
 427 198 l 1
 399 214 397 240 409 262 c 0
 431 300 498 339 535 366 c 0
 542 370 545 373 546 374 c 2
 579 344 l 1
 568 332 551 322 538 313 c 0
 518 300 456 260 448 238 c 1
705 421 m 1
 709 430 l 2
 711 435 714 453 710 459 c 0
 709 459 706 460 699 461 c 2
 698 461 l 1
 703 448 706 435 705 421 c 1
750 411 m 1xd1f0
 768 411 l 1xd1f0
 804 282 l 1xedf0
 823 282 l 1
 815 308 816 340 826 360 c 1
 866 343 l 1
 856 321 859 289 864 279 c 2
 884 236 l 1
 817 236 l 1
 851 114 l 1
 846 91 862 47 891 73 c 0
 897 78 911 120 891 115 c 1
 880 158 l 1
 951 176 959 89 932 52 c 0
 908 18 779 -18 804 113 c 1
 771 236 l 1
 676 236 l 1
 619 103 l 1
 578 121 l 1
 633 256 l 1
 633 281 l 1
 645 282 l 1
 681 366 l 1
 618 366 l 1
 678 435 662 422 638 500 c 1
 700 508 776 520 752 416 c 1
 750 411 l 1xd1f0
731 366 m 1
 696 282 l 1xedf0
 757 282 l 1
 734 366 l 1
 731 366 l 1
EndSplineSet
EndChar

StartChar: bracketright
Encoding: 93 93 72
Width: 1000
Flags: MW
HStem: 20 45 95 45 236 46<696 757 645 676 817 823 817 817> 236 175<750 768 750 771 676 768 750 884 750 817> 291 45<13 142 13 147 193 336 13 188> 385 45<406 465 366 486 406 406>
VStem: 13 323<291 336 291 336> 127 146 339 45 402 174 660 45 801 145
LayerCount: 2
Back
Fore
SplineSet
147 336 m 1xedf0
 152 377 l 1
 44 377 l 1
 74 411 114 448 98 500 c 1
 141 513 l 1
 150 485 147 452 134 422 c 1
 202 422 l 1
 193 336 l 1
 336 336 l 1xeef0
 336 291 l 1
 188 291 l 1
 176 189 l 2
 171 166 185 107 222 156 c 0
 227 162 237 198 217 193 c 1
 206 237 l 1
 272 254 289 173 259 130 c 0
 235 96 102 60 132 196 c 1
 142 291 l 1
 13 291 l 1
 13 336 l 1
 147 336 l 1xedf0
480 507 m 1
 523 521 l 1
 539 470 519 423 486 385 c 1
 406 385 l 1
 385 196 l 1
 371 129 484 121 524 175 c 0
 531 185 537 215 525 224 c 0
 524 224 523 225 521 224 c 2
 511 268 l 1
 575 284 591 193 560 150 c 0
 493 55 317 89 341 204 c 1
 366 430 l 1
 465 430 l 1
 483 455 487 485 480 507 c 1
448 238 m 1
 449 237 l 1
 427 198 l 1
 399 214 397 240 409 262 c 0
 431 300 498 339 535 366 c 0
 542 370 545 373 546 374 c 2
 579 344 l 1
 568 332 551 322 538 313 c 0
 518 300 456 260 448 238 c 1
705 421 m 1
 709 430 l 2
 711 435 714 453 710 459 c 0
 709 459 706 460 699 461 c 2
 698 461 l 1
 703 448 706 435 705 421 c 1
750 411 m 1xd1f0
 768 411 l 1xd1f0
 804 282 l 1xedf0
 823 282 l 1
 815 308 816 340 826 360 c 1
 866 343 l 1
 856 321 859 289 864 279 c 2
 884 236 l 1
 817 236 l 1
 851 114 l 1
 846 91 862 47 891 73 c 0
 897 78 911 120 891 115 c 1
 880 158 l 1
 951 176 959 89 932 52 c 0
 908 18 779 -18 804 113 c 1
 771 236 l 1
 676 236 l 1
 619 103 l 1
 578 121 l 1
 633 256 l 1
 633 281 l 1
 645 282 l 1
 681 366 l 1
 618 366 l 1
 678 435 662 422 638 500 c 1
 700 508 776 520 752 416 c 1
 750 411 l 1xd1f0
731 366 m 1
 696 282 l 1xedf0
 757 282 l 1
 734 366 l 1
 731 366 l 1
EndSplineSet
EndChar

StartChar: asciicircum
Encoding: 94 94 73
Width: 1000
Flags: MW
HStem: 20 45 95 45 236 46<696 757 645 676 817 823 817 817> 236 175<750 768 750 771 676 768 750 884 750 817> 291 45<13 142 13 147 193 336 13 188> 385 45<406 465 366 486 406 406>
VStem: 13 323<291 336 291 336> 127 146 339 45 402 174 660 45 801 145
LayerCount: 2
Back
Fore
SplineSet
147 336 m 1xedf0
 152 377 l 1
 44 377 l 1
 74 411 114 448 98 500 c 1
 141 513 l 1
 150 485 147 452 134 422 c 1
 202 422 l 1
 193 336 l 1
 336 336 l 1xeef0
 336 291 l 1
 188 291 l 1
 176 189 l 2
 171 166 185 107 222 156 c 0
 227 162 237 198 217 193 c 1
 206 237 l 1
 272 254 289 173 259 130 c 0
 235 96 102 60 132 196 c 1
 142 291 l 1
 13 291 l 1
 13 336 l 1
 147 336 l 1xedf0
480 507 m 1
 523 521 l 1
 539 470 519 423 486 385 c 1
 406 385 l 1
 385 196 l 1
 371 129 484 121 524 175 c 0
 531 185 537 215 525 224 c 0
 524 224 523 225 521 224 c 2
 511 268 l 1
 575 284 591 193 560 150 c 0
 493 55 317 89 341 204 c 1
 366 430 l 1
 465 430 l 1
 483 455 487 485 480 507 c 1
448 238 m 1
 449 237 l 1
 427 198 l 1
 399 214 397 240 409 262 c 0
 431 300 498 339 535 366 c 0
 542 370 545 373 546 374 c 2
 579 344 l 1
 568 332 551 322 538 313 c 0
 518 300 456 260 448 238 c 1
705 421 m 1
 709 430 l 2
 711 435 714 453 710 459 c 0
 709 459 706 460 699 461 c 2
 698 461 l 1
 703 448 706 435 705 421 c 1
750 411 m 1xd1f0
 768 411 l 1xd1f0
 804 282 l 1xedf0
 823 282 l 1
 815 308 816 340 826 360 c 1
 866 343 l 1
 856 321 859 289 864 279 c 2
 884 236 l 1
 817 236 l 1
 851 114 l 1
 846 91 862 47 891 73 c 0
 897 78 911 120 891 115 c 1
 880 158 l 1
 951 176 959 89 932 52 c 0
 908 18 779 -18 804 113 c 1
 771 236 l 1
 676 236 l 1
 619 103 l 1
 578 121 l 1
 633 256 l 1
 633 281 l 1
 645 282 l 1
 681 366 l 1
 618 366 l 1
 678 435 662 422 638 500 c 1
 700 508 776 520 752 416 c 1
 750 411 l 1xd1f0
731 366 m 1
 696 282 l 1xedf0
 757 282 l 1
 734 366 l 1
 731 366 l 1
EndSplineSet
EndChar

StartChar: underscore
Encoding: 95 95 74
Width: 1000
Flags: MW
HStem: 20 45 95 45 236 46<696 757 645 676 817 823 817 817> 236 175<750 768 750 771 676 768 750 884 750 817> 291 45<13 142 13 147 193 336 13 188> 385 45<406 465 366 486 406 406>
VStem: 13 323<291 336 291 336> 127 146 339 45 402 174 660 45 801 145
LayerCount: 2
Back
Fore
SplineSet
147 336 m 1xedf0
 152 377 l 1
 44 377 l 1
 74 411 114 448 98 500 c 1
 141 513 l 1
 150 485 147 452 134 422 c 1
 202 422 l 1
 193 336 l 1
 336 336 l 1xeef0
 336 291 l 1
 188 291 l 1
 176 189 l 2
 171 166 185 107 222 156 c 0
 227 162 237 198 217 193 c 1
 206 237 l 1
 272 254 289 173 259 130 c 0
 235 96 102 60 132 196 c 1
 142 291 l 1
 13 291 l 1
 13 336 l 1
 147 336 l 1xedf0
480 507 m 1
 523 521 l 1
 539 470 519 423 486 385 c 1
 406 385 l 1
 385 196 l 1
 371 129 484 121 524 175 c 0
 531 185 537 215 525 224 c 0
 524 224 523 225 521 224 c 2
 511 268 l 1
 575 284 591 193 560 150 c 0
 493 55 317 89 341 204 c 1
 366 430 l 1
 465 430 l 1
 483 455 487 485 480 507 c 1
448 238 m 1
 449 237 l 1
 427 198 l 1
 399 214 397 240 409 262 c 0
 431 300 498 339 535 366 c 0
 542 370 545 373 546 374 c 2
 579 344 l 1
 568 332 551 322 538 313 c 0
 518 300 456 260 448 238 c 1
705 421 m 1
 709 430 l 2
 711 435 714 453 710 459 c 0
 709 459 706 460 699 461 c 2
 698 461 l 1
 703 448 706 435 705 421 c 1
750 411 m 1xd1f0
 768 411 l 1xd1f0
 804 282 l 1xedf0
 823 282 l 1
 815 308 816 340 826 360 c 1
 866 343 l 1
 856 321 859 289 864 279 c 2
 884 236 l 1
 817 236 l 1
 851 114 l 1
 846 91 862 47 891 73 c 0
 897 78 911 120 891 115 c 1
 880 158 l 1
 951 176 959 89 932 52 c 0
 908 18 779 -18 804 113 c 1
 771 236 l 1
 676 236 l 1
 619 103 l 1
 578 121 l 1
 633 256 l 1
 633 281 l 1
 645 282 l 1
 681 366 l 1
 618 366 l 1
 678 435 662 422 638 500 c 1
 700 508 776 520 752 416 c 1
 750 411 l 1xd1f0
731 366 m 1
 696 282 l 1xedf0
 757 282 l 1
 734 366 l 1
 731 366 l 1
EndSplineSet
EndChar

StartChar: grave
Encoding: 96 96 75
Width: 1000
Flags: MW
HStem: 20 45 95 45 236 46<696 757 645 676 817 823 817 817> 236 175<750 768 750 771 676 768 750 884 750 817> 291 45<13 142 13 147 193 336 13 188> 385 45<406 465 366 486 406 406>
VStem: 13 323<291 336 291 336> 127 146 339 45 402 174 660 45 801 145
LayerCount: 2
Back
Fore
SplineSet
147 336 m 1xedf0
 152 377 l 1
 44 377 l 1
 74 411 114 448 98 500 c 1
 141 513 l 1
 150 485 147 452 134 422 c 1
 202 422 l 1
 193 336 l 1
 336 336 l 1xeef0
 336 291 l 1
 188 291 l 1
 176 189 l 2
 171 166 185 107 222 156 c 0
 227 162 237 198 217 193 c 1
 206 237 l 1
 272 254 289 173 259 130 c 0
 235 96 102 60 132 196 c 1
 142 291 l 1
 13 291 l 1
 13 336 l 1
 147 336 l 1xedf0
480 507 m 1
 523 521 l 1
 539 470 519 423 486 385 c 1
 406 385 l 1
 385 196 l 1
 371 129 484 121 524 175 c 0
 531 185 537 215 525 224 c 0
 524 224 523 225 521 224 c 2
 511 268 l 1
 575 284 591 193 560 150 c 0
 493 55 317 89 341 204 c 1
 366 430 l 1
 465 430 l 1
 483 455 487 485 480 507 c 1
448 238 m 1
 449 237 l 1
 427 198 l 1
 399 214 397 240 409 262 c 0
 431 300 498 339 535 366 c 0
 542 370 545 373 546 374 c 2
 579 344 l 1
 568 332 551 322 538 313 c 0
 518 300 456 260 448 238 c 1
705 421 m 1
 709 430 l 2
 711 435 714 453 710 459 c 0
 709 459 706 460 699 461 c 2
 698 461 l 1
 703 448 706 435 705 421 c 1
750 411 m 1xd1f0
 768 411 l 1xd1f0
 804 282 l 1xedf0
 823 282 l 1
 815 308 816 340 826 360 c 1
 866 343 l 1
 856 321 859 289 864 279 c 2
 884 236 l 1
 817 236 l 1
 851 114 l 1
 846 91 862 47 891 73 c 0
 897 78 911 120 891 115 c 1
 880 158 l 1
 951 176 959 89 932 52 c 0
 908 18 779 -18 804 113 c 1
 771 236 l 1
 676 236 l 1
 619 103 l 1
 578 121 l 1
 633 256 l 1
 633 281 l 1
 645 282 l 1
 681 366 l 1
 618 366 l 1
 678 435 662 422 638 500 c 1
 700 508 776 520 752 416 c 1
 750 411 l 1xd1f0
731 366 m 1
 696 282 l 1xedf0
 757 282 l 1
 734 366 l 1
 731 366 l 1
EndSplineSet
EndChar

StartChar: a
Encoding: 97 97 76
Width: 734
Flags: MW
HStem: -266 72<616 681 557 750 616 616> -266 163<738 750 616 804> -97 72<141 252 83 317 141 141> -55 25<638 727> -50 25<83 100 78 252> 97 25<47 158 24 173 47 47> 383 183<605 652 536 704> 614 25<489 605 489 489>
VStem: 20 25 223 25 260 27 285 25 409 25<664 720 720 720> 409 73<639 676 639 720 639 720>
LayerCount: 2
Back
Fore
SplineSet
100 -50 m 1x57d4
 78 -50 l 1
 10 -22 19 64 24 122 c 1
 158 122 l 1
 231 256 l 2
 265 317 264 332 255 390 c 0
 255 393 254 397 254 400 c 0
 223 422 216 441 231 482 c 1
 279 561 l 1
 285 600 293 609 270 641 c 0
 256 661 241 681 228 702 c 1
 434 752 l 1
 434 664 l 1
 482 676 l 1x8fd8
 482 639 l 1
 702 639 l 1
 653 617 620 608 605 566 c 1
 704 566 l 1
 613 525 652 391 652 383 c 1
 536 383 l 1
 638 -30 l 1
 762 -30 l 1
 738 -103 l 1
 804 -103 l 1
 750 -266 l 1
 728 -266 616 -266 616 -266 c 1
 583 -258 549 -239 531 -211 c 1
 494 -197 452 -170 446 -128 c 2
 408 116 l 1
 390 114 l 1
 354 -56 l 1
 317 -97 l 1x67d8
 141 -97 l 1
 119 -88 107 -71 100 -50 c 1x57d4
557 -194 m 1
 681 -194 l 1
 727 -55 l 1x8fe8
 585 -55 l 1
 463 447 l 1
 463 447 568 447 579 447 c 1
 568 502 562 569 605 614 c 1
 489 614 l 1
 409 491 l 1
 409 720 l 1
 269 686 l 1
 315 620 315 633 303 552 c 1
 253 471 l 1
 239 432 256 432 279 412 c 1
 279 407 l 2
 279 386 286 366 287 345 c 0x57d8
 288 318 278 288 253 243 c 2
 173 97 l 1
 47 97 l 1
 44 59 41 -6 83 -25 c 1
 252 -25 l 1
 282 10 l 1
 320 186 l 1
 423 186 l 1
 471 -124 l 2
 476 -158 517 -184 557 -194 c 1
331 241 m 1
 373 497 l 1
 415 241 l 1
 331 241 l 1
EndSplineSet
EndChar

StartChar: b
Encoding: 98 98 77
Width: 640
Flags: MW
HStem: -114 73<161 277 105 344 161 161> -72 73 -66 25<105 125 97 277> -16 17 75 25<78 157 64 171 78 78> 289 72<367 591> 622 25<354 515 354 354> 646 25<153 263 153 153>
VStem: 43 24 130 26<347 386> 161 25 261 27 513 26
LayerCount: 2
Back
Fore
SplineSet
261 444 m 1x3ef8
 353 479 370 470 430 566 c 1
 474 404 l 1
 339 356 l 1
 373 256 l 1
 279 281 243 345 261 444 c 1x3ef8
376 250 m 1
 398 193 l 1
 482 187 474 50 400 54 c 1
 296 132 l 1
 376 250 l 1
386 9 m 1
 491 1 l 1
 532 177 l 1
 367 361 l 1
 520 361 l 1
 555 530 l 1
 526 543 507 579 515 622 c 1
 354 622 l 1
 261 485 l 1
 263 646 l 1x3df8
 153 646 l 1
 125 623 l 1
 188 573 192 506 182 431 c 1
 138 406 l 1
 156 386 l 1
 154 335 165 225 230 211 c 2
 246 207 l 1
 171 75 l 1
 78 75 l 1
 57 37 69 -16 105 -41 c 1
 277 -41 l 1
 304 1 l 1
 251 52 l 1
 285 115 l 1
 386 9 l 1
125 -66 m 1x4ef8
 97 -66 l 1
 39 -29 26 44 64 100 c 1
 157 100 l 1
 209 191 l 1
 145 219 130 317 130 377 c 1
 99 412 l 1
 158 447 l 1
 169 533 152 575 83 621 c 1
 145 671 l 1
 288 671 l 1
 288 598 l 1
 307 598 l 1
 341 647 l 1x3df8
 548 647 l 1
 539 620 534 594 545 574 c 1
 591 574 l 1
 574 525 600 484 630 478 c 1
 591 289 l 1
 466 288 l 1
 559 184 l 1
 557 174 l 1
 606 120 l 1
 561 -72 l 1
 440 -63 l 1
 397 -16 l 1x9df8
 375 -15 l 1
 341 21 l 1
 331 3 336 11 326 -6 c 1
 380 -57 326 -6 380 -57 c 1
 344 -114 l 1
 161 -114 l 1
 144 -103 133 -85 125 -66 c 1x4ef8
EndSplineSet
EndChar

StartChar: c
Encoding: 99 99 78
Width: 651
Flags: MW
HStem: -94 73<214 334> -46 25<263 263> 98 24<82 107> 121 25 384 25<460 485> 480 25<398 409 398 398> 658 25 677 25<165 269 165 165>
VStem: 82 25<122 544 544 544> 82 286<194 194 194 544> 141 25 154 63<-4 78> 192 25 214 73<190 409 170 480 170 480> 269 25<676 676 676 677 676 677>
LayerCount: 2
Back
Fore
SplineSet
607 602 m 1x5ea4
 642 567 l 1
 630 558 619 544 609 529 c 1
 638 510 l 1
 624 491 600 458 580 432 c 1
 568 432 l 1
 559 397 555 364 558 337 c 1
 509 337 l 1
 506 351 505 368 506 384 c 1
 439 384 l 1
 433 411 432 436 435 462 c 1
 432 469 l 1
 409 480 l 1
 398 480 l 1
 368 441 331 416 287 409 c 1
 287 170 l 1
 310 154 l 1
 368 194 l 1x6daa
 370 156 372 141 402 113 c 1
 426 145 l 1
 584 146 l 1
 543 73 l 1
 623 73 l 1
 548 -59 l 1
 372 -59 l 1
 334 -94 l 1
 256 -93 l 2
 259 -96 265 -63 265 -63 c 2
 264 -57 264 -51 263 -46 c 1x6e92
 195 -45 l 1
 204 -24 l 2
 198 -32 192 -30 187 -25 c 1
 189 -18 191 -9 192 -2 c 0
 191 16 187 34 180 48 c 1
 172 50 163 50 154 50 c 1x5eaa
 154 78 l 1
 139 91 119 98 94 98 c 2
 82 98 l 1
 82 544 l 1
 43 584 l 1
 71 594 97 607 124 619 c 1
 131 629 150 663 136 682 c 2
 121 702 l 1x9e40
 293 702 l 1
 294 676 l 1
 380 694 432 679 501 636 c 1
 515 652 532 665 547 679 c 1
 600 627 l 1
 587 615 577 607 566 593 c 1
 584 581 l 1
 593 590 602 597 607 602 c 1x5ea4
564 628 m 1
 547 645 l 1
 531 632 519 619 508 602 c 1
 416 661 377 670 269 645 c 1
 269 677 l 1
 165 677 l 1
 170 651 156 620 141 600 c 1
 141 600 107 584 87 575 c 1
 107 555 l 1
 107 122 l 1
 176 116 214 60 217 -4 c 1
 217 -4 215 -13 214 -21 c 1x5ea4
 269 -21 l 1x5eaa
 307 13 l 1
 481 13 l 1
 542 121 l 1
 439 121 l 1
 407 77 l 1
 382 97 357 118 348 150 c 1
 310 124 l 1
 214 190 l 1x5ea4
 214 480 l 1
 273 488 302 512 336 559 c 1
 382 539 l 1
 396 505 l 1
 471 505 l 1
 461 473 455 443 460 409 c 1
 485 409 l 1
 483 442 490 474 499 505 c 1
 514 505 l 1
 529 525 547 549 560 567 c 1
 531 585 l 1
 541 600 551 615 564 628 c 1
EndSplineSet
EndChar

StartChar: d
Encoding: 100 100 79
Width: 641
Flags: MW
HStem: -114 73<151 267 94 334 151 151> -72 73 -67 26<111 111> -28 29 64 25<83 138 69 155 83 83> 622 25<344 504 344 344>
VStem: 42 25 120 25<351 386> 150 25 249 25 249 326 436 25 503 26
LayerCount: 2
Back
Fore
SplineSet
330 10 m 1x3fd8
 317 -7 l 1
 370 -57 l 1
 334 -114 l 1
 151 -114 l 1x9fe8
 132 -102 115 -85 111 -67 c 1x3fd8
 87 -66 l 1
 26 -27 35 38 69 89 c 1
 138 89 l 1
 184 215 l 1
 136 245 120 325 120 377 c 1
 89 412 l 1
 148 447 l 1
 158 533 135 553 70 597 c 1
 146 688 l 1
 273 635 l 1
 274 565 l 1
 331 647 l 1
 538 647 l 1
 528 617 526 592 537 573 c 1
 580 574 l 1
 564 525 589 484 619 478 c 1
 573 370 l 1
 640 208 l 1
 619 118 l 1
 550 -72 l 1x4fd8
 431 -73 l 1
 387 -28 l 1
 367 -28 l 1
 330 10 l 1x3fd8
547 181 m 1
 567 266 l 1
 499 430 l 1
 543 531 l 1
 515 545 497 581 504 622 c 1
 344 622 l 1
 249 487 l 1
 248 619 l 1
 153 658 l 1
 107 602 l 1
 173 556 182 514 171 431 c 1
 128 406 l 1
 145 386 l 1
 144 332 156 254 215 228 c 1
 155 64 l 1
 83 64 l 1
 59 24 62 -18 94 -41 c 1
 267 -41 l 1
 294 1 l 1
 242 50 l 1
 261 123 l 1
 377 0 l 1
 482 1 l 1
 547 181 l 1
375 533 m 1
 509 294 l 1
 426 188 l 1
 457 178 464 147 459 120 c 0
 453 87 428 52 390 54 c 1
 267 146 l 1
 296 257 l 1
 281 272 263 284 255 304 c 0
 247 325 250 359 249 436 c 2
 249 446 l 1
 295 470 336 499 375 533 c 1
376 164 m 1
 479 296 l 1
 400 428 l 1
 381 413 356 397 322 378 c 1
 322 376 l 1
 317 219 324 250 370 201 c 1
 348 121 l 1
 398 79 l 1
 431 83 461 168 403 165 c 2
 376 164 l 1
EndSplineSet
EndChar

StartChar: e
Encoding: 101 101 80
Width: 657
Flags: MW
HStem: -94 73<152 255 94 319 152 152> -59 72<357 532 292 599 357 357> -45 24<116 116> -45 150<116 116> 121 25<424 593 424 424> 388 72<433 500 380 565 433 433> 431 29<380 413 371 500> 431 244<371 413 371 371>
VStem: 34 26 107 25 133 25 164 26 253 292<602 602 602 632 602 632> 512 33
LayerCount: 2
Back
Fore
SplineSet
596 74 m 1x4af4
 674 73 l 1
 599 -59 l 1
 357 -59 l 1
 319 -94 l 1x1af8
 152 -94 l 1
 130 -86 122 -66 116 -45 c 1x2cf4
 90 -46 l 1
 25 -23 33 51 38 105 c 1
 140 105 l 1
 202 209 l 1
 123 223 131 287 134 344 c 1
 109 373 100 427 114 462 c 1
 159 530 l 1
 170 596 164 579 121 637 c 2
 106 657 l 1
 278 657 l 1
 278 635 l 1
 362 675 l 1
 568 675 l 1
 556 656 l 2
 544 636 546 619 545 602 c 1
 605 603 l 1
 562 534 594 469 623 457 c 1
 606 440 595 415 565 388 c 1x19f8
 433 388 l 1
 413 431 l 1x8af4
 371 431 l 1
 336 406 317 364 310 322 c 1
 369 349 l 1
 409 263 l 1
 423 272 l 1
 464 186 l 1
 384 189 353 146 339 106 c 1
 383 105 l 1
 412 146 l 1
 635 146 l 1
 596 74 l 1x4af4
532 13 m 1
 593 121 l 1
 424 121 l 1
 396 80 l 1
 248 80 l 1
 253 116 255 149 271 183 c 0
 288 220 320 255 384 258 c 1
 357 316 l 1
 260 271 l 1
 174 345 278 504 347 527 c 1
 380 460 l 1
 500 460 l 1
 516 475 531 497 544 514 c 1
 517 537 498 592 524 650 c 1
 368 650 l 1
 253 595 l 1
 253 632 l 1
 156 632 l 1
 197 580 194 587 183 521 c 1
 136 451 l 1
 126 424 135 375 159 356 c 1
 159 350 l 2
 159 276 138 235 244 231 c 1
 154 80 l 1
 60 80 l 1
 58 47 56 -6 94 -21 c 1x4af4
 255 -21 l 1
 292 13 l 1x2af4
 532 13 l 1
EndSplineSet
EndChar

StartChar: f
Encoding: 102 102 81
Width: 550
Flags: MW
HStem: -97 110<152 184 152 152> -59 72<167 227 87 314 167 167> 81 25<61 102 38 121 61 61> 320 25<237 288> 390 72<362 424 307 489 362 362> 390 199<481 489 362 537> 619 25<72 185 72 72>
VStem: 35 26 40 26 48 24 48 53 70 24 203 72 475 51
LayerCount: 2
Back
Fore
SplineSet
237 345 m 1x7a9c
 304 345 l 1
 335 272 l 1
 356 272 l 1
 396 186 l 1
 252 192 278 56 276 33 c 0
 275 10 282 -31 314 -59 c 1
 285 -59 167 -59 167 -59 c 1
 184 -97 l 1xb69c
 152 -97 l 1
 131 -89 118 -65 112 -45 c 1
 90 -49 l 1
 26 -26 33 51 38 106 c 1
 102 106 l 1
 135 221 l 1
 63 229 65 259 75 312 c 1
 52 317 36 344 59 380 c 1
 103 523 l 1
 27 545 34 577 53 644 c 1
 210 644 l 1
 210 631 l 1
 273 692 l 1
 341 651 419 659 494 663 c 1
 490 650 483 622 481 589 c 1
 500 590 522 589 537 589 c 1
 516 520 526 455 555 444 c 1
 538 426 519 416 489 390 c 1
 362 390 l 1
 317 432 l 1
 265 415 242 378 237 345 c 1x7a9c
62 23 m 0
 66 1 76 -16 95 -24 c 1
 105 -24 l 1
 87 13 l 1
 227 13 l 1
 203 48 203 88 203 127 c 0
 203 200 234 254 317 258 c 1
 288 320 l 1
 195 320 l 1
 116 387 189 483 260 506 c 1
 307 462 l 1x7b1c
 424 462 l 1
 441 477 458 489 475 503 c 1
 451 527 448 583 461 636 c 1
 401 633 331 633 277 661 c 1
 185 572 l 1
 185 619 l 1
 72 619 l 1x7a2c
 54 553 77 555 134 540 c 1
 82 369 l 1
 60 336 78 334 101 338 c 1x7a4c
 101 323 l 2
 101 266 62 249 168 245 c 1
 121 81 l 1
 61 81 l 1x7a9c
 59 63 59 42 62 23 c 0
EndSplineSet
EndChar

StartChar: g
Encoding: 103 103 82
Width: 658
Flags: MW
HStem: -221 20 -60 73<385 385> -11 24<241 241> 47 75<94 171 94 142> 132 25<416 458 393 519> 248 25<380 520 380 380> 340 26<447 472 447 493 427 472> 615 24
VStem: 69 25<122 500 500 500> 69 287<194 194 194 500> 202 73<190 365 164 435 164 435> 393 23 472 72 479 72 493 51
LayerCount: 2
Back
Fore
SplineSet
617 169 m 1xdfb4
 661 119 l 1
 534 -10 531 -140 583 -183 c 1
 499 -221 l 1
 445 -172 l 1
 437 -175 l 1
 371 -116 l 1
 385 -60 l 1
 254 -59 l 1
 254 -44 247 -25 241 -11 c 1xbf54
 183 -12 l 1
 182 9 178 31 171 47 c 0
 167 47 142 47 142 47 c 1
 142 80 l 1
 126 94 110 98 82 98 c 2
 69 98 l 1
 69 500 l 1
 36 534 l 1
 127 635 l 1
 171 600 l 1
 331 656 393 651 488 591 c 1
 502 607 519 621 535 635 c 1
 588 582 l 1
 569 567 551 543 539 522 c 0
 542 520 548 517 551 514 c 1
 562 531 585 549 595 558 c 1
 629 523 l 1
 575 479 537 362 546 292 c 1
 497 292 l 1
 493 306 492 324 493 340 c 1xbfb2
 427 340 l 1
 421 367 416 401 428 433 c 1
 396 451 l 1
 366 410 320 371 275 365 c 1
 275 164 l 1
 298 154 l 1
 356 194 l 1xbfb4
 358 142 373 122 418 92 c 1
 458 132 l 1
 393 132 l 1
 386 212 383 212 319 273 c 1
 531 273 l 1
 618 179 l 2
 623 173 621 172 617 169 c 1xdfb4
584 180 m 1
 520 248 l 1
 380 248 l 1
 407 218 413 196 416 157 c 1
 519 157 l 1
 421 60 l 1
 388 81 348 109 335 150 c 1
 298 124 l 1
 202 190 l 1xbfb4
 202 435 l 1
 261 444 298 481 332 527 c 1
 462 456 l 1
 448 427 442 398 447 366 c 1
 472 366 l 1
 469 434 502 535 551 584 c 1xbfb8
 534 601 l 1
 519 587 506 574 495 557 c 1
 368 639 312 624 166 572 c 1
 130 601 l 1
 70 535 l 1
 94 510 l 1
 94 122 l 1
 159 117 199 70 206 13 c 1
 430 13 l 1
 399 -107 430 13 399 -107 c 1
 442 -146 l 1
 502 -119 l 1
 457 -61 474 62 584 180 c 1
EndSplineSet
EndChar

StartChar: h
Encoding: 104 104 83
Width: 595
Flags: MW
HStem: -108 72<431 506 372 586 431 431> -59 23<372 407> -12 25<162 192 147 282> 262 25<147 152> 516 25<104 120>
VStem: 90 25 120 25<453 516 516 516> 172 25<300 396 396 396> 261 25<591 631 631 631> 261 73<453 453 453 631> 313 24 462 72
LayerCount: 2
Back
Fore
SplineSet
397 390 m 1x7f50
 261 317 l 1
 261 631 l 1
 107 673 l 1
 114 633 122 578 104 541 c 1
 145 541 l 1
 145 453 l 1
 197 407 l 1
 197 284 l 1
 152 262 l 1
 129 264 l 1
 119 193 l 1
 189 163 l 1
 142 50 l 1
 162 13 l 1
 282 13 l 1
 300 54 l 1
 253 87 l 1
 263 146 267 206 260 265 c 1
 382 322 l 1
 387 272 382 222 386 171 c 1
 374 150 369 127 357 106 c 1
 356 91 353 -25 372 -36 c 1
 506 -36 l 1
 471 38 462 150 462 263 c 0
 462 388 470 465 476 586 c 1
 503 642 l 1
 469 646 420 672 392 704 c 1
 342 666 l 1
 337 539 l 1x7f50
 334 453 l 1x7fb0
 397 390 l 1x7f50
214 -59 m 1
 192 -12 l 1
 147 -12 l 1
 115 49 l 1
 156 150 l 1
 92 177 l 1
 107 291 l 1
 147 287 l 1
 172 300 l 1
 172 396 l 1
 120 442 l 1
 120 516 l 1
 46 516 l 1
 81 546 91 552 90 603 c 0
 89 638 81 673 75 707 c 1
 286 650 l 1x7fb0
 286 591 l 1
 313 585 l 1
 318 679 l 1
 396 739 l 1
 412 717 482 655 519 667 c 2
 547 676 l 1
 516 611 l 1
 543 597 570 591 583 595 c 1
 549 523 l 1
 541 383 504 29 586 -108 c 1
 431 -108 l 2
 418 -106 411 -86 407 -59 c 1xbfb0
 214 -59 l 1
361 215 m 1
 332 197 l 1
 332 114 l 1
 332 114 350 156 361 176 c 1
 360 190 363 201 361 215 c 1
EndSplineSet
EndChar

StartChar: i
Encoding: 105 105 84
Width: 694
Flags: MW
HStem: -105 72<156 238 105 303 156 156> -60 27<142 142> -59 29<523 546 523 588> -59 72<349 552 284 588 349 349> 176 22 391 72<500 667> 431 72<205 252 137 278 205 205> 437 26<500 519>
VStem: 66 25 89 25 407 73 620 34<176 198> 620 72<128 176>
LayerCount: 2
Back
Fore
SplineSet
554 390 m 1x2968
 519 437 l 1
 461 437 l 1
 496 373 484 298 412 232 c 1
 445 175 l 1
 464 201 l 1
 654 198 l 1
 656 171 649 153 646 128 c 1
 692 128 l 1x4970
 698 39 663 -45 611 -103 c 1
 559 -103 l 1
 588 -59 l 1
 349 -59 l 1
 303 -105 l 1x4c70
 156 -105 l 1
 152 -94 145 -74 142 -60 c 1x4ab0
 87 -58 l 1
 63 9 53 83 91 149 c 1x4970
 247 149 l 1
 182 264 l 1
 285 413 l 1
 278 431 l 1
 205 431 l 1
 167 365 l 1
 118 379 l 1
 140 420 146 449 152 479 c 1
 113 410 l 1
 40 431 l 1
 90 528 104 553 70 659 c 1
 321 659 l 1
 353 619 l 1
 591 619 l 1
 618 592 632 563 638 537 c 1
 647 536 657 545 664 534 c 0
 682 504 680 430 667 391 c 1x8970
 554 390 l 1x2968
620 176 m 1
 477 176 l 1
 439 123 l 1
 364 128 l 1
 404 186 l 1
 336 294 l 1
 410 362 428 422 380 509 c 1
 465 509 l 1
 500 463 l 1
 608 463 l 1
 622 510 622 550 581 594 c 1
 340 594 l 1
 309 634 l 1
 104 634 l 1
 125 559 113 519 76 447 c 1
 101 439 l 1
 137 503 l 1x2970
 252 503 l 1
 316 413 l 1
 211 262 l 1
 290 124 l 1
 106 124 l 1
 82 75 91 11 105 -33 c 1
 238 -33 l 1
 284 13 l 1x1970
 552 13 l 1
 523 -30 l 1x4a70
 546 -30 l 1
 591 23 622 96 620 176 c 1
EndSplineSet
EndChar

StartChar: j
Encoding: 106 106 85
Width: 736
Flags: MW
HStem: -105 72<217 299 166 364 217 217> -60 73 -58 25<166 205 148 299> 379 72<137 168 97 235 137 137> 390 73<615 669 561 739 615 615> 426 25<97 160> 437 26<561 580> 437 72<522 526 441 580 522 522>
VStem: 127 25 468 73
LayerCount: 2
Back
Fore
SplineSet
333 431 m 1x30c0
 268 430 l 1
 235 379 l 1
 137 379 l 1
 146 396 153 412 160 426 c 1x22c0
 56 426 l 1
 96 504 131 550 102 642 c 1
 96 658 l 1
 382 659 l 1
 414 619 l 1
 652 619 l 1
 678 593 688 568 695 544 c 1
 707 546 l 1
 759 494 756 445 739 390 c 1x82c0
 615 390 l 1
 580 437 l 1x42c0
 522 437 l 1
 557 373 545 298 473 232 c 1
 522 153 l 1
 533 153 l 2
 530 151 529 148 527 146 c 2
 540 125 l 1
 508 79 l 1
 564 77 l 1
 528 38 515 -11 518 -60 c 1
 410 -59 l 1
 364 -105 l 1x28c0
 217 -105 l 1
 212 -92 208 -75 205 -58 c 1x24c0
 148 -58 l 1
 133 -17 123 31 128 76 c 1
 107 77 l 1
 116 125 l 1
 31 125 l 1
 71 308 l 1
 274 206 l 1
 243 264 l 1
 346 413 l 1
 333 431 l 1x30c0
305 146 m 1
 287 179 l 1
 277 160 l 1
 305 146 l 1
299 -33 m 1
 345 13 l 1x24c0
 445 13 l 1
 445 52 454 92 477 127 c 1
 424 126 l 1
 465 186 l 1
 397 294 l 1
 471 362 489 422 441 509 c 1
 526 509 l 1
 561 463 l 1x22c0
 669 463 l 1
 683 510 683 550 642 594 c 1
 402 594 l 1
 370 634 l 1
 130 633 l 1
 151 558 130 515 97 451 c 1x41c0
 168 451 l 1
 201 503 l 1
 313 503 l 1
 377 413 l 1
 272 262 l 1
 338 137 l 1
 305 83 l 1
 216 104 l 1
 261 184 l 1
 89 271 l 1
 62 149 l 1
 181 149 l 1
 146 88 145 33 166 -33 c 1
 299 -33 l 1
EndSplineSet
EndChar

StartChar: k
Encoding: 107 107 86
Width: 666
Flags: MW
HStem: -60 73<77 271> -39 324<431 502 431 502> -11 24<124 124> 332 325<419 677> 561 27 631 26
VStem: 52 25<13 41 13 47 13 47> 115 25<157 165> 219 248 451 73 466 100
LayerCount: 2
Back
Fore
SplineSet
239 342 m 2x2f40
 219 327 l 1x2f40
 219 352 l 2
 219 420 218 579 273 672 c 1
 63 631 l 1
 69 615 75 595 80 580 c 1
 156 625 182 459 102 430 c 1
 114 401 l 1
 156 422 l 1
 140 157 l 1
 77 41 l 1
 77 13 l 1
 202 13 l 1
 210 29 228 50 248 64 c 1
 219 83 l 1
 218 223 l 1
 351 286 l 1
 299 150 l 1
 351 43 339 10 297 -86 c 1
 469 -154 l 1
 461 -108 468 -83 487 -44 c 2
 489 -39 l 1x3340
 431 -39 l 1
 419 75 362 223 419 332 c 1x4f40
 315 328 l 1
 464 437 l 1
 428 508 469 584 551 631 c 1x2f80
 382 631 l 1
 332 560 317 502 366 429 c 1
 323 400 280 372 239 342 c 2x2f40
502 -86 m 2
 566 -86 l 1x4f40
 563 -119 522 -137 546 -234 c 1
 341 -153 l 1
 343 -146 349 -136 352 -130 c 1
 264 -100 l 1
 278 -68 290 -40 298 -18 c 1
 283 -32 272 -51 271 -60 c 1
 124 -59 l 1
 124 -11 l 1x2f40
 52 -12 l 1
 52 47 l 1
 115 165 l 1
 128 381 l 1
 101 367 l 1
 66 450 l 1
 111 454 130 479 126 526 c 0
 120 582 91 559 66 538 c 1
 66 538 44 613 35 636 c 2
 30 650 l 1
 334 709 l 1
 311 682 l 2
 295 663 283 640 273 613 c 1
 350 628 l 1
 356 637 362 646 369 656 c 1
 677 657 l 1
 611 632 l 2
 582 621 553 604 529 584 c 1
 667 584 l 1
 549 540 494 450 541 373 c 1
 434 302 l 2
 432 298 431 287 429 283 c 2
 502 285 l 1x8f20
 444 204 471 81 490 -15 c 1
 519 -14 l 1
 516 -48 509 -59 502 -72 c 0
 502 -76 502 -83 502 -86 c 2
EndSplineSet
EndChar

StartChar: l
Encoding: 108 108 87
Width: 711
Flags: MW
HStem: -114 72<125 249 70 315 125 125> -67 25<70 100 60 249> -59 72<358 605 292 684 358 358> -59 245<531 531 531 684 358 531> 125 25<169 183> 259 25<603 644 603 603> 513 25<145 168> 642 25<173 282 173 173>
VStem: 24 25 147 26 366 70 591 73
LayerCount: 2
Back
Fore
SplineSet
100 -67 m 1x17f0
 60 -67 l 1
 -3 -16 28 104 68 152 c 1
 169 150 l 1
 255 286 l 1
 179 349 l 1
 237 458 l 1
 231 464 l 1
 178 466 l 1
 186 474 189 483 195 492 c 1
 168 513 l 1
 87 513 l 1
 140 564 152 592 146 667 c 1
 292 667 l 1
 331 631 359 592 376 556 c 1
 430 498 462 440 409 333 c 1
 451 300 l 1
 435 276 l 1
 494 238 l 1
 458 187 l 1
 531 186 l 1x4ff0
 545 228 556 255 594 284 c 1
 714 284 l 1
 683 262 l 2
 657 242 640 211 629 181 c 1
 637 191 646 203 658 212 c 1
 736 212 l 1
 647 145 654 -2 684 -59 c 1
 358 -59 l 1
 315 -114 l 1x8ff0
 125 -114 l 1
 114 -106 105 -90 100 -67 c 1x17f0
282 642 m 1
 173 642 l 1
 173 607 166 569 145 538 c 1
 177 538 l 1
 269 464 l 1
 210 356 l 1
 288 291 l 1
 183 125 l 1
 79 127 l 1
 32 64 49 -19 70 -42 c 1
 249 -42 l 1
 292 13 l 1x2ff0
 605 13 l 1
 583 75 581 189 644 259 c 1
 603 259 l 1
 570 232 562 199 550 161 c 1
 414 161 l 1
 357 80 l 1
 275 80 l 1
 417 295 l 1
 323 369 l 1
 392 492 377 554 282 642 c 1
EndSplineSet
EndChar

StartChar: m
Encoding: 109 109 88
Width: 740
Flags: MW
HStem: -224 73<599 659 544 746 599 607.5> -177 26<568 568> -59 72<166 303 124 374 166 166> -12 25<124 164> 190 25<121 152 109 182 121 121>
VStem: 263 77 435 27 567 72<-2 63>
LayerCount: 2
Back
Fore
SplineSet
746 -224 m 1x9f
 720 -224 616 -224 599 -224 c 1
 589 -215 579 -197 568 -177 c 1x9f
 534 -176 l 1
 492 -140 432 -11 435 63 c 1
 406 47 l 1
 403 75 396 99 388 120 c 1
 357 104 l 1
 378 49 382 3 374 -59 c 1
 166 -59 l 1
 188 -26 l 1
 164 -12 l 1x6f
 89 -12 l 1
 104 30 l 1
 33 116 l 1
 109 215 l 1
 152 215 l 1
 58 668 l 1
 196 787 l 1
 318 681 l 1
 314 674 312 672 309 664 c 1
 362 618 l 1
 330 552 336 476 357 412 c 1
 471 598 l 1
 406 650 l 1
 471 731 l 1
 686 550 l 1
 678 528 l 1
 731 486 l 1
 633 185 l 1
 671 145 l 1
 663 133 l 1
 714 85 l 1
 639 -2 l 1
 636 -45 662 -128 746 -224 c 1x9f
544 -151 m 1
 659 -151 l 1
 617 -99 562 -12 567 63 c 1
 637 144 l 1
 553 231 l 1
 657 541 l 1
 474 695 l 1
 441 654 l 1
 503 603 l 1
 351 355 l 1
 269 441 237 562 287 675 c 1
 196 754 l 1
 86 659 l 1
 182 190 l 1
 121 190 l 1
 65 116 l 1
 132 35 l 1
 124 13 l 1
 303 13 l 1
 312 93 298 133 264 206 c 1
 314 250 l 1
 329 210 347 171 355 128 c 1
 409 163 l 1
 370 224 l 1
 497 351 l 1
 460 217 l 1
 521 141 l 1
 464 78 l 1
 451 28 507 -114 544 -151 c 1
EndSplineSet
EndChar

StartChar: n
Encoding: 110 110 89
Width: 725
Flags: MW
HStem: -59 37<426 608> -59 109<565 565 565 596> -11 24<171 171 389 462> 190 25<122 152 109 183 122 122>
VStem: 270 75
LayerCount: 2
Back
Fore
SplineSet
674 509 m 1x58
 732 486 l 1
 628 197 l 1
 617 171 l 1
 549 144 525 95 530 54 c 1
 536 52 542 51 548 51 c 2
 565 50 l 1
 553 11 l 1
 567 -8 585 -21 608 -22 c 1xb8
 596 -59 l 1
 570 -59 444 -59 426 -59 c 1
 462 -11 l 1
 386 -11 l 1
 385 -25 377 -43 374 -59 c 1
 167 -59 l 1
 178 -28 l 1
 171 -11 l 1
 89 -12 l 1
 104 30 l 1
 33 116 l 1
 109 215 l 1
 152 215 l 1
 59 668 l 1
 196 787 l 1
 318 681 l 1
 316 676 312 670 310 664 c 1
 363 618 l 1
 327 545 349 419 386 324 c 1
 455 426 l 1
 363 533 l 1
 430 650 l 1
 688 553 l 1
 674 509 l 1x58
556 262 m 1
 656 538 l 1
 441 619 l 1
 393 536 l 1
 486 429 l 1
 380 263 l 1
 297 350 240 558 288 675 c 1
 196 754 l 1
 86 659 l 1
 183 190 l 1
 122 190 l 1
 65 116 l 1
 133 35 l 1
 125 13 l 1
 303 13 l 1
 313 93 299 133 265 206 c 1
 314 250 l 1
 326 217 347 189 365 158 c 0
 383 126 407 85 411 47 c 1
 389 13 l 1
 527 13 l 1
 532 28 l 1
 493 37 465 73 460 114 c 0
 454 160 479 211 547 241 c 1
 556 262 l 1
375 40 m 1
 385 53 l 1
 381 77 366 116 346 150 c 1
 340 143 l 1
 359 101 369 71 375 40 c 1
EndSplineSet
EndChar

StartChar: o
Encoding: 111 111 90
Width: 650
Flags: MW
HStem: -78 72 66 28 442 72 677 22
VStem: 364 26 566 72
LayerCount: 2
Back
Fore
SplineSet
618 295 m 2
 563 220 l 1
 612 140 l 1
 602 70 604 41 566 -5 c 0
 503 -79 414 -86 338 -74 c 1
 338 -59 338 -43 333 -30 c 1
 311 -30 288 -28 266 -24 c 1
 266 -14 l 2
 266 -2 268 13 264 22 c 1
 243 25 217 18 197 1 c 1
 188 66 l 1
 174 65 158 62 145 52 c 2
 129 38 l 1
 44 513 l 1
 61 672 212 727 350 686 c 1
 328 627 l 1
 468 700 l 1
 485 681 510 649 530 614 c 1
 591 548 678 380 618 295 c 2
488 281 m 1
 548 363 l 2
 601 435 524 597 463 668 c 1
 329 596 l 1
 390 521 421 453 345 351 c 1
 439 163 l 1
 351 116 l 1
 293 230 l 1
 216 150 l 1
 233 318 200 342 151 493 c 2
 146 508 l 1
 250 514 l 1
 316 670 l 1
 172 705 80 608 69 514 c 1
 146 83 l 1
 208 117 284 70 290 -3 c 1
 362 -12 441 -3 497 64 c 0
 533 107 532 143 539 197 c 1
 488 281 l 1
378 158 m 1
 406 173 l 1
 316 354 l 1
 368 421 374 469 353 516 c 1
 318 442 l 1
 223 437 l 1
 247 361 267 308 280 253 c 1
 299 273 l 1
 347 183 l 1
 356 192 l 1
 378 158 l 1
EndSplineSet
EndChar

StartChar: p
Encoding: 112 112 91
Width: 492
Flags: MW
HStem: -59 72<165 227 120 295 165 165> -11 24<164 164> 421 236
VStem: 94 26 106 24 214 177 422 69
LayerCount: 2
Back
Fore
SplineSet
439 269 m 1xae
 404 284 l 1
 364 272 427 176 424 197 c 1
 323 145 l 1
 294 206 l 1
 274 197 l 1
 285 104 l 1
 299 100 l 1
 284 72 l 1
 286 50 l 1
 341 33 l 1
 295 -59 l 1
 165 -59 l 1
 169 -40 169 -22 164 -11 c 1x6e
 89 -12 l 1
 103 48 86 52 52 93 c 1
 68 104 94 110 96 129 c 2
 99 150 l 1
 109 263 112 403 87 544 c 1
 44 624 l 1
 188 682 l 1
 190 661 192 640 190 619 c 1
 245 647 l 2
 309 677 382 634 421 565 c 1
 523 499 500 297 439 269 c 1xae
345 357 m 1
 378 343 l 1
 453 387 443 656 253 623 c 1
 157 575 l 1
 162 598 167 622 166 646 c 1
 79 611 l 1
 111 553 l 1
 135 414 134 257 122 117 c 1
 109 110 100 97 89 88 c 1
 109 65 123 47 120 13 c 1x76
 227 13 l 1
 263 85 l 1
 214 101 l 1
 201 330 l 1
 217 278 246 240 268 222 c 1
 341 260 l 1
 317 287 297 343 345 357 c 1
310 555 m 1
 344 414 l 1
 259 431 255 419 214 364 c 1
 201 339 l 1
 181 523 l 1
 310 555 l 1
311 445 m 1
 304 472 l 1
 254 454 l 1
 256 436 l 1
 269 444 291 446 311 445 c 1
EndSplineSet
EndChar

StartChar: q
Encoding: 113 113 92
Width: 664
Flags: MW
HStem: -180 109<524 676> -135 27<502 502> -64 75 -23 25<500 628> 182 27 442 72 677 22
VStem: 183 26 362 27 604 24
LayerCount: 2
Back
Fore
SplineSet
609 295 m 2x6fc0
 555 220 l 1
 604 140 l 1
 600 116 598 96 597 79 c 1
 499 40 l 1
 520 -1 l 1
 628 2 l 1x6fc0
 629 -29 637 -51 633 -72 c 1
 676 -71 l 1
 678 -129 687 -149 636 -180 c 1
 524 -180 l 1
 502 -135 l 1x9fc0
 456 -133 l 1
 418 -61 l 1
 331 -75 270 -46 241 -1 c 1
 211 12 182 35 161 67 c 1
 183 84 187 104 181 126 c 1
 174 125 170 131 163 125 c 1
 153 172 l 1
 139 182 124 187 111 176 c 2
 95 161 l 1
 35 514 l 1
 53 672 203 727 341 686 c 1
 315 624 l 1
 460 700 l 1
 475 682 490 660 509 628 c 1
 570 562 670 380 609 295 c 2x6fc0
280 232 m 1
 280 232 319 248 376 225 c 1
 377 224 l 1
 320 363 l 1
 374 433 370 484 343 529 c 1
 309 442 l 1
 214 437 l 1
 238 364 280 232 280 232 c 1
193 164 m 0
 209 135 218 90 195 63 c 1
 247 -3 339 5 408 27 c 1
 472 -108 l 1
 572 -108 l 1
 612 -82 606 -64 604 -23 c 1x5fc0
 500 -23 l 1
 420 106 l 1
 525 147 l 1
 526 162 528 179 531 197 c 1
 480 281 l 1
 539 363 l 2
 592 435 515 597 454 668 c 1
 321 597 l 1
 385 517 423 459 348 359 c 1
 429 163 l 1
 396 141 l 1
 361 203 l 1
 321 209 l 1
 346 152 331 178 364 129 c 1
 295 96 l 1
 244 253 l 1
 139 253 l 1
 203 317 199 331 171 411 c 0
 159 443 148 475 138 508 c 1
 241 514 l 1
 307 670 l 1
 163 705 72 608 60 514 c 1
 112 205 l 1
 145 219 177 192 193 164 c 0
EndSplineSet
EndChar

StartChar: r
Encoding: 114 114 93
Width: 603
Flags: MW
HStem: -235 72<495 559 445 631 495 495> -187 24<485 485> -59 72<169 237 115 311 169 169> -12 25<115 127 104 237> 551 26<134 134> 690 25
VStem: 144 25 481 73
LayerCount: 2
Back
Fore
SplineSet
485 -187 m 1x9f
 425 -188 l 1
 408 -102 394 -51 309 -16 c 1
 308 -31 309 -46 311 -59 c 1
 169 -59 l 1
 127 -12 l 1x5f
 104 -12 l 1
 43 53 l 1
 75 128 l 1
 125 133 l 1
 149 228 146 386 137 500 c 1
 115 504 l 1
 134 551 l 1
 35 552 l 1
 89 670 l 1
 327 709 l 2
 436 727 485 704 500 633 c 1
 545 614 558 564 553 487 c 1
 509 321 l 1
 485 316 l 1
 523 302 l 1
 511 253 l 1
 567 235 l 1
 496 22 l 1
 521 1 544 -23 559 -53 c 1
 606 -97 638 -170 631 -235 c 1
 495 -235 l 1
 492 -221 489 -203 485 -187 c 1x9f
237 13 m 1
 235 69 254 137 286 190 c 1
 256 285 l 1
 305 325 391 304 387 226 c 1
 321 8 l 1
 405 -24 429 -83 445 -163 c 1
 559 -163 l 1
 562 -78 491 21 407 37 c 1
 491 288 l 1
 319 357 l 1
 439 391 l 1
 481 549 l 1
 488 663 463 706 331 684 c 2
 106 648 l 1
 74 577 l 1
 155 577 l 1
 170 448 180 237 145 110 c 1
 92 104 l 1
 72 58 l 1
 115 13 l 1
 178 15 138 14 237 13 c 1
291 417 m 1
 325 431 l 2
 348 440 358 489 365 533 c 1
 322 520 286 506 276 478 c 1
 291 417 l 1
205 525 m 1
 209 555 l 2
 215 607 351 621 401 627 c 1
 404 575 394 427 332 407 c 2
 242 377 l 1
 205 525 l 1
EndSplineSet
EndChar

StartChar: s
Encoding: 115 115 94
Width: 705
Flags: MW
HStem: -61 71 -59 72<131 248.5 539 583 539 539> -13 23 157 26 614 25<221 471 221 221>
VStem: 135 24 232 27
LayerCount: 2
Back
Fore
SplineSet
671 491 m 1x9e
 701 243 l 1
 671 267 643 287 612 309 c 1
 583 264 l 1
 657 249 l 1
 586 133 l 1
 597 83 l 1
 639 65 l 1
 657 -59 l 1x3e
 539 -59 l 1
 528 -19 l 1
 484 -74 328 -59 169 -59 c 1
 179 -44 188 -26 194 -13 c 1x5e
 161 -12 129 -12 109 -12 c 2
 85 -12 l 1
 99 8 l 2
 177 125 110 166 70 156 c 2
 41 149 l 1
 126 290 l 1
 133 282 l 1
 229 515 l 1
 240 568 223 588 171 615 c 2
 125 639 l 1
 495 639 l 1
 494 625 l 2
 491 575 597 563 622 565 c 1
 625 542 639 501 633 493 c 1
 644 492 657 490 671 491 c 1x9e
625 331 m 1
 600 538 l 1
 526 536 480 581 471 614 c 1
 221 614 l 1
 252 589 268 559 253 509 c 2
 246 482 l 1
 168 299 l 1
 220 312 357 327 411 288 c 1
 448 192 410 147 317 120 c 1
 133 254 l 1
 91 183 l 1
 150 179 187 110 131 13 c 1x5e
 193 13 420 -6 459 49 c 2
 474 71 l 1
 488 13 l 1
 583 13 l 1
 568 116 l 1
 477 150 l 1
 577 301 l 1
 299 372 l 1
 304 451 l 1
 406 458 l 1
 427 401 l 1
 515 388 557 380 625 331 c 1
403 233 m 1
 348 239 270 238 217 224 c 1
 322 147 l 1
 382 166 409 189 403 233 c 1
209 229 m 1
 232 282 l 1
 206 279 178 273 155 268 c 1
 209 229 l 1
EndSplineSet
EndChar

StartChar: t
Encoding: 116 116 95
Width: 745
Flags: MW
HStem: -59 141<488 507 488 510> -11 24<274 274> 132 25<244 280 230 298 244 244> 339 72<112 188 76 244 112 112> 389 22<147 147> 399 73<516 578 516 516> 634 25<98 275 98 98 542 542 542 668>
VStem: 92 24 211 324 388 73 462 26 637 72
LayerCount: 2
Back
Fore
SplineSet
310 244 m 1x7370
 244 339 l 1
 112 339 l 1
 124 355 138 372 147 389 c 1x7390
 29 386 l 1
 100 492 109 520 64 659 c 1
 285 659 l 1
 329 616 l 1
 488 616 l 1
 532 659 l 1
 705 659 l 1
 697 638 687 613 680 587 c 1
 747 586 l 1
 720 519 683 395 738 333 c 1
 669 292 l 1
 663 313 651 335 646 361 c 1
 601 334 l 1
 595 355 585 377 578 399 c 1x6b70
 516 399 l 1
 444 327 446 241 505 200 c 1
 480 118 l 1
 485 106 487 96 488 82 c 1
 507 82 l 1
 545 56 542 -28 510 -59 c 1
 283 -59 l 1
 280 -34 279 -18 274 -11 c 1xa770
 211 -12 l 1x6b70
 210 4 212 37 193 42 c 0
 182 45 171 48 160 51 c 1
 230 157 l 1
 280 157 l 1
 310 244 l 1x7370
318 591 m 1
 275 634 l 1
 98 634 l 1
 125 544 125 486 76 411 c 1
 188 411 l 1
 208 463 l 1
 357 463 l 1
 281 333 l 1
 337 248 l 1
 298 132 l 1
 244 132 l 1
 199 66 l 1
 201 66 l 1
 227 58 231 38 234 13 c 1
 445 13 l 1
 469 42 468 108 443 129 c 1
 393 129 l 1
 430 255 l 1
 353 319 396 417 451 472 c 1x6770
 598 472 l 1
 591 427 601 411 616 371 c 1
 660 396 l 1
 616 461 644 569 668 634 c 1
 542 634 l 1
 499 591 l 1
 318 591 l 1
EndSplineSet
EndChar

StartChar: u
Encoding: 117 117 96
Width: 573
Flags: MW
HStem: -71 20
VStem: 75 24<108 124> 190 75 308 260 345 28 495 73
LayerCount: 2
Back
Fore
SplineSet
486 535 m 1xec
 496 543 l 1
 559 488 620 160 496 36 c 1
 438 30 401 -25 407 -71 c 1
 254 -51 l 1
 265 -13 l 1
 179 -1 l 1
 185 36 l 1
 147 56 l 1
 141 77 l 1
 75 108 l 1
 42 600 l 1
 51 603 l 1
 113 628 110 662 118 720 c 1
 295 598 l 1
 284 572 l 1
 312 546 l 1
 437 619 l 1
 460 599 473 570 486 535 c 1xec
310 159 m 1
 380 238 l 1
 353 264 333 299 308 328 c 1xf0
 344 387 355 397 337 460 c 0
 334 471 326 481 322 492 c 1
 276 382 l 1
 223 355 l 1
 265 317 271 261 260 196 c 1
 310 159 l 1
434 588 m 1
 341 534 l 1
 351 499 371 456 373 419 c 0xec
 374 391 361 369 339 331 c 1
 346 322 392 256 403 252 c 2
 420 245 l 1
 313 125 l 1
 229 192 l 1
 169 146 l 1
 184 209 188 243 190 308 c 0
 192 361 179 384 141 418 c 1
 206 451 l 1
 264 589 l 1
 137 677 l 1
 129 628 113 603 68 584 c 1
 99 124 l 1
 220 68 l 1
 209 20 l 1
 334 4 l 1
 336 51 374 100 430 108 c 1
 540 224 490 522 434 588 c 1
EndSplineSet
EndChar

StartChar: v
Encoding: 118 118 97
Width: 696
Flags: MW
HStem: -59 72<269 344 217 408 269 269> -11 24<248 248> 652 20G
LayerCount: 2
Back
Fore
SplineSet
706 477 m 1xa0
 626 321 l 1
 577 344 l 1
 433 30 l 1
 459 -28 l 1
 408 -59 l 1
 269 -59 l 1
 248 -11 l 1x60
 201 -12 l 1
 145 108 l 1
 192 145 l 1
 119 289 l 1
 145 353 134 333 154 384 c 1
 120 438 l 1
 89 419 l 1
 28 529 l 1
 190 642 l 1
 200 622 209 606 225 591 c 0
 244 572 265 550 284 531 c 1
 270 523 l 1
 282 509 295 502 323 474 c 1
 301 461 l 1
 336 420 l 1
 329 413 l 1
 352 392 l 1
 407 415 433 471 430 535 c 1
 412 547 397 564 382 579 c 1
 401 607 416 639 426 672 c 1
 453 654 612 552 647 549 c 2
 666 548 l 1
 642 502 l 1
 670 488 695 478 706 477 c 1xa0
560 398 m 1
 628 529 l 1
 581 545 485 604 439 634 c 1
 433 619 423 597 414 582 c 1
 426 570 438 558 454 551 c 1
 460 478 435 395 360 367 c 1
 369 343 383 321 391 296 c 1
 366 254 334 218 297 186 c 1
 240 289 l 1
 306 417 l 1
 218 523 l 1
 242 537 l 1
 226 552 216 562 208 571 c 0
 198 580 191 588 181 605 c 1
 61 522 l 1
 99 453 l 1
 153 484 l 1
 212 415 l 1
 147 289 l 1
 224 138 l 1
 176 101 l 1
 217 13 l 1
 344 13 l 1
 383 37 l 1
 360 90 l 1
 511 421 l 1
 560 398 l 1
364 299 m 1
 362 304 360 308 358 313 c 1
 321 249 l 1
 335 265 354 284 364 299 c 1
EndSplineSet
EndChar

StartChar: w
Encoding: 119 119 98
Width: 843
Flags: MW
HStem: -149 73<561 608 505 682 561 561> -59 72<310 357 255 425 310 310> 565 25<581 720 581 581>
VStem: 107 22 608 74<-149 -76>
LayerCount: 2
Back
Fore
SplineSet
813 233 m 1
 860 174 l 1
 670 -28 l 1
 682 -149 l 1
 561 -149 l 1
 546 -139 530 -122 519 -103 c 1
 497 -101 l 1
 471 -85 451 -62 437 -31 c 1
 425 -59 l 1
 310 -59 l 1
 297 -47 286 -25 272 -8 c 1
 245 -12 l 1
 182 47 131 145 112 228 c 1
 114 285 112 351 107 409 c 1
 83 393 l 1
 24 545 l 1
 191 758 l 1
 190 721 188 666 211 628 c 1
 238 661 l 1
 237 637 238 614 245 594 c 0
 249 593 257 593 261 592 c 2
 284 587 l 1
 266 563 l 1
 280 539 296 525 319 520 c 1
 267 471 l 1
 324 280 l 1
 407 382 l 1
 549 321 l 1
 534 285 l 1
 587 259 l 1
 543 146 l 1
 620 238 l 1
 563 317 506 395 447 472 c 1
 571 590 l 1
 789 590 l 1
 694 517 l 1
 814 517 l 1
 679 403 l 1
 707 369 l 1
 813 233 l 1
353 174 m 1
 394 222 l 1
 331 253 l 1
 353 174 l 1
597 37 m 1
 784 235 l 1
 599 464 l 1
 720 565 l 1
 581 565 l 1
 480 469 l 1
 652 237 l 1
 510 71 l 1
 467 194 l 1
 519 304 l 1
 416 352 l 1
 353 270 l 1
 434 229 l 1
 319 99 l 1
 192 535 l 1
 235 576 l 1
 200 594 175 637 167 688 c 1
 52 541 l 1
 95 431 l 1
 129 453 l 1
 135 379 140 304 137 230 c 1
 157 146 210 58 255 13 c 1
 357 13 l 1
 411 131 l 1
 428 75 457 -41 505 -76 c 1
 608 -76 l 1
 597 37 l 1
EndSplineSet
EndChar

StartChar: x
Encoding: 120 120 99
Width: 718
Flags: MW
HStem: -134 90<417 644 596 644> 13 99<71 183 65 189 65 189>
LayerCount: 2
Back
Fore
SplineSet
471 174 m 1
 474 168 489 62 502 -18 c 1
 685 -19 l 1
 646 -90 l 1
 725 -91 l 1
 664 -206 l 1
 468 -206 l 1
 457 -159 l 1
 399 -159 l 1
 338 31 l 1
 255 -59 l 1
 125 -59 l 1
 114 -48 118 -32 116 -10 c 1
 60 -12 l 1
 22 26 30 94 48 137 c 1
 172 137 l 1
 275 249 l 1
 254 323 l 1
 191 252 l 1
 155 321 l 1
 128 288 l 1
 50 470 l 1
 164 603 l 1
 210 568 l 1
 231 618 l 1
 364 581 l 1
 377 516 l 1
 413 512 l 1
 428 418 l 1
 461 455 l 1
 512 449 l 1
 419 625 l 1
 501 724 l 1
 692 673 l 1
 676 658 l 2
 667 649 660 638 655 625 c 1
 727 607 l 1
 655 538 696 362 727 333 c 1
 592 212 l 1
 549 258 l 1
 471 174 l 1
650 394 m 1
 620 441 591 584 645 660 c 1
 510 696 l 1
 449 622 l 1
 557 418 l 1
 470 429 l 1
 381 330 l 1
 342 562 l 1
 245 588 l 1
 220 529 l 1
 168 569 l 1
 79 466 l 1
 135 336 l 1
 237 459 l 1
 303 243 l 1
 183 112 l 1
 65 112 l 1
 53 77 56 33 71 13 c 1
 189 13 l 1
 327 162 l 1
 417 -134 l 1
 596 -134 l 1
 644 -44 l 1
 446 -43 l 1
 430 50 418 144 396 236 c 1
 489 336 l 1
 533 289 l 1
 650 394 l 1
EndSplineSet
EndChar

StartChar: y
Encoding: 121 121 100
Width: 712
Flags: MW
HStem: -59 72<311 395 261 458 311 311> -11 24<300 300> 150 25<229 315 229 229>
VStem: 470 72<-10 57>
LayerCount: 2
Back
Fore
SplineSet
663 607 m 1xb0
 718 558 l 1
 602 197 l 1
 487 246 l 1
 496 160 l 1
 502 108 l 1
 548 82 l 1
 542 -10 l 1
 458 -59 l 1
 311 -59 l 1
 300 -11 l 1x70
 241 -12 l 1
 198 175 l 1
 329 175 l 1
 307 268 l 2
 300 284 291 304 284 320 c 0
 277 337 265 360 241 420 c 1
 170 379 l 1
 145 444 l 1
 104 421 l 1
 30 595 l 1
 75 674 l 1
 129 629 l 1
 151 716 l 1
 323 635 l 1
 336 583 l 1
 372 566 l 1
 396 438 l 1
 475 430 l 1
 389 683 l 1
 506 772 l 1
 672 622 l 1
 663 607 l 1xb0
535 274 m 1
 643 614 l 1
 504 740 l 1
 419 674 l 1
 511 402 l 1
 399 411 l 1
 351 343 l 1
 301 618 l 1
 167 681 l 1
 143 584 l 1
 82 636 l 1
 58 594 l 1
 116 457 l 1
 229 520 l 1
 256 451 281 376 315 308 c 0
 320 299 326 286 330 276 c 2
 381 62 l 1
 320 84 l 1
 315 150 l 1
 229 150 l 1
 261 13 l 1
 395 13 l 1
 470 57 l 1
 475 135 l 1
 430 160 l 1
 412 326 l 1
 535 274 l 1
EndSplineSet
EndChar

StartChar: z
Encoding: 122 122 101
Width: 715
Flags: MW
HStem: -111 72<456 563 403 632 456 456> -64 25<435 435> -13 26<203 203> 622 25<101 432 101 101>
VStem: 132 25 159 27 595 37 595 72
LayerCount: 2
Back
Fore
SplineSet
239 239 m 1x7e
 101 354 l 1
 219 431 133 563 62 626 c 2
 37 647 l 1
 441 647 l 1
 634 500 l 1
 632 468 l 1
 681 434 l 1
 667 174 l 1x7d
 580 229 l 1
 528 194 l 1
 681 121 l 1
 653 82 l 1
 721 56 l 1
 667 -13 l 1
 632 -111 l 1xbe
 456 -111 l 1
 435 -64 l 1xbd
 326 -60 196 -62 196 -62 c 1
 196 -62 203 -26 203 -13 c 1
 120 -12 l 1
 145 69 133 83 57 122 c 1
 351 279 l 1
 239 239 l 1x7e
409 304 m 1
 436 383 l 1
 409 380 380 373 354 368 c 0
 348 366 343 365 338 365 c 2
 361 338 l 1
 409 304 l 1
432 622 m 1
 101 622 l 1
 177 543 225 421 143 352 c 1
 189 314 l 1
 329 356 l 1
 252 433 l 1
 300 441 349 456 398 457 c 0
 446 457 474 435 463 381 c 1
 429 286 l 1
 111 121 l 1
 158 90 163 54 153 13 c 1
 368 13 l 1
 403 -39 l 1
 563 -39 l 1
 596 53 l 1
 642 111 l 1
 494 176 l 1
 500 153 502 133 500 109 c 1
 228 109 l 1
 520 304 l 1
 595 256 l 1
 608 488 l 1
 432 622 l 1
EndSplineSet
EndChar

StartChar: braceleft
Encoding: 123 123 102
Width: 1000
Flags: MW
HStem: 20 45 95 45 236 46<696 757 645 676 817 823 817 817> 236 175<750 768 750 771 676 768 750 884 750 817> 291 45<13 142 13 147 193 336 13 188> 385 45<406 465 366 486 406 406>
VStem: 13 323<291 336 291 336> 127 146 339 45 402 174 660 45 801 145
LayerCount: 2
Back
Fore
SplineSet
147 336 m 1xedf0
 152 377 l 1
 44 377 l 1
 74 411 114 448 98 500 c 1
 141 513 l 1
 150 485 147 452 134 422 c 1
 202 422 l 1
 193 336 l 1
 336 336 l 1xeef0
 336 291 l 1
 188 291 l 1
 176 189 l 2
 171 166 185 107 222 156 c 0
 227 162 237 198 217 193 c 1
 206 237 l 1
 272 254 289 173 259 130 c 0
 235 96 102 60 132 196 c 1
 142 291 l 1
 13 291 l 1
 13 336 l 1
 147 336 l 1xedf0
480 507 m 1
 523 521 l 1
 539 470 519 423 486 385 c 1
 406 385 l 1
 385 196 l 1
 371 129 484 121 524 175 c 0
 531 185 537 215 525 224 c 0
 524 224 523 225 521 224 c 2
 511 268 l 1
 575 284 591 193 560 150 c 0
 493 55 317 89 341 204 c 1
 366 430 l 1
 465 430 l 1
 483 455 487 485 480 507 c 1
448 238 m 1
 449 237 l 1
 427 198 l 1
 399 214 397 240 409 262 c 0
 431 300 498 339 535 366 c 0
 542 370 545 373 546 374 c 2
 579 344 l 1
 568 332 551 322 538 313 c 0
 518 300 456 260 448 238 c 1
705 421 m 1
 709 430 l 2
 711 435 714 453 710 459 c 0
 709 459 706 460 699 461 c 2
 698 461 l 1
 703 448 706 435 705 421 c 1
750 411 m 1xd1f0
 768 411 l 1xd1f0
 804 282 l 1xedf0
 823 282 l 1
 815 308 816 340 826 360 c 1
 866 343 l 1
 856 321 859 289 864 279 c 2
 884 236 l 1
 817 236 l 1
 851 114 l 1
 846 91 862 47 891 73 c 0
 897 78 911 120 891 115 c 1
 880 158 l 1
 951 176 959 89 932 52 c 0
 908 18 779 -18 804 113 c 1
 771 236 l 1
 676 236 l 1
 619 103 l 1
 578 121 l 1
 633 256 l 1
 633 281 l 1
 645 282 l 1
 681 366 l 1
 618 366 l 1
 678 435 662 422 638 500 c 1
 700 508 776 520 752 416 c 1
 750 411 l 1xd1f0
731 366 m 1
 696 282 l 1xedf0
 757 282 l 1
 734 366 l 1
 731 366 l 1
EndSplineSet
EndChar

StartChar: bar
Encoding: 124 124 103
Width: 1000
Flags: MW
HStem: 20 45 95 45 236 46<696 757 645 676 817 823 817 817> 236 175<750 768 750 771 676 768 750 884 750 817> 291 45<13 142 13 147 193 336 13 188> 385 45<406 465 366 486 406 406>
VStem: 13 323<291 336 291 336> 127 146 339 45 402 174 660 45 801 145
LayerCount: 2
Back
Fore
SplineSet
147 336 m 1xedf0
 152 377 l 1
 44 377 l 1
 74 411 114 448 98 500 c 1
 141 513 l 1
 150 485 147 452 134 422 c 1
 202 422 l 1
 193 336 l 1
 336 336 l 1xeef0
 336 291 l 1
 188 291 l 1
 176 189 l 2
 171 166 185 107 222 156 c 0
 227 162 237 198 217 193 c 1
 206 237 l 1
 272 254 289 173 259 130 c 0
 235 96 102 60 132 196 c 1
 142 291 l 1
 13 291 l 1
 13 336 l 1
 147 336 l 1xedf0
480 507 m 1
 523 521 l 1
 539 470 519 423 486 385 c 1
 406 385 l 1
 385 196 l 1
 371 129 484 121 524 175 c 0
 531 185 537 215 525 224 c 0
 524 224 523 225 521 224 c 2
 511 268 l 1
 575 284 591 193 560 150 c 0
 493 55 317 89 341 204 c 1
 366 430 l 1
 465 430 l 1
 483 455 487 485 480 507 c 1
448 238 m 1
 449 237 l 1
 427 198 l 1
 399 214 397 240 409 262 c 0
 431 300 498 339 535 366 c 0
 542 370 545 373 546 374 c 2
 579 344 l 1
 568 332 551 322 538 313 c 0
 518 300 456 260 448 238 c 1
705 421 m 1
 709 430 l 2
 711 435 714 453 710 459 c 0
 709 459 706 460 699 461 c 2
 698 461 l 1
 703 448 706 435 705 421 c 1
750 411 m 1xd1f0
 768 411 l 1xd1f0
 804 282 l 1xedf0
 823 282 l 1
 815 308 816 340 826 360 c 1
 866 343 l 1
 856 321 859 289 864 279 c 2
 884 236 l 1
 817 236 l 1
 851 114 l 1
 846 91 862 47 891 73 c 0
 897 78 911 120 891 115 c 1
 880 158 l 1
 951 176 959 89 932 52 c 0
 908 18 779 -18 804 113 c 1
 771 236 l 1
 676 236 l 1
 619 103 l 1
 578 121 l 1
 633 256 l 1
 633 281 l 1
 645 282 l 1
 681 366 l 1
 618 366 l 1
 678 435 662 422 638 500 c 1
 700 508 776 520 752 416 c 1
 750 411 l 1xd1f0
731 366 m 1
 696 282 l 1xedf0
 757 282 l 1
 734 366 l 1
 731 366 l 1
EndSplineSet
EndChar

StartChar: braceright
Encoding: 125 125 104
Width: 1000
Flags: MW
HStem: 20 45 95 45 236 46<696 757 645 676 817 823 817 817> 236 175<750 768 750 771 676 768 750 884 750 817> 291 45<13 142 13 147 193 336 13 188> 385 45<406 465 366 486 406 406>
VStem: 13 323<291 336 291 336> 127 146 339 45 402 174 660 45 801 145
LayerCount: 2
Back
Fore
SplineSet
147 336 m 1xedf0
 152 377 l 1
 44 377 l 1
 74 411 114 448 98 500 c 1
 141 513 l 1
 150 485 147 452 134 422 c 1
 202 422 l 1
 193 336 l 1
 336 336 l 1xeef0
 336 291 l 1
 188 291 l 1
 176 189 l 2
 171 166 185 107 222 156 c 0
 227 162 237 198 217 193 c 1
 206 237 l 1
 272 254 289 173 259 130 c 0
 235 96 102 60 132 196 c 1
 142 291 l 1
 13 291 l 1
 13 336 l 1
 147 336 l 1xedf0
480 507 m 1
 523 521 l 1
 539 470 519 423 486 385 c 1
 406 385 l 1
 385 196 l 1
 371 129 484 121 524 175 c 0
 531 185 537 215 525 224 c 0
 524 224 523 225 521 224 c 2
 511 268 l 1
 575 284 591 193 560 150 c 0
 493 55 317 89 341 204 c 1
 366 430 l 1
 465 430 l 1
 483 455 487 485 480 507 c 1
448 238 m 1
 449 237 l 1
 427 198 l 1
 399 214 397 240 409 262 c 0
 431 300 498 339 535 366 c 0
 542 370 545 373 546 374 c 2
 579 344 l 1
 568 332 551 322 538 313 c 0
 518 300 456 260 448 238 c 1
705 421 m 1
 709 430 l 2
 711 435 714 453 710 459 c 0
 709 459 706 460 699 461 c 2
 698 461 l 1
 703 448 706 435 705 421 c 1
750 411 m 1xd1f0
 768 411 l 1xd1f0
 804 282 l 1xedf0
 823 282 l 1
 815 308 816 340 826 360 c 1
 866 343 l 1
 856 321 859 289 864 279 c 2
 884 236 l 1
 817 236 l 1
 851 114 l 1
 846 91 862 47 891 73 c 0
 897 78 911 120 891 115 c 1
 880 158 l 1
 951 176 959 89 932 52 c 0
 908 18 779 -18 804 113 c 1
 771 236 l 1
 676 236 l 1
 619 103 l 1
 578 121 l 1
 633 256 l 1
 633 281 l 1
 645 282 l 1
 681 366 l 1
 618 366 l 1
 678 435 662 422 638 500 c 1
 700 508 776 520 752 416 c 1
 750 411 l 1xd1f0
731 366 m 1
 696 282 l 1xedf0
 757 282 l 1
 734 366 l 1
 731 366 l 1
EndSplineSet
EndChar

StartChar: asciitilde
Encoding: 126 126 105
Width: 1000
Flags: MW
HStem: 20 45 95 45 236 46<696 757 645 676 817 823 817 817> 236 175<750 768 750 771 676 768 750 884 750 817> 291 45<13 142 13 147 193 336 13 188> 385 45<406 465 366 486 406 406>
VStem: 13 323<291 336 291 336> 127 146 339 45 402 174 660 45 801 145
LayerCount: 2
Back
Fore
SplineSet
147 336 m 1xedf0
 152 377 l 1
 44 377 l 1
 74 411 114 448 98 500 c 1
 141 513 l 1
 150 485 147 452 134 422 c 1
 202 422 l 1
 193 336 l 1
 336 336 l 1xeef0
 336 291 l 1
 188 291 l 1
 176 189 l 2
 171 166 185 107 222 156 c 0
 227 162 237 198 217 193 c 1
 206 237 l 1
 272 254 289 173 259 130 c 0
 235 96 102 60 132 196 c 1
 142 291 l 1
 13 291 l 1
 13 336 l 1
 147 336 l 1xedf0
480 507 m 1
 523 521 l 1
 539 470 519 423 486 385 c 1
 406 385 l 1
 385 196 l 1
 371 129 484 121 524 175 c 0
 531 185 537 215 525 224 c 0
 524 224 523 225 521 224 c 2
 511 268 l 1
 575 284 591 193 560 150 c 0
 493 55 317 89 341 204 c 1
 366 430 l 1
 465 430 l 1
 483 455 487 485 480 507 c 1
448 238 m 1
 449 237 l 1
 427 198 l 1
 399 214 397 240 409 262 c 0
 431 300 498 339 535 366 c 0
 542 370 545 373 546 374 c 2
 579 344 l 1
 568 332 551 322 538 313 c 0
 518 300 456 260 448 238 c 1
705 421 m 1
 709 430 l 2
 711 435 714 453 710 459 c 0
 709 459 706 460 699 461 c 2
 698 461 l 1
 703 448 706 435 705 421 c 1
750 411 m 1xd1f0
 768 411 l 1xd1f0
 804 282 l 1xedf0
 823 282 l 1
 815 308 816 340 826 360 c 1
 866 343 l 1
 856 321 859 289 864 279 c 2
 884 236 l 1
 817 236 l 1
 851 114 l 1
 846 91 862 47 891 73 c 0
 897 78 911 120 891 115 c 1
 880 158 l 1
 951 176 959 89 932 52 c 0
 908 18 779 -18 804 113 c 1
 771 236 l 1
 676 236 l 1
 619 103 l 1
 578 121 l 1
 633 256 l 1
 633 281 l 1
 645 282 l 1
 681 366 l 1
 618 366 l 1
 678 435 662 422 638 500 c 1
 700 508 776 520 752 416 c 1
 750 411 l 1xd1f0
731 366 m 1
 696 282 l 1xedf0
 757 282 l 1
 734 366 l 1
 731 366 l 1
EndSplineSet
EndChar

StartChar: DEL
Encoding: 127 127 106
Width: 1000
Flags: MW
HStem: 20 45 95 45 236 46<696 757 645 676 817 823 817 817> 236 175<750 768 750 771 676 768 750 884 750 817> 291 45<13 142 13 147 193 336 13 188> 385 45<406 465 366 486 406 406>
VStem: 13 323<291 336 291 336> 127 146 339 45 402 174 660 45 801 145
LayerCount: 2
Back
Fore
SplineSet
147 336 m 1xedf0
 152 377 l 1
 44 377 l 1
 74 411 114 448 98 500 c 1
 141 513 l 1
 150 485 147 452 134 422 c 1
 202 422 l 1
 193 336 l 1
 336 336 l 1xeef0
 336 291 l 1
 188 291 l 1
 176 189 l 2
 171 166 185 107 222 156 c 0
 227 162 237 198 217 193 c 1
 206 237 l 1
 272 254 289 173 259 130 c 0
 235 96 102 60 132 196 c 1
 142 291 l 1
 13 291 l 1
 13 336 l 1
 147 336 l 1xedf0
480 507 m 1
 523 521 l 1
 539 470 519 423 486 385 c 1
 406 385 l 1
 385 196 l 1
 371 129 484 121 524 175 c 0
 531 185 537 215 525 224 c 0
 524 224 523 225 521 224 c 2
 511 268 l 1
 575 284 591 193 560 150 c 0
 493 55 317 89 341 204 c 1
 366 430 l 1
 465 430 l 1
 483 455 487 485 480 507 c 1
448 238 m 1
 449 237 l 1
 427 198 l 1
 399 214 397 240 409 262 c 0
 431 300 498 339 535 366 c 0
 542 370 545 373 546 374 c 2
 579 344 l 1
 568 332 551 322 538 313 c 0
 518 300 456 260 448 238 c 1
705 421 m 1
 709 430 l 2
 711 435 714 453 710 459 c 0
 709 459 706 460 699 461 c 2
 698 461 l 1
 703 448 706 435 705 421 c 1
750 411 m 1xd1f0
 768 411 l 1xd1f0
 804 282 l 1xedf0
 823 282 l 1
 815 308 816 340 826 360 c 1
 866 343 l 1
 856 321 859 289 864 279 c 2
 884 236 l 1
 817 236 l 1
 851 114 l 1
 846 91 862 47 891 73 c 0
 897 78 911 120 891 115 c 1
 880 158 l 1
 951 176 959 89 932 52 c 0
 908 18 779 -18 804 113 c 1
 771 236 l 1
 676 236 l 1
 619 103 l 1
 578 121 l 1
 633 256 l 1
 633 281 l 1
 645 282 l 1
 681 366 l 1
 618 366 l 1
 678 435 662 422 638 500 c 1
 700 508 776 520 752 416 c 1
 750 411 l 1xd1f0
731 366 m 1
 696 282 l 1xedf0
 757 282 l 1
 734 366 l 1
 731 366 l 1
EndSplineSet
EndChar

StartChar: Adieresis
Encoding: 196 196 107
Width: 1000
Flags: MW
HStem: 20 45 95 45 236 46<696 757 645 676 817 823 817 817> 236 175<750 768 750 771 676 768 750 884 750 817> 291 45<13 142 13 147 193 336 13 188> 385 45<406 465 366 486 406 406>
VStem: 13 323<291 336 291 336> 127 146 339 45 402 174 660 45 801 145
LayerCount: 2
Back
Fore
SplineSet
147 336 m 1xedf0
 152 377 l 1
 44 377 l 1
 74 411 114 448 98 500 c 1
 141 513 l 1
 150 485 147 452 134 422 c 1
 202 422 l 1
 193 336 l 1
 336 336 l 1xeef0
 336 291 l 1
 188 291 l 1
 176 189 l 2
 171 166 185 107 222 156 c 0
 227 162 237 198 217 193 c 1
 206 237 l 1
 272 254 289 173 259 130 c 0
 235 96 102 60 132 196 c 1
 142 291 l 1
 13 291 l 1
 13 336 l 1
 147 336 l 1xedf0
480 507 m 1
 523 521 l 1
 539 470 519 423 486 385 c 1
 406 385 l 1
 385 196 l 1
 371 129 484 121 524 175 c 0
 531 185 537 215 525 224 c 0
 524 224 523 225 521 224 c 2
 511 268 l 1
 575 284 591 193 560 150 c 0
 493 55 317 89 341 204 c 1
 366 430 l 1
 465 430 l 1
 483 455 487 485 480 507 c 1
448 238 m 1
 449 237 l 1
 427 198 l 1
 399 214 397 240 409 262 c 0
 431 300 498 339 535 366 c 0
 542 370 545 373 546 374 c 2
 579 344 l 1
 568 332 551 322 538 313 c 0
 518 300 456 260 448 238 c 1
705 421 m 1
 709 430 l 2
 711 435 714 453 710 459 c 0
 709 459 706 460 699 461 c 2
 698 461 l 1
 703 448 706 435 705 421 c 1
750 411 m 1xd1f0
 768 411 l 1xd1f0
 804 282 l 1xedf0
 823 282 l 1
 815 308 816 340 826 360 c 1
 866 343 l 1
 856 321 859 289 864 279 c 2
 884 236 l 1
 817 236 l 1
 851 114 l 1
 846 91 862 47 891 73 c 0
 897 78 911 120 891 115 c 1
 880 158 l 1
 951 176 959 89 932 52 c 0
 908 18 779 -18 804 113 c 1
 771 236 l 1
 676 236 l 1
 619 103 l 1
 578 121 l 1
 633 256 l 1
 633 281 l 1
 645 282 l 1
 681 366 l 1
 618 366 l 1
 678 435 662 422 638 500 c 1
 700 508 776 520 752 416 c 1
 750 411 l 1xd1f0
731 366 m 1
 696 282 l 1xedf0
 757 282 l 1
 734 366 l 1
 731 366 l 1
EndSplineSet
EndChar

StartChar: Aring
Encoding: 197 197 108
Width: 1000
Flags: MW
HStem: 20 45 95 45 236 46<696 757 645 676 817 823 817 817> 236 175<750 768 750 771 676 768 750 884 750 817> 291 45<13 142 13 147 193 336 13 188> 385 45<406 465 366 486 406 406>
VStem: 13 323<291 336 291 336> 127 146 339 45 402 174 660 45 801 145
LayerCount: 2
Back
Fore
SplineSet
147 336 m 1xedf0
 152 377 l 1
 44 377 l 1
 74 411 114 448 98 500 c 1
 141 513 l 1
 150 485 147 452 134 422 c 1
 202 422 l 1
 193 336 l 1
 336 336 l 1xeef0
 336 291 l 1
 188 291 l 1
 176 189 l 2
 171 166 185 107 222 156 c 0
 227 162 237 198 217 193 c 1
 206 237 l 1
 272 254 289 173 259 130 c 0
 235 96 102 60 132 196 c 1
 142 291 l 1
 13 291 l 1
 13 336 l 1
 147 336 l 1xedf0
480 507 m 1
 523 521 l 1
 539 470 519 423 486 385 c 1
 406 385 l 1
 385 196 l 1
 371 129 484 121 524 175 c 0
 531 185 537 215 525 224 c 0
 524 224 523 225 521 224 c 2
 511 268 l 1
 575 284 591 193 560 150 c 0
 493 55 317 89 341 204 c 1
 366 430 l 1
 465 430 l 1
 483 455 487 485 480 507 c 1
448 238 m 1
 449 237 l 1
 427 198 l 1
 399 214 397 240 409 262 c 0
 431 300 498 339 535 366 c 0
 542 370 545 373 546 374 c 2
 579 344 l 1
 568 332 551 322 538 313 c 0
 518 300 456 260 448 238 c 1
705 421 m 1
 709 430 l 2
 711 435 714 453 710 459 c 0
 709 459 706 460 699 461 c 2
 698 461 l 1
 703 448 706 435 705 421 c 1
750 411 m 1xd1f0
 768 411 l 1xd1f0
 804 282 l 1xedf0
 823 282 l 1
 815 308 816 340 826 360 c 1
 866 343 l 1
 856 321 859 289 864 279 c 2
 884 236 l 1
 817 236 l 1
 851 114 l 1
 846 91 862 47 891 73 c 0
 897 78 911 120 891 115 c 1
 880 158 l 1
 951 176 959 89 932 52 c 0
 908 18 779 -18 804 113 c 1
 771 236 l 1
 676 236 l 1
 619 103 l 1
 578 121 l 1
 633 256 l 1
 633 281 l 1
 645 282 l 1
 681 366 l 1
 618 366 l 1
 678 435 662 422 638 500 c 1
 700 508 776 520 752 416 c 1
 750 411 l 1xd1f0
731 366 m 1
 696 282 l 1xedf0
 757 282 l 1
 734 366 l 1
 731 366 l 1
EndSplineSet
EndChar

StartChar: Ccedilla
Encoding: 199 199 109
Width: 1000
Flags: MW
HStem: 20 45 95 45 236 46<696 757 645 676 817 823 817 817> 236 175<750 768 750 771 676 768 750 884 750 817> 291 45<13 142 13 147 193 336 13 188> 385 45<406 465 366 486 406 406>
VStem: 13 323<291 336 291 336> 127 146 339 45 402 174 660 45 801 145
LayerCount: 2
Back
Fore
SplineSet
147 336 m 1xedf0
 152 377 l 1
 44 377 l 1
 74 411 114 448 98 500 c 1
 141 513 l 1
 150 485 147 452 134 422 c 1
 202 422 l 1
 193 336 l 1
 336 336 l 1xeef0
 336 291 l 1
 188 291 l 1
 176 189 l 2
 171 166 185 107 222 156 c 0
 227 162 237 198 217 193 c 1
 206 237 l 1
 272 254 289 173 259 130 c 0
 235 96 102 60 132 196 c 1
 142 291 l 1
 13 291 l 1
 13 336 l 1
 147 336 l 1xedf0
480 507 m 1
 523 521 l 1
 539 470 519 423 486 385 c 1
 406 385 l 1
 385 196 l 1
 371 129 484 121 524 175 c 0
 531 185 537 215 525 224 c 0
 524 224 523 225 521 224 c 2
 511 268 l 1
 575 284 591 193 560 150 c 0
 493 55 317 89 341 204 c 1
 366 430 l 1
 465 430 l 1
 483 455 487 485 480 507 c 1
448 238 m 1
 449 237 l 1
 427 198 l 1
 399 214 397 240 409 262 c 0
 431 300 498 339 535 366 c 0
 542 370 545 373 546 374 c 2
 579 344 l 1
 568 332 551 322 538 313 c 0
 518 300 456 260 448 238 c 1
705 421 m 1
 709 430 l 2
 711 435 714 453 710 459 c 0
 709 459 706 460 699 461 c 2
 698 461 l 1
 703 448 706 435 705 421 c 1
750 411 m 1xd1f0
 768 411 l 1xd1f0
 804 282 l 1xedf0
 823 282 l 1
 815 308 816 340 826 360 c 1
 866 343 l 1
 856 321 859 289 864 279 c 2
 884 236 l 1
 817 236 l 1
 851 114 l 1
 846 91 862 47 891 73 c 0
 897 78 911 120 891 115 c 1
 880 158 l 1
 951 176 959 89 932 52 c 0
 908 18 779 -18 804 113 c 1
 771 236 l 1
 676 236 l 1
 619 103 l 1
 578 121 l 1
 633 256 l 1
 633 281 l 1
 645 282 l 1
 681 366 l 1
 618 366 l 1
 678 435 662 422 638 500 c 1
 700 508 776 520 752 416 c 1
 750 411 l 1xd1f0
731 366 m 1
 696 282 l 1xedf0
 757 282 l 1
 734 366 l 1
 731 366 l 1
EndSplineSet
EndChar

StartChar: Eacute
Encoding: 201 201 110
Width: 1000
Flags: MW
HStem: 20 45 95 45 236 46<696 757 645 676 817 823 817 817> 236 175<750 768 750 771 676 768 750 884 750 817> 291 45<13 142 13 147 193 336 13 188> 377 45<134 152> 385 45<406 465 366 486 406 406>
VStem: 13 323<291 336 291 336> 127 146 339 45 402 174 660 45 801 145
LayerCount: 2
Back
Fore
SplineSet
147 336 m 1xecf8
 152 377 l 1
 44 377 l 1
 74 411 114 448 98 500 c 1
 141 513 l 1
 150 485 147 452 134 422 c 1
 202 422 l 1
 193 336 l 1
 336 336 l 1xed78
 336 291 l 1
 188 291 l 1
 176 189 l 2
 171 166 185 107 222 156 c 0
 227 162 237 198 217 193 c 1
 206 237 l 1
 272 254 289 173 259 130 c 0
 235 96 102 60 132 196 c 1
 142 291 l 1
 13 291 l 1
 13 336 l 1
 147 336 l 1xecf8
480 507 m 1
 523 521 l 1
 539 470 519 423 486 385 c 1xeaf8
 406 385 l 1
 385 196 l 1
 371 129 484 121 524 175 c 0
 531 185 537 215 525 224 c 0
 524 224 523 225 521 224 c 2
 511 268 l 1
 575 284 591 193 560 150 c 0
 493 55 317 89 341 204 c 1
 366 430 l 1
 465 430 l 1
 483 455 487 485 480 507 c 1
448 238 m 1
 449 237 l 1
 427 198 l 1
 399 214 397 240 409 262 c 0
 431 300 498 339 535 366 c 0
 542 370 545 373 546 374 c 2
 579 344 l 1
 568 332 551 322 538 313 c 0
 518 300 456 260 448 238 c 1
705 421 m 1
 709 430 l 2
 711 435 714 453 710 459 c 0
 709 459 706 460 699 461 c 2
 698 461 l 1
 703 448 706 435 705 421 c 1
750 411 m 1xd0f8
 768 411 l 1xd0f8
 804 282 l 1xeaf8
 823 282 l 1
 815 308 816 340 826 360 c 1
 866 343 l 1
 856 321 859 289 864 279 c 2
 884 236 l 1
 817 236 l 1
 851 114 l 1
 846 91 862 47 891 73 c 0
 897 78 911 120 891 115 c 1
 880 158 l 1
 951 176 959 89 932 52 c 0
 908 18 779 -18 804 113 c 1
 771 236 l 1
 676 236 l 1
 619 103 l 1
 578 121 l 1
 633 256 l 1
 633 281 l 1
 645 282 l 1
 681 366 l 1
 618 366 l 1
 678 435 662 422 638 500 c 1
 700 508 776 520 752 416 c 1
 750 411 l 1xd0f8
731 366 m 1
 696 282 l 1xeaf8
 757 282 l 1
 734 366 l 1
 731 366 l 1
EndSplineSet
EndChar

StartChar: Ntilde
Encoding: 209 209 111
Width: 1000
Flags: MW
HStem: 20 45 95 45 236 46<696 757 645 676 817 823 817 817> 236 175<750 768 750 771 676 768 750 884 750 817> 291 45<13 142 13 147 193 336 13 188> 385 45<406 465 366 486 406 406>
VStem: 13 323<291 336 291 336> 127 146 339 45 402 174 660 45 801 145
LayerCount: 2
Back
Fore
SplineSet
147 336 m 1xedf0
 152 377 l 1
 44 377 l 1
 74 411 114 448 98 500 c 1
 141 513 l 1
 150 485 147 452 134 422 c 1
 202 422 l 1
 193 336 l 1
 336 336 l 1xeef0
 336 291 l 1
 188 291 l 1
 176 189 l 2
 171 166 185 107 222 156 c 0
 227 162 237 198 217 193 c 1
 206 237 l 1
 272 254 289 173 259 130 c 0
 235 96 102 60 132 196 c 1
 142 291 l 1
 13 291 l 1
 13 336 l 1
 147 336 l 1xedf0
480 507 m 1
 523 521 l 1
 539 470 519 423 486 385 c 1
 406 385 l 1
 385 196 l 1
 371 129 484 121 524 175 c 0
 531 185 537 215 525 224 c 0
 524 224 523 225 521 224 c 2
 511 268 l 1
 575 284 591 193 560 150 c 0
 493 55 317 89 341 204 c 1
 366 430 l 1
 465 430 l 1
 483 455 487 485 480 507 c 1
448 238 m 1
 449 237 l 1
 427 198 l 1
 399 214 397 240 409 262 c 0
 431 300 498 339 535 366 c 0
 542 370 545 373 546 374 c 2
 579 344 l 1
 568 332 551 322 538 313 c 0
 518 300 456 260 448 238 c 1
705 421 m 1
 709 430 l 2
 711 435 714 453 710 459 c 0
 709 459 706 460 699 461 c 2
 698 461 l 1
 703 448 706 435 705 421 c 1
750 411 m 1xd1f0
 768 411 l 1xd1f0
 804 282 l 1xedf0
 823 282 l 1
 815 308 816 340 826 360 c 1
 866 343 l 1
 856 321 859 289 864 279 c 2
 884 236 l 1
 817 236 l 1
 851 114 l 1
 846 91 862 47 891 73 c 0
 897 78 911 120 891 115 c 1
 880 158 l 1
 951 176 959 89 932 52 c 0
 908 18 779 -18 804 113 c 1
 771 236 l 1
 676 236 l 1
 619 103 l 1
 578 121 l 1
 633 256 l 1
 633 281 l 1
 645 282 l 1
 681 366 l 1
 618 366 l 1
 678 435 662 422 638 500 c 1
 700 508 776 520 752 416 c 1
 750 411 l 1xd1f0
731 366 m 1
 696 282 l 1xedf0
 757 282 l 1
 734 366 l 1
 731 366 l 1
EndSplineSet
EndChar

StartChar: Odieresis
Encoding: 214 214 112
Width: 1000
Flags: MW
HStem: 20 45 95 45 236 46<696 757 645 676 817 823 817 817> 236 175<750 768 750 771 676 768 750 884 750 817> 291 45<13 142 13 147 193 336 13 188> 385 45<406 465 366 486 406 406>
VStem: 13 323<291 336 291 336> 127 146 339 45 402 174 660 45 801 145
LayerCount: 2
Back
Fore
SplineSet
147 336 m 1xedf0
 152 377 l 1
 44 377 l 1
 74 411 114 448 98 500 c 1
 141 513 l 1
 150 485 147 452 134 422 c 1
 202 422 l 1
 193 336 l 1
 336 336 l 1xeef0
 336 291 l 1
 188 291 l 1
 176 189 l 2
 171 166 185 107 222 156 c 0
 227 162 237 198 217 193 c 1
 206 237 l 1
 272 254 289 173 259 130 c 0
 235 96 102 60 132 196 c 1
 142 291 l 1
 13 291 l 1
 13 336 l 1
 147 336 l 1xedf0
480 507 m 1
 523 521 l 1
 539 470 519 423 486 385 c 1
 406 385 l 1
 385 196 l 1
 371 129 484 121 524 175 c 0
 531 185 537 215 525 224 c 0
 524 224 523 225 521 224 c 2
 511 268 l 1
 575 284 591 193 560 150 c 0
 493 55 317 89 341 204 c 1
 366 430 l 1
 465 430 l 1
 483 455 487 485 480 507 c 1
448 238 m 1
 449 237 l 1
 427 198 l 1
 399 214 397 240 409 262 c 0
 431 300 498 339 535 366 c 0
 542 370 545 373 546 374 c 2
 579 344 l 1
 568 332 551 322 538 313 c 0
 518 300 456 260 448 238 c 1
705 421 m 1
 709 430 l 2
 711 435 714 453 710 459 c 0
 709 459 706 460 699 461 c 2
 698 461 l 1
 703 448 706 435 705 421 c 1
750 411 m 1xd1f0
 768 411 l 1xd1f0
 804 282 l 1xedf0
 823 282 l 1
 815 308 816 340 826 360 c 1
 866 343 l 1
 856 321 859 289 864 279 c 2
 884 236 l 1
 817 236 l 1
 851 114 l 1
 846 91 862 47 891 73 c 0
 897 78 911 120 891 115 c 1
 880 158 l 1
 951 176 959 89 932 52 c 0
 908 18 779 -18 804 113 c 1
 771 236 l 1
 676 236 l 1
 619 103 l 1
 578 121 l 1
 633 256 l 1
 633 281 l 1
 645 282 l 1
 681 366 l 1
 618 366 l 1
 678 435 662 422 638 500 c 1
 700 508 776 520 752 416 c 1
 750 411 l 1xd1f0
731 366 m 1
 696 282 l 1xedf0
 757 282 l 1
 734 366 l 1
 731 366 l 1
EndSplineSet
EndChar

StartChar: Udieresis
Encoding: 220 220 113
Width: 1000
Flags: MW
HStem: 20 45 95 45 236 46<696 757 645 676 817 823 817 817> 236 175<750 768 750 771 676 768 750 884 750 817> 291 45<13 142 13 147 193 336 13 188> 385 45<406 465 366 486 406 406>
VStem: 13 323<291 336 291 336> 127 146 339 45 402 174 660 45 801 145
LayerCount: 2
Back
Fore
SplineSet
147 336 m 1xedf0
 152 377 l 1
 44 377 l 1
 74 411 114 448 98 500 c 1
 141 513 l 1
 150 485 147 452 134 422 c 1
 202 422 l 1
 193 336 l 1
 336 336 l 1xeef0
 336 291 l 1
 188 291 l 1
 176 189 l 2
 171 166 185 107 222 156 c 0
 227 162 237 198 217 193 c 1
 206 237 l 1
 272 254 289 173 259 130 c 0
 235 96 102 60 132 196 c 1
 142 291 l 1
 13 291 l 1
 13 336 l 1
 147 336 l 1xedf0
480 507 m 1
 523 521 l 1
 539 470 519 423 486 385 c 1
 406 385 l 1
 385 196 l 1
 371 129 484 121 524 175 c 0
 531 185 537 215 525 224 c 0
 524 224 523 225 521 224 c 2
 511 268 l 1
 575 284 591 193 560 150 c 0
 493 55 317 89 341 204 c 1
 366 430 l 1
 465 430 l 1
 483 455 487 485 480 507 c 1
448 238 m 1
 449 237 l 1
 427 198 l 1
 399 214 397 240 409 262 c 0
 431 300 498 339 535 366 c 0
 542 370 545 373 546 374 c 2
 579 344 l 1
 568 332 551 322 538 313 c 0
 518 300 456 260 448 238 c 1
705 421 m 1
 709 430 l 2
 711 435 714 453 710 459 c 0
 709 459 706 460 699 461 c 2
 698 461 l 1
 703 448 706 435 705 421 c 1
750 411 m 1xd1f0
 768 411 l 1xd1f0
 804 282 l 1xedf0
 823 282 l 1
 815 308 816 340 826 360 c 1
 866 343 l 1
 856 321 859 289 864 279 c 2
 884 236 l 1
 817 236 l 1
 851 114 l 1
 846 91 862 47 891 73 c 0
 897 78 911 120 891 115 c 1
 880 158 l 1
 951 176 959 89 932 52 c 0
 908 18 779 -18 804 113 c 1
 771 236 l 1
 676 236 l 1
 619 103 l 1
 578 121 l 1
 633 256 l 1
 633 281 l 1
 645 282 l 1
 681 366 l 1
 618 366 l 1
 678 435 662 422 638 500 c 1
 700 508 776 520 752 416 c 1
 750 411 l 1xd1f0
731 366 m 1
 696 282 l 1xedf0
 757 282 l 1
 734 366 l 1
 731 366 l 1
EndSplineSet
EndChar

StartChar: aacute
Encoding: 225 225 114
Width: 1000
Flags: MW
HStem: 20 45 95 45 236 46<696 757 645 676 817 823 817 817> 236 175<750 768 750 771 676 768 750 884 750 817> 291 45<13 142 13 147 193 336 13 188> 385 45<406 465 366 486 406 406>
VStem: 13 323<291 336 291 336> 127 146 339 45 402 174 660 45 801 145
LayerCount: 2
Back
Fore
SplineSet
147 336 m 1xedf0
 152 377 l 1
 44 377 l 1
 74 411 114 448 98 500 c 1
 141 513 l 1
 150 485 147 452 134 422 c 1
 202 422 l 1
 193 336 l 1
 336 336 l 1xeef0
 336 291 l 1
 188 291 l 1
 176 189 l 2
 171 166 185 107 222 156 c 0
 227 162 237 198 217 193 c 1
 206 237 l 1
 272 254 289 173 259 130 c 0
 235 96 102 60 132 196 c 1
 142 291 l 1
 13 291 l 1
 13 336 l 1
 147 336 l 1xedf0
480 507 m 1
 523 521 l 1
 539 470 519 423 486 385 c 1
 406 385 l 1
 385 196 l 1
 371 129 484 121 524 175 c 0
 531 185 537 215 525 224 c 0
 524 224 523 225 521 224 c 2
 511 268 l 1
 575 284 591 193 560 150 c 0
 493 55 317 89 341 204 c 1
 366 430 l 1
 465 430 l 1
 483 455 487 485 480 507 c 1
448 238 m 1
 449 237 l 1
 427 198 l 1
 399 214 397 240 409 262 c 0
 431 300 498 339 535 366 c 0
 542 370 545 373 546 374 c 2
 579 344 l 1
 568 332 551 322 538 313 c 0
 518 300 456 260 448 238 c 1
705 421 m 1
 709 430 l 2
 711 435 714 453 710 459 c 0
 709 459 706 460 699 461 c 2
 698 461 l 1
 703 448 706 435 705 421 c 1
750 411 m 1xd1f0
 768 411 l 1xd1f0
 804 282 l 1xedf0
 823 282 l 1
 815 308 816 340 826 360 c 1
 866 343 l 1
 856 321 859 289 864 279 c 2
 884 236 l 1
 817 236 l 1
 851 114 l 1
 846 91 862 47 891 73 c 0
 897 78 911 120 891 115 c 1
 880 158 l 1
 951 176 959 89 932 52 c 0
 908 18 779 -18 804 113 c 1
 771 236 l 1
 676 236 l 1
 619 103 l 1
 578 121 l 1
 633 256 l 1
 633 281 l 1
 645 282 l 1
 681 366 l 1
 618 366 l 1
 678 435 662 422 638 500 c 1
 700 508 776 520 752 416 c 1
 750 411 l 1xd1f0
731 366 m 1
 696 282 l 1xedf0
 757 282 l 1
 734 366 l 1
 731 366 l 1
EndSplineSet
EndChar

